<svg width="231" height="77" viewBox="0 0 231 77" fill="none" xmlns="http://www.w3.org/2000/svg">
<mask id="path-1-outside-1_1_586" maskUnits="userSpaceOnUse" x="0" y="0" width="231" height="77" fill="black">
<rect fill="white" width="231" height="77"/>
<path d="M10.1102 27L1.86622 1.8H7.91422L15.0782 24.12H12.0542L19.5422 1.8H24.9422L32.1422 24.12H29.2262L36.5702 1.8H42.1502L33.9062 27H27.6422L21.2702 7.416H22.9262L16.3742 27H10.1102ZM41.2502 27L52.4822 1.8H58.2422L69.5102 27H63.3902L54.1742 4.752H56.4782L47.2262 27H41.2502ZM46.8662 21.6L48.4142 17.172H61.3742L62.9582 21.6H46.8662ZM76.0791 27V6.552H68.0151V1.8H89.9751V6.552H81.9111V27H76.0791ZM104.821 27.432C102.877 27.432 101.065 27.12 99.3854 26.496C97.7294 25.848 96.2894 24.936 95.0654 23.76C93.8414 22.584 92.8814 21.204 92.1854 19.62C91.5134 18.036 91.1774 16.296 91.1774 14.4C91.1774 12.504 91.5134 10.764 92.1854 9.18C92.8814 7.596 93.8414 6.216 95.0654 5.04C96.3134 3.864 97.7654 2.964 99.4214 2.34C101.077 1.692 102.889 1.368 104.857 1.368C107.041 1.368 109.009 1.752 110.761 2.52C112.537 3.264 114.025 4.368 115.225 5.832L111.481 9.288C110.617 8.304 109.657 7.572 108.601 7.092C107.545 6.588 106.393 6.336 105.145 6.336C103.969 6.336 102.889 6.528 101.905 6.912C100.921 7.296 100.069 7.848 99.3494 8.568C98.6294 9.288 98.0654 10.14 97.6574 11.124C97.2734 12.108 97.0814 13.2 97.0814 14.4C97.0814 15.6 97.2734 16.692 97.6574 17.676C98.0654 18.66 98.6294 19.512 99.3494 20.232C100.069 20.952 100.921 21.504 101.905 21.888C102.889 22.272 103.969 22.464 105.145 22.464C106.393 22.464 107.545 22.224 108.601 21.744C109.657 21.24 110.617 20.484 111.481 19.476L115.225 22.932C114.025 24.396 112.537 25.512 110.761 26.28C109.009 27.048 107.029 27.432 104.821 27.432ZM136.444 1.8H142.276V27H136.444V1.8ZM124.996 27H119.164V1.8H124.996V27ZM136.876 16.668H124.564V11.736H136.876V16.668Z"/>
<path d="M163.653 27V6.552H155.589V1.8H177.549V6.552H169.485V27H163.653ZM197.967 1.8H203.799V27H197.967V1.8ZM186.519 27H180.687V1.8H186.519V27ZM198.399 16.668H186.087V11.736H198.399V16.668ZM215.125 11.952H227.257V16.488H215.125V11.952ZM215.557 22.32H229.273V27H209.761V1.8H228.805V6.48H215.557V22.32ZM65.341 75L54.469 49.8H60.769L70.273 72.12H66.565L76.213 49.8H82.009L71.101 75H65.341ZM84.113 75V49.8H89.945V75H84.113ZM95.9255 75V49.8H107.374C110.11 49.8 112.522 50.328 114.61 51.384C116.698 52.416 118.33 53.868 119.506 55.74C120.682 57.612 121.27 59.832 121.27 62.4C121.27 64.944 120.682 67.164 119.506 69.06C118.33 70.932 116.698 72.396 114.61 73.452C112.522 74.484 110.11 75 107.374 75H95.9255ZM101.758 70.212H107.086C108.766 70.212 110.218 69.9 111.441 69.276C112.69 68.628 113.65 67.716 114.322 66.54C115.018 65.364 115.366 63.984 115.366 62.4C115.366 60.792 115.018 59.412 114.322 58.26C113.65 57.084 112.69 56.184 111.441 55.56C110.218 54.912 108.766 54.588 107.086 54.588H101.758V70.212ZM131.032 59.952H143.164V64.488H131.032V59.952ZM131.464 70.32H145.18V75H125.668V49.8H144.712V54.48H131.464V70.32ZM162.06 75.432C160.068 75.432 158.22 75.108 156.516 74.46C154.836 73.812 153.372 72.9 152.124 71.724C150.9 70.548 149.94 69.168 149.244 67.584C148.572 66 148.236 64.272 148.236 62.4C148.236 60.528 148.572 58.8 149.244 57.216C149.94 55.632 150.912 54.252 152.16 53.076C153.408 51.9 154.872 50.988 156.552 50.34C158.232 49.692 160.056 49.368 162.024 49.368C164.016 49.368 165.84 49.692 167.496 50.34C169.176 50.988 170.628 51.9 171.852 53.076C173.1 54.252 174.072 55.632 174.768 57.216C175.464 58.776 175.812 60.504 175.812 62.4C175.812 64.272 175.464 66.012 174.768 67.62C174.072 69.204 173.1 70.584 171.852 71.76C170.628 72.912 169.176 73.812 167.496 74.46C165.84 75.108 164.028 75.432 162.06 75.432ZM162.024 70.464C163.152 70.464 164.184 70.272 165.12 69.888C166.08 69.504 166.92 68.952 167.64 68.232C168.36 67.512 168.912 66.66 169.296 65.676C169.704 64.692 169.908 63.6 169.908 62.4C169.908 61.2 169.704 60.108 169.296 59.124C168.912 58.14 168.36 57.288 167.64 56.568C166.944 55.848 166.116 55.296 165.156 54.912C164.196 54.528 163.152 54.336 162.024 54.336C160.896 54.336 159.852 54.528 158.892 54.912C157.956 55.296 157.128 55.848 156.408 56.568C155.688 57.288 155.124 58.14 154.716 59.124C154.332 60.108 154.14 61.2 154.14 62.4C154.14 63.576 154.332 64.668 154.716 65.676C155.124 66.66 155.676 67.512 156.372 68.232C157.092 68.952 157.932 69.504 158.892 69.888C159.852 70.272 160.896 70.464 162.024 70.464Z"/>
</mask>
<path d="M163.653 27V6.552H155.589V1.8H177.549V6.552H169.485V27H163.653ZM197.967 1.8H203.799V27H197.967V1.8ZM186.519 27H180.687V1.8H186.519V27ZM198.399 16.668H186.087V11.736H198.399V16.668ZM215.125 11.952H227.257V16.488H215.125V11.952ZM215.557 22.32H229.273V27H209.761V1.8H228.805V6.48H215.557V22.32ZM65.341 75L54.469 49.8H60.769L70.273 72.12H66.565L76.213 49.8H82.009L71.101 75H65.341ZM84.113 75V49.8H89.945V75H84.113ZM95.9255 75V49.8H107.374C110.11 49.8 112.522 50.328 114.61 51.384C116.698 52.416 118.33 53.868 119.506 55.74C120.682 57.612 121.27 59.832 121.27 62.4C121.27 64.944 120.682 67.164 119.506 69.06C118.33 70.932 116.698 72.396 114.61 73.452C112.522 74.484 110.11 75 107.374 75H95.9255ZM101.758 70.212H107.086C108.766 70.212 110.218 69.9 111.441 69.276C112.69 68.628 113.65 67.716 114.322 66.54C115.018 65.364 115.366 63.984 115.366 62.4C115.366 60.792 115.018 59.412 114.322 58.26C113.65 57.084 112.69 56.184 111.441 55.56C110.218 54.912 108.766 54.588 107.086 54.588H101.758V70.212ZM131.032 59.952H143.164V64.488H131.032V59.952ZM131.464 70.32H145.18V75H125.668V49.8H144.712V54.48H131.464V70.32ZM162.06 75.432C160.068 75.432 158.22 75.108 156.516 74.46C154.836 73.812 153.372 72.9 152.124 71.724C150.9 70.548 149.94 69.168 149.244 67.584C148.572 66 148.236 64.272 148.236 62.4C148.236 60.528 148.572 58.8 149.244 57.216C149.94 55.632 150.912 54.252 152.16 53.076C153.408 51.9 154.872 50.988 156.552 50.34C158.232 49.692 160.056 49.368 162.024 49.368C164.016 49.368 165.84 49.692 167.496 50.34C169.176 50.988 170.628 51.9 171.852 53.076C173.1 54.252 174.072 55.632 174.768 57.216C175.464 58.776 175.812 60.504 175.812 62.4C175.812 64.272 175.464 66.012 174.768 67.62C174.072 69.204 173.1 70.584 171.852 71.76C170.628 72.912 169.176 73.812 167.496 74.46C165.84 75.108 164.028 75.432 162.06 75.432ZM162.024 70.464C163.152 70.464 164.184 70.272 165.12 69.888C166.08 69.504 166.92 68.952 167.64 68.232C168.36 67.512 168.912 66.66 169.296 65.676C169.704 64.692 169.908 63.6 169.908 62.4C169.908 61.2 169.704 60.108 169.296 59.124C168.912 58.14 168.36 57.288 167.64 56.568C166.944 55.848 166.116 55.296 165.156 54.912C164.196 54.528 163.152 54.336 162.024 54.336C160.896 54.336 159.852 54.528 158.892 54.912C157.956 55.296 157.128 55.848 156.408 56.568C155.688 57.288 155.124 58.14 154.716 59.124C154.332 60.108 154.14 61.2 154.14 62.4C154.14 63.576 154.332 64.668 154.716 65.676C155.124 66.66 155.676 67.512 156.372 68.232C157.092 68.952 157.932 69.504 158.892 69.888C159.852 70.272 160.896 70.464 162.024 70.464Z" fill="white"/>
<path d="M10.1102 27L9.15979 27.3109L9.38521 28H10.1102V27ZM1.86622 1.8V0.799998H0.486923L0.915787 2.11093L1.86622 1.8ZM7.91422 1.8L8.86637 1.49439L8.6435 0.799998H7.91422V1.8ZM15.0782 24.12V25.12H16.4494L16.0304 23.8144L15.0782 24.12ZM12.0542 24.12L11.1061 23.8019L10.664 25.12H12.0542V24.12ZM19.5422 1.8V0.799998H18.8229L18.5941 1.48194L19.5422 1.8ZM24.9422 1.8L25.8939 1.493L25.6704 0.799998H24.9422V1.8ZM32.1422 24.12V25.12H33.5155L33.0939 23.813L32.1422 24.12ZM29.2262 24.12L28.2763 23.8075L27.8445 25.12H29.2262V24.12ZM36.5702 1.8V0.799998H35.8465L35.6203 1.48745L36.5702 1.8ZM42.1502 1.8L43.1007 2.11093L43.5295 0.799998H42.1502V1.8ZM33.9062 27V28H34.6312L34.8567 27.3109L33.9062 27ZM27.6422 27L26.6913 27.3094L26.916 28H27.6422V27ZM21.2702 7.416V6.416H19.8932L20.3193 7.7254L21.2702 7.416ZM22.9262 7.416L23.8746 7.73327L24.3153 6.416H22.9262V7.416ZM16.3742 27V28H17.0941L17.3226 27.3173L16.3742 27ZM11.0607 26.6891L2.81665 1.48907L0.915787 2.11093L9.15979 27.3109L11.0607 26.6891ZM1.86622 2.8H7.91422V0.799998H1.86622V2.8ZM6.96206 2.10561L14.1261 24.4256L16.0304 23.8144L8.86637 1.49439L6.96206 2.10561ZM15.0782 23.12H12.0542V25.12H15.0782V23.12ZM13.0023 24.4381L20.4903 2.11806L18.5941 1.48194L11.1061 23.8019L13.0023 24.4381ZM19.5422 2.8H24.9422V0.799998H19.5422V2.8ZM23.9905 2.107L31.1905 24.427L33.0939 23.813L25.8939 1.493L23.9905 2.107ZM32.1422 23.12H29.2262V25.12H32.1422V23.12ZM30.1761 24.4325L37.5201 2.11255L35.6203 1.48745L28.2763 23.8075L30.1761 24.4325ZM36.5702 2.8H42.1502V0.799998H36.5702V2.8ZM41.1998 1.48907L32.9558 26.6891L34.8567 27.3109L43.1007 2.11093L41.1998 1.48907ZM33.9062 26H27.6422V28H33.9062V26ZM28.5932 26.6906L22.2212 7.1066L20.3193 7.7254L26.6913 27.3094L28.5932 26.6906ZM21.2702 8.416H22.9262V6.416H21.2702V8.416ZM21.9779 7.09873L15.4259 26.6827L17.3226 27.3173L23.8746 7.73327L21.9779 7.09873ZM16.3742 26H10.1102V28H16.3742V26ZM41.2502 27L40.3368 26.5929L39.7097 28H41.2502V27ZM52.4822 1.8V0.799998H51.8331L51.5688 1.39289L52.4822 1.8ZM58.2422 1.8L59.1551 1.3918L58.8905 0.799998H58.2422V1.8ZM69.5102 27V28H71.0528L70.4231 26.5918L69.5102 27ZM63.3902 27L62.4663 27.3827L62.7221 28H63.3902V27ZM54.1742 4.752V3.752H52.6776L53.2504 5.1347L54.1742 4.752ZM56.4782 4.752L57.4016 5.13598L57.9771 3.752H56.4782V4.752ZM47.2262 27V28H47.8934L48.1496 27.384L47.2262 27ZM46.8662 21.6L45.9222 21.27L45.4573 22.6H46.8662V21.6ZM48.4142 17.172V16.172H47.7045L47.4702 16.842L48.4142 17.172ZM61.3742 17.172L62.3158 16.8352L62.0786 16.172H61.3742V17.172ZM62.9582 21.6V22.6H64.378L63.8998 21.2632L62.9582 21.6ZM42.1636 27.4071L53.3956 2.2071L51.5688 1.39289L40.3368 26.5929L42.1636 27.4071ZM52.4822 2.8H58.2422V0.799998H52.4822V2.8ZM57.3293 2.20819L68.5973 27.4082L70.4231 26.5918L59.1551 1.3918L57.3293 2.20819ZM69.5102 26H63.3902V28H69.5102V26ZM64.3141 26.6173L55.0981 4.3693L53.2504 5.1347L62.4663 27.3827L64.3141 26.6173ZM54.1742 5.752H56.4782V3.752H54.1742V5.752ZM55.5549 4.36802L46.3029 26.616L48.1496 27.384L57.4016 5.13598L55.5549 4.36802ZM47.2262 26H41.2502V28H47.2262V26ZM47.8102 21.93L49.3582 17.502L47.4702 16.842L45.9222 21.27L47.8102 21.93ZM48.4142 18.172H61.3742V16.172H48.4142V18.172ZM60.4326 17.5088L62.0167 21.9368L63.8998 21.2632L62.3158 16.8352L60.4326 17.5088ZM62.9582 20.6H46.8662V22.6H62.9582V20.6ZM76.0791 27H75.0791V28H76.0791V27ZM76.0791 6.552H77.0791V5.552H76.0791V6.552ZM68.0151 6.552H67.0151V7.552H68.0151V6.552ZM68.0151 1.8V0.799998H67.0151V1.8H68.0151ZM89.9751 1.8H90.9751V0.799998H89.9751V1.8ZM89.9751 6.552V7.552H90.9751V6.552H89.9751ZM81.9111 6.552V5.552H80.9111V6.552H81.9111ZM81.9111 27V28H82.9111V27H81.9111ZM77.0791 27V6.552H75.0791V27H77.0791ZM76.0791 5.552H68.0151V7.552H76.0791V5.552ZM69.0151 6.552V1.8H67.0151V6.552H69.0151ZM68.0151 2.8H89.9751V0.799998H68.0151V2.8ZM88.9751 1.8V6.552H90.9751V1.8H88.9751ZM89.9751 5.552H81.9111V7.552H89.9751V5.552ZM80.9111 6.552V27H82.9111V6.552H80.9111ZM81.9111 26H76.0791V28H81.9111V26ZM99.3854 26.496L99.021 27.4272L99.0291 27.4304L99.0372 27.4334L99.3854 26.496ZM95.0654 23.76L94.3726 24.4811L95.0654 23.76ZM92.1854 19.62L91.2648 20.0106L91.2699 20.0223L92.1854 19.62ZM92.1854 9.18L91.2698 8.77769L91.2649 8.78945L92.1854 9.18ZM95.0654 5.04L94.3796 4.31218L94.3726 4.31889L95.0654 5.04ZM99.4214 2.34L99.7741 3.27584L99.7858 3.27124L99.4214 2.34ZM110.761 2.52L110.36 3.43587L110.367 3.43917L110.375 3.44234L110.761 2.52ZM115.225 5.832L115.904 6.5668L116.597 5.92728L115.999 5.19807L115.225 5.832ZM111.481 9.288L110.73 9.9478L111.406 10.7182L112.16 10.0228L111.481 9.288ZM108.601 7.092L108.171 7.99448L108.179 7.9985L108.188 8.00237L108.601 7.092ZM99.3494 8.568L100.057 9.27511L99.3494 8.568ZM97.6574 11.124L96.7337 10.741L96.7297 10.7507L96.7259 10.7605L97.6574 11.124ZM97.6574 17.676L96.7259 18.0395L96.7297 18.0493L96.7337 18.059L97.6574 17.676ZM99.3494 20.232L98.6423 20.9391L99.3494 20.232ZM108.601 21.744L109.015 22.6544L109.024 22.6505L109.032 22.6465L108.601 21.744ZM111.481 19.476L112.16 18.7412L111.397 18.0375L110.722 18.8252L111.481 19.476ZM115.225 22.932L115.999 23.5659L116.597 22.8367L115.904 22.1972L115.225 22.932ZM110.761 26.28L110.365 25.3621L110.36 25.3641L110.761 26.28ZM104.821 26.432C102.986 26.432 101.293 26.1378 99.7336 25.5586L99.0372 27.4334C100.838 28.1022 102.769 28.432 104.821 28.432V26.432ZM99.7498 25.5648C98.2101 24.9623 96.8831 24.1197 95.7583 23.0389L94.3726 24.4811C95.6957 25.7523 97.2488 26.7337 99.021 27.4272L99.7498 25.5648ZM95.7583 23.0389C94.6305 21.9554 93.7453 20.6843 93.101 19.2177L91.2699 20.0223C92.0175 21.7237 93.0524 23.2127 94.3726 24.4811L95.7583 23.0389ZM93.106 19.2295C92.4915 17.781 92.1774 16.1755 92.1774 14.4H90.1774C90.1774 16.4165 90.5353 18.291 91.2649 20.0105L93.106 19.2295ZM92.1774 14.4C92.1774 12.6245 92.4915 11.019 93.106 9.57055L91.2649 8.78945C90.5353 10.509 90.1774 12.3835 90.1774 14.4H92.1774ZM93.101 9.58227C93.7453 8.11573 94.6305 6.84465 95.7583 5.7611L94.3726 4.31889C93.0524 5.58735 92.0175 7.07627 91.2699 8.77773L93.101 9.58227ZM95.7512 5.76779C96.8999 4.68538 98.2377 3.85467 99.774 3.27577L99.0688 1.40423C97.2932 2.07332 95.727 3.04262 94.3796 4.31221L95.7512 5.76779ZM99.7858 3.27124C101.314 2.67328 103.001 2.368 104.857 2.368V0.368C102.778 0.368 100.841 0.710713 99.057 1.40875L99.7858 3.27124ZM104.857 2.368C106.923 2.368 108.751 2.73069 110.36 3.43587L111.163 1.60413C109.268 0.773314 107.16 0.368 104.857 0.368V2.368ZM110.375 3.44234C112.003 4.12437 113.357 5.13047 114.452 6.46593L115.999 5.19807C114.693 3.60553 113.072 2.40363 111.148 1.59766L110.375 3.44234ZM114.547 5.0972L110.803 8.5532L112.16 10.0228L115.904 6.5668L114.547 5.0972ZM112.233 8.6282C111.287 7.55144 110.216 6.72741 109.015 6.18163L108.188 8.00237C109.099 8.41659 109.947 9.05656 110.73 9.9478L112.233 8.6282ZM109.032 6.18952C107.833 5.61709 106.532 5.336 105.145 5.336V7.336C106.255 7.336 107.258 7.55891 108.171 7.99448L109.032 6.18952ZM105.145 5.336C103.859 5.336 102.654 5.54636 101.542 5.98042L102.269 7.84358C103.125 7.50964 104.08 7.336 105.145 7.336V5.336ZM101.542 5.98042C100.434 6.41277 99.4638 7.03945 98.6423 7.86089L100.057 9.27511C100.675 8.65655 101.409 8.17923 102.269 7.84358L101.542 5.98042ZM98.6423 7.86089C97.8253 8.67793 97.1896 9.64148 96.7337 10.741L98.5812 11.507C98.9413 10.6385 99.4336 9.89807 100.057 9.27511L98.6423 7.86089ZM96.7259 10.7605C96.2909 11.875 96.0814 13.0924 96.0814 14.4H98.0814C98.0814 13.3076 98.256 12.341 98.589 11.4875L96.7259 10.7605ZM96.0814 14.4C96.0814 15.7076 96.2909 16.925 96.7259 18.0395L98.589 17.3125C98.256 16.459 98.0814 15.4924 98.0814 14.4H96.0814ZM96.7337 18.059C97.1896 19.1585 97.8253 20.1221 98.6423 20.9391L100.057 19.5249C99.4336 18.9019 98.9413 18.1615 98.5812 17.293L96.7337 18.059ZM98.6423 20.9391C99.4638 21.7605 100.434 22.3872 101.542 22.8196L102.269 20.9564C101.409 20.6208 100.675 20.1435 100.057 19.5249L98.6423 20.9391ZM101.542 22.8196C102.654 23.2536 103.859 23.464 105.145 23.464V21.464C104.08 21.464 103.125 21.2904 102.269 20.9564L101.542 22.8196ZM105.145 23.464C106.525 23.464 107.82 23.1978 109.015 22.6544L108.188 20.8336C107.271 21.2502 106.262 21.464 105.145 21.464V23.464ZM109.032 22.6465C110.23 22.0748 111.298 21.2264 112.241 20.1268L110.722 18.8252C109.937 19.7416 109.085 20.4052 108.171 20.8415L109.032 22.6465ZM110.803 20.2108L114.547 23.6668L115.904 22.1972L112.16 18.7412L110.803 20.2108ZM114.452 22.2981C113.355 23.636 111.998 24.656 110.365 25.3621L111.158 27.1979C113.077 26.368 114.695 25.156 115.999 23.5659L114.452 22.2981ZM110.36 25.3641C108.753 26.0687 106.912 26.432 104.821 26.432V28.432C107.146 28.432 109.266 28.0273 111.163 27.1959L110.36 25.3641ZM136.444 1.8V0.799998H135.444V1.8H136.444ZM142.276 1.8H143.276V0.799998H142.276V1.8ZM142.276 27V28H143.276V27H142.276ZM136.444 27H135.444V28H136.444V27ZM124.996 27V28H125.996V27H124.996ZM119.164 27H118.164V28H119.164V27ZM119.164 1.8V0.799998H118.164V1.8H119.164ZM124.996 1.8H125.996V0.799998H124.996V1.8ZM136.876 16.668V17.668H137.876V16.668H136.876ZM124.564 16.668H123.564V17.668H124.564V16.668ZM124.564 11.736V10.736H123.564V11.736H124.564ZM136.876 11.736H137.876V10.736H136.876V11.736ZM136.444 2.8H142.276V0.799998H136.444V2.8ZM141.276 1.8V27H143.276V1.8H141.276ZM142.276 26H136.444V28H142.276V26ZM137.444 27V1.8H135.444V27H137.444ZM124.996 26H119.164V28H124.996V26ZM120.164 27V1.8H118.164V27H120.164ZM119.164 2.8H124.996V0.799998H119.164V2.8ZM123.996 1.8V27H125.996V1.8H123.996ZM136.876 15.668H124.564V17.668H136.876V15.668ZM125.564 16.668V11.736H123.564V16.668H125.564ZM124.564 12.736H136.876V10.736H124.564V12.736ZM135.876 11.736V16.668H137.876V11.736H135.876ZM163.653 27H162.653V28H163.653V27ZM163.653 6.552H164.653V5.552H163.653V6.552ZM155.589 6.552H154.589V7.552H155.589V6.552ZM155.589 1.8V0.799998H154.589V1.8H155.589ZM177.549 1.8H178.549V0.799998H177.549V1.8ZM177.549 6.552V7.552H178.549V6.552H177.549ZM169.485 6.552V5.552H168.485V6.552H169.485ZM169.485 27V28H170.485V27H169.485ZM164.653 27V6.552H162.653V27H164.653ZM163.653 5.552H155.589V7.552H163.653V5.552ZM156.589 6.552V1.8H154.589V6.552H156.589ZM155.589 2.8H177.549V0.799998H155.589V2.8ZM176.549 1.8V6.552H178.549V1.8H176.549ZM177.549 5.552H169.485V7.552H177.549V5.552ZM168.485 6.552V27H170.485V6.552H168.485ZM169.485 26H163.653V28H169.485V26ZM197.967 1.8V0.799998H196.967V1.8H197.967ZM203.799 1.8H204.799V0.799998H203.799V1.8ZM203.799 27V28H204.799V27H203.799ZM197.967 27H196.967V28H197.967V27ZM186.519 27V28H187.519V27H186.519ZM180.687 27H179.687V28H180.687V27ZM180.687 1.8V0.799998H179.687V1.8H180.687ZM186.519 1.8H187.519V0.799998H186.519V1.8ZM198.399 16.668V17.668H199.399V16.668H198.399ZM186.087 16.668H185.087V17.668H186.087V16.668ZM186.087 11.736V10.736H185.087V11.736H186.087ZM198.399 11.736H199.399V10.736H198.399V11.736ZM197.967 2.8H203.799V0.799998H197.967V2.8ZM202.799 1.8V27H204.799V1.8H202.799ZM203.799 26H197.967V28H203.799V26ZM198.967 27V1.8H196.967V27H198.967ZM186.519 26H180.687V28H186.519V26ZM181.687 27V1.8H179.687V27H181.687ZM180.687 2.8H186.519V0.799998H180.687V2.8ZM185.519 1.8V27H187.519V1.8H185.519ZM198.399 15.668H186.087V17.668H198.399V15.668ZM187.087 16.668V11.736H185.087V16.668H187.087ZM186.087 12.736H198.399V10.736H186.087V12.736ZM197.399 11.736V16.668H199.399V11.736H197.399ZM215.125 11.952V10.952H214.125V11.952H215.125ZM227.257 11.952H228.257V10.952H227.257V11.952ZM227.257 16.488V17.488H228.257V16.488H227.257ZM215.125 16.488H214.125V17.488H215.125V16.488ZM215.557 22.32H214.557V23.32H215.557V22.32ZM229.273 22.32H230.273V21.32H229.273V22.32ZM229.273 27V28H230.273V27H229.273ZM209.761 27H208.761V28H209.761V27ZM209.761 1.8V0.799998H208.761V1.8H209.761ZM228.805 1.8H229.805V0.799998H228.805V1.8ZM228.805 6.48V7.48H229.805V6.48H228.805ZM215.557 6.48V5.48H214.557V6.48H215.557ZM215.125 12.952H227.257V10.952H215.125V12.952ZM226.257 11.952V16.488H228.257V11.952H226.257ZM227.257 15.488H215.125V17.488H227.257V15.488ZM216.125 16.488V11.952H214.125V16.488H216.125ZM215.557 23.32H229.273V21.32H215.557V23.32ZM228.273 22.32V27H230.273V22.32H228.273ZM229.273 26H209.761V28H229.273V26ZM210.761 27V1.8H208.761V27H210.761ZM209.761 2.8H228.805V0.799998H209.761V2.8ZM227.805 1.8V6.48H229.805V1.8H227.805ZM228.805 5.48H215.557V7.48H228.805V5.48ZM214.557 6.48V22.32H216.557V6.48H214.557ZM65.341 75L64.4228 75.3961L64.6833 76H65.341V75ZM54.469 49.8V48.8H52.9484L53.5508 50.1961L54.469 49.8ZM60.769 49.8L61.689 49.4082L61.43 48.8H60.769V49.8ZM70.273 72.12V73.12H71.7857L71.193 71.7282L70.273 72.12ZM66.565 72.12L65.6471 71.7232L65.0433 73.12H66.565V72.12ZM76.213 49.8V48.8H75.5558L75.2951 49.4032L76.213 49.8ZM82.009 49.8L82.9267 50.1972L83.5315 48.8H82.009V49.8ZM71.101 75V76H71.7578L72.0187 75.3972L71.101 75ZM66.2592 74.6039L55.3872 49.4039L53.5508 50.1961L64.4228 75.3961L66.2592 74.6039ZM54.469 50.8H60.769V48.8H54.469V50.8ZM59.8489 50.1918L69.3529 72.5118L71.193 71.7282L61.689 49.4082L59.8489 50.1918ZM70.273 71.12H66.565V73.12H70.273V71.12ZM67.4829 72.5168L77.1309 50.1968L75.2951 49.4032L65.6471 71.7232L67.4829 72.5168ZM76.213 50.8H82.009V48.8H76.213V50.8ZM81.0913 49.4028L70.1833 74.6028L72.0187 75.3972L82.9267 50.1972L81.0913 49.4028ZM71.101 74H65.341V76H71.101V74ZM84.113 75H83.113V76H84.113V75ZM84.113 49.8V48.8H83.113V49.8H84.113ZM89.945 49.8H90.945V48.8H89.945V49.8ZM89.945 75V76H90.945V75H89.945ZM85.113 75V49.8H83.113V75H85.113ZM84.113 50.8H89.945V48.8H84.113V50.8ZM88.945 49.8V75H90.945V49.8H88.945ZM89.945 74H84.113V76H89.945V74ZM95.9255 75H94.9255V76H95.9255V75ZM95.9255 49.8V48.8H94.9255V49.8H95.9255ZM114.609 51.384L114.158 52.2764L114.166 52.2805L114.609 51.384ZM119.506 69.06L120.352 69.592L120.355 69.5871L119.506 69.06ZM114.609 73.452L115.053 74.3485L115.061 74.3444L114.609 73.452ZM101.758 70.212H100.758V71.212H101.758V70.212ZM111.441 69.276L111.896 70.1669L111.902 70.1635L111.441 69.276ZM114.322 66.54L113.461 66.0307L113.457 66.0372L113.453 66.0439L114.322 66.54ZM114.322 58.26L113.453 58.7561L113.459 58.7667L113.466 58.7771L114.322 58.26ZM111.441 55.56L110.974 56.4438L110.984 56.4492L110.994 56.4544L111.441 55.56ZM101.758 54.588V53.588H100.758V54.588H101.758ZM96.9255 75V49.8H94.9255V75H96.9255ZM95.9255 50.8H107.374V48.8H95.9255V50.8ZM107.374 50.8C109.979 50.8 112.232 51.3022 114.158 52.2764L115.061 50.4916C112.811 49.3538 110.24 48.8 107.374 48.8V50.8ZM114.166 52.2805C116.098 53.2352 117.586 54.565 118.659 56.2719L120.352 55.208C119.073 53.171 117.297 51.5968 115.053 50.4875L114.166 52.2805ZM118.659 56.2719C119.719 57.9602 120.27 59.9892 120.27 62.4H122.27C122.27 59.6748 121.644 57.2638 120.352 55.208L118.659 56.2719ZM120.27 62.4C120.27 64.7845 119.72 66.8165 118.656 68.5329L120.355 69.5871C121.643 67.5115 122.27 65.1035 122.27 62.4H120.27ZM118.659 68.5281C117.585 70.2371 116.094 71.5806 114.158 72.5596L115.061 74.3444C117.301 73.2114 119.074 71.6269 120.352 69.5919L118.659 68.5281ZM114.166 72.5555C112.238 73.5085 109.983 74 107.374 74V76C110.236 76 112.805 75.4595 115.053 74.3485L114.166 72.5555ZM107.374 74H95.9255V76H107.374V74ZM101.758 71.212H107.085V69.212H101.758V71.212ZM107.085 71.212C108.889 71.212 110.503 70.8769 111.896 70.1669L110.987 68.3851C109.932 68.9231 108.642 69.212 107.085 69.212V71.212ZM111.902 70.1635C113.314 69.4305 114.419 68.3856 115.19 67.0361L113.453 66.0439C112.88 67.0464 112.065 67.8255 110.981 68.3885L111.902 70.1635ZM115.182 67.0493C115.983 65.696 116.365 64.1343 116.365 62.4H114.365C114.365 63.8337 114.052 65.032 113.461 66.0307L115.182 67.0493ZM116.365 62.4C116.365 60.6454 115.985 59.0789 115.177 57.7429L113.466 58.7771C114.05 59.7451 114.365 60.9386 114.365 62.4H116.365ZM115.19 57.7639C114.417 56.411 113.308 55.375 111.889 54.6656L110.994 56.4544C112.071 56.993 112.882 57.757 113.453 58.7561L115.19 57.7639ZM111.909 54.6762C110.514 53.9373 108.894 53.588 107.085 53.588V55.588C108.637 55.588 109.921 55.8867 110.974 56.4438L111.909 54.6762ZM107.085 53.588H101.758V55.588H107.085V53.588ZM100.758 54.588V70.212H102.758V54.588H100.758ZM131.032 59.952V58.952H130.032V59.952H131.032ZM143.164 59.952H144.164V58.952H143.164V59.952ZM143.164 64.488V65.488H144.164V64.488H143.164ZM131.032 64.488H130.032V65.488H131.032V64.488ZM131.464 70.32H130.464V71.32H131.464V70.32ZM145.18 70.32H146.18V69.32H145.18V70.32ZM145.18 75V76H146.18V75H145.18ZM125.668 75H124.668V76H125.668V75ZM125.668 49.8V48.8H124.668V49.8H125.668ZM144.712 49.8H145.712V48.8H144.712V49.8ZM144.712 54.48V55.48H145.712V54.48H144.712ZM131.464 54.48V53.48H130.464V54.48H131.464ZM131.032 60.952H143.164V58.952H131.032V60.952ZM142.164 59.952V64.488H144.164V59.952H142.164ZM143.164 63.488H131.032V65.488H143.164V63.488ZM132.032 64.488V59.952H130.032V64.488H132.032ZM131.464 71.32H145.18V69.32H131.464V71.32ZM144.18 70.32V75H146.18V70.32H144.18ZM145.18 74H125.668V76H145.18V74ZM126.668 75V49.8H124.668V75H126.668ZM125.668 50.8H144.712V48.8H125.668V50.8ZM143.712 49.8V54.48H145.712V49.8H143.712ZM144.712 53.48H131.464V55.48H144.712V53.48ZM130.464 54.48V70.32H132.464V54.48H130.464ZM156.516 74.46L156.156 75.393L156.161 75.3947L156.516 74.46ZM152.124 71.724L151.431 72.4451L151.438 72.4518L152.124 71.724ZM149.244 67.584L148.323 67.9746L148.329 67.9863L149.244 67.584ZM149.244 57.216L148.328 56.8137L148.323 56.8254L149.244 57.216ZM156.552 50.34L156.192 49.407L156.552 50.34ZM167.496 50.34L167.132 51.2713L167.136 51.273L167.496 50.34ZM171.852 53.076L171.159 53.7971L171.166 53.8038L171.852 53.076ZM174.768 57.216L173.852 57.6183L173.855 57.6234L174.768 57.216ZM174.768 67.62L175.684 68.0223L175.686 68.0172L174.768 67.62ZM171.852 71.76L172.537 72.4882L172.538 72.4878L171.852 71.76ZM167.496 74.46L167.136 73.527L167.132 73.5288L167.496 74.46ZM165.12 69.888L164.749 68.9595L164.74 68.9628L165.12 69.888ZM167.64 68.232L166.933 67.5249L167.64 68.232ZM169.296 65.676L168.372 65.293L168.368 65.3027L168.364 65.3125L169.296 65.676ZM169.296 59.124L168.364 59.4875L168.368 59.4973L168.372 59.507L169.296 59.124ZM167.64 56.568L166.921 57.263L166.927 57.2691L166.933 57.2751L167.64 56.568ZM165.156 54.912L164.785 55.8405L165.156 54.912ZM158.892 54.912L158.521 53.9835L158.512 53.9868L158.892 54.912ZM156.408 56.568L157.115 57.2751L156.408 56.568ZM154.716 59.124L153.792 58.741L153.788 58.7507L153.784 58.7605L154.716 59.124ZM154.716 65.676L153.782 66.032L153.787 66.0456L153.792 66.059L154.716 65.676ZM156.372 68.232L155.653 68.927L155.659 68.9331L155.665 68.9391L156.372 68.232ZM158.892 69.888L158.521 70.8165L158.892 69.888ZM162.06 74.432C160.178 74.432 158.452 74.1263 156.871 73.5253L156.161 75.3947C157.988 76.0897 159.958 76.432 162.06 76.432V74.432ZM156.876 73.527C155.311 72.9233 153.959 72.0789 152.81 70.9962L151.438 72.4518C152.785 73.7211 154.361 74.7007 156.156 75.393L156.876 73.527ZM152.817 71.0029C151.689 69.9193 150.804 68.6483 150.16 67.1817L148.329 67.9863C149.076 69.6877 150.111 71.1767 151.431 72.4451L152.817 71.0029ZM150.165 67.1935C149.549 65.7435 149.236 64.1497 149.236 62.4H147.236C147.236 64.3943 147.595 66.2565 148.323 67.9745L150.165 67.1935ZM149.236 62.4C149.236 60.6503 149.549 59.0565 150.165 57.6066L148.323 56.8254C147.595 58.5435 147.236 60.4057 147.236 62.4H149.236ZM150.16 57.6183C150.802 56.156 151.696 54.8869 152.846 53.8038L151.474 52.3482C150.128 53.6171 149.078 55.108 148.329 56.8137L150.16 57.6183ZM152.846 53.8038C153.995 52.7211 155.347 51.8767 156.912 51.273L156.192 49.407C154.397 50.0993 152.821 51.0789 151.474 52.3482L152.846 53.8038ZM156.912 51.273C158.467 50.6732 160.168 50.368 162.024 50.368V48.368C159.944 48.368 157.997 48.7108 156.192 49.407L156.912 51.273ZM162.024 50.368C163.906 50.368 165.605 50.6738 167.132 51.2712L167.86 49.4088C166.075 48.7102 164.126 48.368 162.024 48.368V50.368ZM167.136 51.273C168.7 51.8761 170.037 52.7187 171.159 53.7971L172.545 52.3549C171.219 51.0813 169.652 50.0999 167.856 49.407L167.136 51.273ZM171.166 53.8038C172.316 54.8869 173.21 56.156 173.853 57.6183L175.684 56.8137C174.934 55.108 173.884 53.6171 172.538 52.3482L171.166 53.8038ZM173.855 57.6234C174.488 59.0418 174.812 60.6289 174.812 62.4H176.812C176.812 60.3791 176.44 58.5102 175.681 56.8086L173.855 57.6234ZM174.812 62.4C174.812 64.1448 174.488 65.7486 173.85 67.2228L175.686 68.0172C176.44 66.2754 176.812 64.3992 176.812 62.4H174.812ZM173.853 67.2177C173.21 68.68 172.316 69.9491 171.166 71.0322L172.538 72.4878C173.884 71.2189 174.934 69.728 175.684 68.0223L173.853 67.2177ZM171.167 71.0318C170.043 72.089 168.704 72.9222 167.136 73.527L167.856 75.393C169.648 74.7018 171.213 73.7351 172.537 72.4882L171.167 71.0318ZM167.132 73.5288C165.604 74.1267 163.917 74.432 162.06 74.432V76.432C164.139 76.432 166.077 76.0893 167.86 75.3912L167.132 73.5288ZM162.024 71.464C163.267 71.464 164.43 71.252 165.5 70.8132L164.74 68.9628C163.938 69.292 163.037 69.464 162.024 69.464V71.464ZM165.491 70.8165C166.575 70.383 167.53 69.7564 168.347 68.9391L166.933 67.5249C166.31 68.1476 165.585 68.625 164.749 68.9595L165.491 70.8165ZM168.347 68.9391C169.169 68.1177 169.795 67.1474 170.228 66.0395L168.364 65.3125C168.029 66.1726 167.551 66.9063 166.933 67.5249L168.347 68.9391ZM170.22 66.059C170.684 64.9392 170.908 63.7149 170.908 62.4H168.908C168.908 63.4851 168.724 64.4448 168.372 65.293L170.22 66.059ZM170.908 62.4C170.908 61.0851 170.684 59.8608 170.22 58.741L168.372 59.507C168.724 60.3552 168.908 61.3149 168.908 62.4H170.908ZM170.228 58.7605C169.795 57.6526 169.169 56.6823 168.347 55.8609L166.933 57.2751C167.551 57.8937 168.029 58.6274 168.364 59.4875L170.228 58.7605ZM168.359 55.873C167.562 55.0482 166.614 54.4182 165.527 53.9835L164.785 55.8405C165.618 56.1738 166.326 56.6478 166.921 57.263L168.359 55.873ZM165.527 53.9835C164.439 53.5481 163.268 53.336 162.024 53.336V55.336C163.036 55.336 163.953 55.5079 164.785 55.8405L165.527 53.9835ZM162.024 53.336C160.78 53.336 159.609 53.5481 158.521 53.9835L159.263 55.8405C160.095 55.5079 161.012 55.336 162.024 55.336V53.336ZM158.512 53.9868C157.453 54.4214 156.514 55.0479 155.701 55.8609L157.115 57.2751C157.742 56.6481 158.459 56.1706 159.272 55.8372L158.512 53.9868ZM155.701 55.8609C154.884 56.6779 154.248 57.6415 153.792 58.741L155.64 59.507C156 58.6385 156.492 57.8981 157.115 57.2751L155.701 55.8609ZM153.784 58.7605C153.35 59.875 153.14 61.0924 153.14 62.4H155.14C155.14 61.3076 155.315 60.341 155.648 59.4875L153.784 58.7605ZM153.14 62.4C153.14 63.6867 153.35 64.9005 153.782 66.032L155.651 65.32C155.314 64.4355 155.14 63.4653 155.14 62.4H153.14ZM153.792 66.059C154.245 67.1515 154.864 68.1112 155.653 68.927L157.091 67.537C156.488 66.9128 156.003 66.1685 155.64 65.293L153.792 66.059ZM155.665 68.9391C156.482 69.7564 157.437 70.383 158.521 70.8165L159.263 68.9595C158.427 68.625 157.702 68.1476 157.079 67.5249L155.665 68.9391ZM158.521 70.8165C159.609 71.2519 160.78 71.464 162.024 71.464V69.464C161.012 69.464 160.095 69.2921 159.263 68.9595L158.521 70.8165Z" fill="white" mask="url(#path-1-outside-1_1_586)"/>
</svg>
