<svg width="248" height="57" viewBox="0 0 248 57" fill="none" xmlns="http://www.w3.org/2000/svg">
<mask id="path-1-outside-1_1_553" maskUnits="userSpaceOnUse" x="0" y="0" width="248" height="57" fill="black">
<rect fill="white" width="248" height="57"/>
<path d="M7.024 19L1.528 2.2H5.56L10.336 17.08H8.32L13.312 2.2H16.912L21.712 17.08H19.768L24.664 2.2H28.384L22.888 19H18.712L14.464 5.944H15.568L11.2 19H7.024ZM34.1305 8.968H42.2185V11.992H34.1305V8.968ZM34.4185 15.88H43.5625V19H30.5545V2.2H43.2505V5.32H34.4185V15.88Z"/>
<path d="M61.4929 19.288C60.1969 19.288 58.9889 19.08 57.8689 18.664C56.7649 18.232 55.8049 17.624 54.9889 16.84C54.1729 16.056 53.5329 15.136 53.0689 14.08C52.6209 13.024 52.3969 11.864 52.3969 10.6C52.3969 9.336 52.6209 8.176 53.0689 7.12C53.5329 6.064 54.1729 5.144 54.9889 4.36C55.8209 3.576 56.7889 2.976 57.8929 2.56C58.9969 2.128 60.2049 1.912 61.5169 1.912C62.9729 1.912 64.2849 2.168 65.4529 2.68C66.6369 3.176 67.6289 3.912 68.4289 4.888L65.9329 7.192C65.3569 6.536 64.7169 6.048 64.0129 5.728C63.3089 5.392 62.5409 5.224 61.7089 5.224C60.9249 5.224 60.2049 5.352 59.5489 5.608C58.8929 5.864 58.3249 6.232 57.8449 6.712C57.3649 7.192 56.9889 7.76 56.7169 8.416C56.4609 9.072 56.3329 9.8 56.3329 10.6C56.3329 11.4 56.4609 12.128 56.7169 12.784C56.9889 13.44 57.3649 14.008 57.8449 14.488C58.3249 14.968 58.8929 15.336 59.5489 15.592C60.2049 15.848 60.9249 15.976 61.7089 15.976C62.5409 15.976 63.3089 15.816 64.0129 15.496C64.7169 15.16 65.3569 14.656 65.9329 13.984L68.4289 16.288C67.6289 17.264 66.6369 18.008 65.4529 18.52C64.2849 19.032 62.9649 19.288 61.4929 19.288ZM68.5418 19L76.0298 2.2H79.8698L87.3818 19H83.3018L77.1578 4.168H78.6938L72.5258 19H68.5418ZM72.2858 15.4L73.3178 12.448H81.9578L83.0138 15.4H72.2858ZM89.1248 19V2.2H92.3408L102.253 14.296H100.693V2.2H104.533V19H101.341L91.4048 6.904H92.9648V19H89.1248ZM123.465 19.288C122.137 19.288 120.905 19.072 119.769 18.64C118.649 18.208 117.673 17.6 116.84 16.816C116.025 16.032 115.385 15.112 114.921 14.056C114.473 13 114.249 11.848 114.249 10.6C114.249 9.352 114.473 8.2 114.921 7.144C115.385 6.088 116.033 5.168 116.865 4.384C117.697 3.6 118.673 2.992 119.793 2.56C120.913 2.128 122.129 1.912 123.441 1.912C124.769 1.912 125.984 2.128 127.089 2.56C128.209 2.992 129.177 3.6 129.993 4.384C130.825 5.168 131.473 6.088 131.937 7.144C132.401 8.184 132.633 9.336 132.633 10.6C132.633 11.848 132.401 13.008 131.937 14.08C131.473 15.136 130.825 16.056 129.993 16.84C129.177 17.608 128.209 18.208 127.089 18.64C125.984 19.072 124.776 19.288 123.465 19.288ZM123.441 15.976C124.193 15.976 124.881 15.848 125.505 15.592C126.145 15.336 126.705 14.968 127.185 14.488C127.665 14.008 128.033 13.44 128.289 12.784C128.561 12.128 128.697 11.4 128.697 10.6C128.697 9.8 128.561 9.072 128.289 8.416C128.033 7.76 127.665 7.192 127.185 6.712C126.721 6.232 126.169 5.864 125.529 5.608C124.889 5.352 124.193 5.224 123.441 5.224C122.689 5.224 121.993 5.352 121.353 5.608C120.729 5.864 120.177 6.232 119.697 6.712C119.217 7.192 118.841 7.76 118.569 8.416C118.313 9.072 118.185 9.8 118.185 10.6C118.185 11.384 118.313 12.112 118.569 12.784C118.841 13.44 119.209 14.008 119.673 14.488C120.153 14.968 120.713 15.336 121.353 15.592C121.993 15.848 122.689 15.976 123.441 15.976ZM135.555 19V2.2H142.827C144.331 2.2 145.627 2.448 146.715 2.944C147.803 3.424 148.643 4.12 149.235 5.032C149.827 5.944 150.123 7.032 150.123 8.296C150.123 9.544 149.827 10.624 149.235 11.536C148.643 12.432 147.803 13.12 146.715 13.6C145.627 14.08 144.331 14.32 142.827 14.32H137.715L139.443 12.616V19H135.555ZM146.234 19L142.035 12.904H146.187L150.435 19H146.234ZM139.443 13.048L137.715 11.224H142.611C143.811 11.224 144.707 10.968 145.299 10.456C145.891 9.928 146.187 9.208 146.187 8.296C146.187 7.368 145.891 6.648 145.299 6.136C144.707 5.624 143.811 5.368 142.611 5.368H137.715L139.443 3.52V13.048ZM161.315 19.288C159.987 19.288 158.763 19.08 157.643 18.664C156.539 18.232 155.571 17.624 154.739 16.84C153.923 16.056 153.283 15.136 152.819 14.08C152.371 13.024 152.147 11.864 152.147 10.6C152.147 9.336 152.371 8.176 152.819 7.12C153.283 6.064 153.931 5.144 154.763 4.36C155.595 3.576 156.571 2.976 157.691 2.56C158.811 2.128 160.043 1.912 161.387 1.912C162.875 1.912 164.211 2.16 165.395 2.656C166.595 3.152 167.603 3.872 168.419 4.816L165.923 7.12C165.315 6.48 164.651 6.008 163.931 5.704C163.211 5.384 162.427 5.224 161.579 5.224C160.763 5.224 160.019 5.352 159.347 5.608C158.675 5.864 158.091 6.232 157.595 6.712C157.115 7.192 156.739 7.76 156.467 8.416C156.211 9.072 156.083 9.8 156.083 10.6C156.083 11.384 156.211 12.104 156.467 12.76C156.739 13.416 157.115 13.992 157.595 14.488C158.091 14.968 158.667 15.336 159.323 15.592C159.995 15.848 160.731 15.976 161.531 15.976C162.299 15.976 163.043 15.856 163.763 15.616C164.499 15.36 165.211 14.936 165.899 14.344L168.107 17.152C167.195 17.84 166.131 18.368 164.915 18.736C163.715 19.104 162.515 19.288 161.315 19.288ZM164.555 16.648V10.336H168.107V17.152L164.555 16.648ZM169.511 19L176.999 2.2H180.839L188.351 19H184.271L178.127 4.168H179.663L173.495 19H169.511ZM173.255 15.4L174.287 12.448H182.927L183.983 15.4H173.255ZM190.094 19V2.2H193.31L203.222 14.296H201.662V2.2H205.502V19H202.31L192.374 6.904H193.934V19H190.094ZM209.476 19V2.2H213.364V19H209.476ZM216.271 19V16.48L226.663 3.952L227.143 5.368H216.463V2.2H230.599V4.72L220.231 17.248L219.751 15.832H230.959V19H216.271ZM237.029 8.968H245.117V11.992H237.029V8.968ZM237.317 15.88H246.461V19H233.453V2.2H246.149V5.32H237.317V15.88ZM6.568 44.968H14.656V47.992H6.568V44.968ZM6.856 51.88H16V55H2.992V38.2H15.688V41.32H6.856V51.88ZM23.8992 55L16.6512 38.2H20.8512L27.1872 53.08H24.7152L31.1472 38.2H35.0112L27.7392 55H23.8992ZM39.9899 44.968H48.0779V47.992H39.9899V44.968ZM40.2779 51.88H49.4219V55H36.4139V38.2H49.1099V41.32H40.2779V51.88ZM52.5154 55V38.2H59.7874C61.2914 38.2 62.5874 38.448 63.6754 38.944C64.7634 39.424 65.6034 40.12 66.1954 41.032C66.7874 41.944 67.0834 43.032 67.0834 44.296C67.0834 45.544 66.7874 46.624 66.1954 47.536C65.6034 48.432 64.7634 49.12 63.6754 49.6C62.5874 50.08 61.2914 50.32 59.7874 50.32H54.6754L56.4034 48.616V55H52.5154ZM63.1954 55L58.9954 48.904H63.1474L67.3954 55H63.1954ZM56.4034 49.048L54.6754 47.224H59.5714C60.7714 47.224 61.6674 46.968 62.2594 46.456C62.8514 45.928 63.1474 45.208 63.1474 44.296C63.1474 43.368 62.8514 42.648 62.2594 42.136C61.6674 41.624 60.7714 41.368 59.5714 41.368H54.6754L56.4034 39.52V49.048ZM74.1055 55V48.136L74.9935 50.488L67.6015 38.2H71.7295L77.3935 47.632H75.0175L80.7055 38.2H84.5215L77.1295 50.488L77.9935 48.136V55H74.1055ZM89.3001 55V41.368H83.9241V38.2H98.5641V41.368H93.1881V55H89.3001ZM112.176 38.2H116.064V55H112.176V38.2ZM104.544 55H100.656V38.2H104.544V55ZM112.464 48.112H104.256V44.824H112.464V48.112ZM120.039 55V38.2H123.927V55H120.039ZM127.914 55V38.2H131.13L141.042 50.296H139.482V38.2H143.322V55H140.13L130.194 42.904H131.754V55H127.914ZM155.409 55.288C154.081 55.288 152.857 55.08 151.737 54.664C150.633 54.232 149.665 53.624 148.833 52.84C148.017 52.056 147.377 51.136 146.913 50.08C146.465 49.024 146.241 47.864 146.241 46.6C146.241 45.336 146.465 44.176 146.913 43.12C147.377 42.064 148.025 41.144 148.857 40.36C149.689 39.576 150.665 38.976 151.785 38.56C152.905 38.128 154.137 37.912 155.481 37.912C156.969 37.912 158.305 38.16 159.489 38.656C160.689 39.152 161.697 39.872 162.513 40.816L160.017 43.12C159.409 42.48 158.745 42.008 158.025 41.704C157.305 41.384 156.521 41.224 155.673 41.224C154.857 41.224 154.113 41.352 153.441 41.608C152.769 41.864 152.185 42.232 151.689 42.712C151.209 43.192 150.833 43.76 150.561 44.416C150.305 45.072 150.177 45.8 150.177 46.6C150.177 47.384 150.305 48.104 150.561 48.76C150.833 49.416 151.209 49.992 151.689 50.488C152.185 50.968 152.761 51.336 153.417 51.592C154.089 51.848 154.825 51.976 155.625 51.976C156.393 51.976 157.137 51.856 157.857 51.616C158.593 51.36 159.305 50.936 159.993 50.344L162.201 53.152C161.289 53.84 160.225 54.368 159.009 54.736C157.809 55.104 156.609 55.288 155.409 55.288ZM158.649 52.648V46.336H162.201V53.152L158.649 52.648Z"/>
</mask>
<path d="M61.4929 19.288C60.1969 19.288 58.9889 19.08 57.8689 18.664C56.7649 18.232 55.8049 17.624 54.9889 16.84C54.1729 16.056 53.5329 15.136 53.0689 14.08C52.6209 13.024 52.3969 11.864 52.3969 10.6C52.3969 9.336 52.6209 8.176 53.0689 7.12C53.5329 6.064 54.1729 5.144 54.9889 4.36C55.8209 3.576 56.7889 2.976 57.8929 2.56C58.9969 2.128 60.2049 1.912 61.5169 1.912C62.9729 1.912 64.2849 2.168 65.4529 2.68C66.6369 3.176 67.6289 3.912 68.4289 4.888L65.9329 7.192C65.3569 6.536 64.7169 6.048 64.0129 5.728C63.3089 5.392 62.5409 5.224 61.7089 5.224C60.9249 5.224 60.2049 5.352 59.5489 5.608C58.8929 5.864 58.3249 6.232 57.8449 6.712C57.3649 7.192 56.9889 7.76 56.7169 8.416C56.4609 9.072 56.3329 9.8 56.3329 10.6C56.3329 11.4 56.4609 12.128 56.7169 12.784C56.9889 13.44 57.3649 14.008 57.8449 14.488C58.3249 14.968 58.8929 15.336 59.5489 15.592C60.2049 15.848 60.9249 15.976 61.7089 15.976C62.5409 15.976 63.3089 15.816 64.0129 15.496C64.7169 15.16 65.3569 14.656 65.9329 13.984L68.4289 16.288C67.6289 17.264 66.6369 18.008 65.4529 18.52C64.2849 19.032 62.9649 19.288 61.4929 19.288ZM68.5418 19L76.0298 2.2H79.8698L87.3818 19H83.3018L77.1578 4.168H78.6938L72.5258 19H68.5418ZM72.2858 15.4L73.3178 12.448H81.9578L83.0138 15.4H72.2858ZM89.1248 19V2.2H92.3408L102.253 14.296H100.693V2.2H104.533V19H101.341L91.4048 6.904H92.9648V19H89.1248ZM123.465 19.288C122.137 19.288 120.905 19.072 119.769 18.64C118.649 18.208 117.673 17.6 116.84 16.816C116.025 16.032 115.385 15.112 114.921 14.056C114.473 13 114.249 11.848 114.249 10.6C114.249 9.352 114.473 8.2 114.921 7.144C115.385 6.088 116.033 5.168 116.865 4.384C117.697 3.6 118.673 2.992 119.793 2.56C120.913 2.128 122.129 1.912 123.441 1.912C124.769 1.912 125.984 2.128 127.089 2.56C128.209 2.992 129.177 3.6 129.993 4.384C130.825 5.168 131.473 6.088 131.937 7.144C132.401 8.184 132.633 9.336 132.633 10.6C132.633 11.848 132.401 13.008 131.937 14.08C131.473 15.136 130.825 16.056 129.993 16.84C129.177 17.608 128.209 18.208 127.089 18.64C125.984 19.072 124.776 19.288 123.465 19.288ZM123.441 15.976C124.193 15.976 124.881 15.848 125.505 15.592C126.145 15.336 126.705 14.968 127.185 14.488C127.665 14.008 128.033 13.44 128.289 12.784C128.561 12.128 128.697 11.4 128.697 10.6C128.697 9.8 128.561 9.072 128.289 8.416C128.033 7.76 127.665 7.192 127.185 6.712C126.721 6.232 126.169 5.864 125.529 5.608C124.889 5.352 124.193 5.224 123.441 5.224C122.689 5.224 121.993 5.352 121.353 5.608C120.729 5.864 120.177 6.232 119.697 6.712C119.217 7.192 118.841 7.76 118.569 8.416C118.313 9.072 118.185 9.8 118.185 10.6C118.185 11.384 118.313 12.112 118.569 12.784C118.841 13.44 119.209 14.008 119.673 14.488C120.153 14.968 120.713 15.336 121.353 15.592C121.993 15.848 122.689 15.976 123.441 15.976ZM135.555 19V2.2H142.827C144.331 2.2 145.627 2.448 146.715 2.944C147.803 3.424 148.643 4.12 149.235 5.032C149.827 5.944 150.123 7.032 150.123 8.296C150.123 9.544 149.827 10.624 149.235 11.536C148.643 12.432 147.803 13.12 146.715 13.6C145.627 14.08 144.331 14.32 142.827 14.32H137.715L139.443 12.616V19H135.555ZM146.234 19L142.035 12.904H146.187L150.435 19H146.234ZM139.443 13.048L137.715 11.224H142.611C143.811 11.224 144.707 10.968 145.299 10.456C145.891 9.928 146.187 9.208 146.187 8.296C146.187 7.368 145.891 6.648 145.299 6.136C144.707 5.624 143.811 5.368 142.611 5.368H137.715L139.443 3.52V13.048ZM161.315 19.288C159.987 19.288 158.763 19.08 157.643 18.664C156.539 18.232 155.571 17.624 154.739 16.84C153.923 16.056 153.283 15.136 152.819 14.08C152.371 13.024 152.147 11.864 152.147 10.6C152.147 9.336 152.371 8.176 152.819 7.12C153.283 6.064 153.931 5.144 154.763 4.36C155.595 3.576 156.571 2.976 157.691 2.56C158.811 2.128 160.043 1.912 161.387 1.912C162.875 1.912 164.211 2.16 165.395 2.656C166.595 3.152 167.603 3.872 168.419 4.816L165.923 7.12C165.315 6.48 164.651 6.008 163.931 5.704C163.211 5.384 162.427 5.224 161.579 5.224C160.763 5.224 160.019 5.352 159.347 5.608C158.675 5.864 158.091 6.232 157.595 6.712C157.115 7.192 156.739 7.76 156.467 8.416C156.211 9.072 156.083 9.8 156.083 10.6C156.083 11.384 156.211 12.104 156.467 12.76C156.739 13.416 157.115 13.992 157.595 14.488C158.091 14.968 158.667 15.336 159.323 15.592C159.995 15.848 160.731 15.976 161.531 15.976C162.299 15.976 163.043 15.856 163.763 15.616C164.499 15.36 165.211 14.936 165.899 14.344L168.107 17.152C167.195 17.84 166.131 18.368 164.915 18.736C163.715 19.104 162.515 19.288 161.315 19.288ZM164.555 16.648V10.336H168.107V17.152L164.555 16.648ZM169.511 19L176.999 2.2H180.839L188.351 19H184.271L178.127 4.168H179.663L173.495 19H169.511ZM173.255 15.4L174.287 12.448H182.927L183.983 15.4H173.255ZM190.094 19V2.2H193.31L203.222 14.296H201.662V2.2H205.502V19H202.31L192.374 6.904H193.934V19H190.094ZM209.476 19V2.2H213.364V19H209.476ZM216.271 19V16.48L226.663 3.952L227.143 5.368H216.463V2.2H230.599V4.72L220.231 17.248L219.751 15.832H230.959V19H216.271ZM237.029 8.968H245.117V11.992H237.029V8.968ZM237.317 15.88H246.461V19H233.453V2.2H246.149V5.32H237.317V15.88ZM6.568 44.968H14.656V47.992H6.568V44.968ZM6.856 51.88H16V55H2.992V38.2H15.688V41.32H6.856V51.88ZM23.8992 55L16.6512 38.2H20.8512L27.1872 53.08H24.7152L31.1472 38.2H35.0112L27.7392 55H23.8992ZM39.9899 44.968H48.0779V47.992H39.9899V44.968ZM40.2779 51.88H49.4219V55H36.4139V38.2H49.1099V41.32H40.2779V51.88ZM52.5154 55V38.2H59.7874C61.2914 38.2 62.5874 38.448 63.6754 38.944C64.7634 39.424 65.6034 40.12 66.1954 41.032C66.7874 41.944 67.0834 43.032 67.0834 44.296C67.0834 45.544 66.7874 46.624 66.1954 47.536C65.6034 48.432 64.7634 49.12 63.6754 49.6C62.5874 50.08 61.2914 50.32 59.7874 50.32H54.6754L56.4034 48.616V55H52.5154ZM63.1954 55L58.9954 48.904H63.1474L67.3954 55H63.1954ZM56.4034 49.048L54.6754 47.224H59.5714C60.7714 47.224 61.6674 46.968 62.2594 46.456C62.8514 45.928 63.1474 45.208 63.1474 44.296C63.1474 43.368 62.8514 42.648 62.2594 42.136C61.6674 41.624 60.7714 41.368 59.5714 41.368H54.6754L56.4034 39.52V49.048ZM74.1055 55V48.136L74.9935 50.488L67.6015 38.2H71.7295L77.3935 47.632H75.0175L80.7055 38.2H84.5215L77.1295 50.488L77.9935 48.136V55H74.1055ZM89.3001 55V41.368H83.9241V38.2H98.5641V41.368H93.1881V55H89.3001ZM112.176 38.2H116.064V55H112.176V38.2ZM104.544 55H100.656V38.2H104.544V55ZM112.464 48.112H104.256V44.824H112.464V48.112ZM120.039 55V38.2H123.927V55H120.039ZM127.914 55V38.2H131.13L141.042 50.296H139.482V38.2H143.322V55H140.13L130.194 42.904H131.754V55H127.914ZM155.409 55.288C154.081 55.288 152.857 55.08 151.737 54.664C150.633 54.232 149.665 53.624 148.833 52.84C148.017 52.056 147.377 51.136 146.913 50.08C146.465 49.024 146.241 47.864 146.241 46.6C146.241 45.336 146.465 44.176 146.913 43.12C147.377 42.064 148.025 41.144 148.857 40.36C149.689 39.576 150.665 38.976 151.785 38.56C152.905 38.128 154.137 37.912 155.481 37.912C156.969 37.912 158.305 38.16 159.489 38.656C160.689 39.152 161.697 39.872 162.513 40.816L160.017 43.12C159.409 42.48 158.745 42.008 158.025 41.704C157.305 41.384 156.521 41.224 155.673 41.224C154.857 41.224 154.113 41.352 153.441 41.608C152.769 41.864 152.185 42.232 151.689 42.712C151.209 43.192 150.833 43.76 150.561 44.416C150.305 45.072 150.177 45.8 150.177 46.6C150.177 47.384 150.305 48.104 150.561 48.76C150.833 49.416 151.209 49.992 151.689 50.488C152.185 50.968 152.761 51.336 153.417 51.592C154.089 51.848 154.825 51.976 155.625 51.976C156.393 51.976 157.137 51.856 157.857 51.616C158.593 51.36 159.305 50.936 159.993 50.344L162.201 53.152C161.289 53.84 160.225 54.368 159.009 54.736C157.809 55.104 156.609 55.288 155.409 55.288ZM158.649 52.648V46.336H162.201V53.152L158.649 52.648Z" fill="#333333"/>
<path d="M7.024 19L6.07357 19.3109L6.29899 20H7.024V19ZM1.528 2.2V1.2H0.148706L0.577566 2.51093L1.528 2.2ZM5.56 2.2L6.51216 1.89439L6.28928 1.2H5.56V2.2ZM10.336 17.08V18.08H11.7072L11.2882 16.7744L10.336 17.08ZM8.32 17.08L7.37193 16.7619L6.92974 18.08H8.32V17.08ZM13.312 2.2V1.2H12.5927L12.3639 1.88194L13.312 2.2ZM16.912 2.2L17.8637 1.893L17.6402 1.2H16.912V2.2ZM21.712 17.08V18.08H23.0853L22.6637 16.773L21.712 17.08ZM19.768 17.08L18.8181 16.7675L18.3862 18.08H19.768V17.08ZM24.664 2.2V1.2H23.9403L23.7141 1.88745L24.664 2.2ZM28.384 2.2L29.3344 2.51093L29.7633 1.2H28.384V2.2ZM22.888 19V20H23.613L23.8384 19.3109L22.888 19ZM18.712 19L17.7611 19.3094L17.9858 20H18.712V19ZM14.464 5.944V4.944H13.087L13.5131 6.2534L14.464 5.944ZM15.568 5.944L16.5163 6.26127L16.957 4.944H15.568V5.944ZM11.2 19V20H11.9199L12.1483 19.3173L11.2 19ZM7.97443 18.6891L2.47843 1.88907L0.577566 2.51093L6.07357 19.3109L7.97443 18.6891ZM1.528 3.2H5.56V1.2H1.528V3.2ZM4.60784 2.50561L9.38384 17.3856L11.2882 16.7744L6.51216 1.89439L4.60784 2.50561ZM10.336 16.08H8.32V18.08H10.336V16.08ZM9.26807 17.3981L14.2601 2.51806L12.3639 1.88194L7.37193 16.7619L9.26807 17.3981ZM13.312 3.2H16.912V1.2H13.312V3.2ZM15.9603 2.507L20.7603 17.387L22.6637 16.773L17.8637 1.893L15.9603 2.507ZM21.712 16.08H19.768V18.08H21.712V16.08ZM20.7179 17.3925L25.6139 2.51255L23.7141 1.88745L18.8181 16.7675L20.7179 17.3925ZM24.664 3.2H28.384V1.2H24.664V3.2ZM27.4336 1.88907L21.9376 18.6891L23.8384 19.3109L29.3344 2.51093L27.4336 1.88907ZM22.888 18H18.712V20H22.888V18ZM19.6629 18.6906L15.4149 5.6346L13.5131 6.2534L17.7611 19.3094L19.6629 18.6906ZM14.464 6.944H15.568V4.944H14.464V6.944ZM14.6197 5.62673L10.2517 18.6827L12.1483 19.3173L16.5163 6.26127L14.6197 5.62673ZM11.2 18H7.024V20H11.2V18ZM34.1305 8.968V7.968H33.1305V8.968H34.1305ZM42.2185 8.968H43.2185V7.968H42.2185V8.968ZM42.2185 11.992V12.992H43.2185V11.992H42.2185ZM34.1305 11.992H33.1305V12.992H34.1305V11.992ZM34.4185 15.88H33.4185V16.88H34.4185V15.88ZM43.5625 15.88H44.5625V14.88H43.5625V15.88ZM43.5625 19V20H44.5625V19H43.5625ZM30.5545 19H29.5545V20H30.5545V19ZM30.5545 2.2V1.2H29.5545V2.2H30.5545ZM43.2505 2.2H44.2505V1.2H43.2505V2.2ZM43.2505 5.32V6.32H44.2505V5.32H43.2505ZM34.4185 5.32V4.32H33.4185V5.32H34.4185ZM34.1305 9.968H42.2185V7.968H34.1305V9.968ZM41.2185 8.968V11.992H43.2185V8.968H41.2185ZM42.2185 10.992H34.1305V12.992H42.2185V10.992ZM35.1305 11.992V8.968H33.1305V11.992H35.1305ZM34.4185 16.88H43.5625V14.88H34.4185V16.88ZM42.5625 15.88V19H44.5625V15.88H42.5625ZM43.5625 18H30.5545V20H43.5625V18ZM31.5545 19V2.2H29.5545V19H31.5545ZM30.5545 3.2H43.2505V1.2H30.5545V3.2ZM42.2505 2.2V5.32H44.2505V2.2H42.2505ZM43.2505 4.32H34.4185V6.32H43.2505V4.32ZM33.4185 5.32V15.88H35.4185V5.32H33.4185ZM57.8689 18.664L57.5045 19.5952L57.5126 19.5984L57.5208 19.6014L57.8689 18.664ZM54.9889 16.84L54.2961 17.5611L54.9889 16.84ZM53.0689 14.08L52.1483 14.4706L52.1534 14.4823L53.0689 14.08ZM53.0689 7.12L52.1533 6.71769L52.1484 6.72945L53.0689 7.12ZM54.9889 4.36L54.3031 3.63218L54.2961 3.6389L54.9889 4.36ZM57.8929 2.56L58.2456 3.49584L58.2573 3.49124L57.8929 2.56ZM65.4529 2.68L65.0515 3.59587L65.059 3.59916L65.0666 3.60234L65.4529 2.68ZM68.4289 4.888L69.1072 5.6228L69.8 4.98328L69.2023 4.25407L68.4289 4.888ZM65.9329 7.192L65.1815 7.8518L65.8579 8.62216L66.6112 7.9268L65.9329 7.192ZM64.0129 5.728L63.5822 6.63048L63.5906 6.6345L63.5991 6.63837L64.0129 5.728ZM57.8449 6.712L58.552 7.41911V7.41911L57.8449 6.712ZM56.7169 8.416L55.7932 8.03298L55.7892 8.04268L55.7854 8.05246L56.7169 8.416ZM56.7169 12.784L55.7854 13.1475L55.7892 13.1573L55.7932 13.167L56.7169 12.784ZM57.8449 14.488L57.1378 15.1951H57.1378L57.8449 14.488ZM64.0129 15.496L64.4267 16.4064L64.4352 16.4025L64.4437 16.3985L64.0129 15.496ZM65.9329 13.984L66.6112 13.2492L65.8489 12.5455L65.1737 13.3332L65.9329 13.984ZM68.4289 16.288L69.2023 16.9219L69.8 16.1927L69.1072 15.5532L68.4289 16.288ZM65.4529 18.52L65.056 17.6021L65.0515 17.6041L65.4529 18.52ZM61.4929 18.288C60.3057 18.288 59.2166 18.0978 58.2171 17.7266L57.5208 19.6014C58.7613 20.0622 60.0882 20.288 61.4929 20.288V18.288ZM58.2333 17.7328C57.2456 17.3463 56.3987 16.8077 55.6818 16.1189L54.2961 17.5611C55.2112 18.4403 56.2843 19.1177 57.5045 19.5952L58.2333 17.7328ZM55.6818 16.1189C54.962 15.4274 54.3968 14.6163 53.9845 13.6777L52.1534 14.4823C52.669 15.6557 53.3839 16.6846 54.2961 17.5611L55.6818 16.1189ZM53.9895 13.6894C53.599 12.769 53.3969 11.7435 53.3969 10.6H51.3969C51.3969 11.9845 51.6428 13.279 52.1484 14.4705L53.9895 13.6894ZM53.3969 10.6C53.3969 9.45645 53.599 8.43096 53.9895 7.51055L52.1484 6.72945C51.6428 7.92103 51.3969 9.21555 51.3969 10.6H53.3969ZM53.9845 7.52227C54.3968 6.58373 54.962 5.77265 55.6818 5.0811L54.2961 3.6389C53.3839 4.51535 52.669 5.54427 52.1534 6.71773L53.9845 7.52227ZM55.6747 5.08779C56.4074 4.39738 57.2612 3.86667 58.2455 3.49577L57.5403 1.62423C56.3167 2.08532 55.2345 2.75462 54.3031 3.63221L55.6747 5.08779ZM58.2573 3.49124C59.2335 3.10928 60.3163 2.912 61.5169 2.912V0.912C60.0935 0.912 58.7604 1.14671 57.5285 1.62876L58.2573 3.49124ZM61.5169 2.912C62.8542 2.912 64.0268 3.14668 65.0515 3.59587L65.8544 1.76413C64.5431 1.18931 63.0916 0.912 61.5169 0.912V2.912ZM65.0666 3.60234C66.1026 4.03637 66.9609 4.67447 67.6555 5.52193L69.2023 4.25407C68.297 3.14953 67.1712 2.31563 65.8393 1.75766L65.0666 3.60234ZM67.7507 4.1532L65.2547 6.4572L66.6112 7.9268L69.1072 5.6228L67.7507 4.1532ZM66.6844 6.5322C66.0269 5.78344 65.2754 5.20341 64.4267 4.81763L63.5991 6.63837C64.1584 6.89259 64.6869 7.28856 65.1815 7.8518L66.6844 6.5322ZM64.4437 4.82552C63.5963 4.42109 62.6799 4.224 61.7089 4.224V6.224C62.402 6.224 63.0216 6.36291 63.5822 6.63048L64.4437 4.82552ZM61.7089 4.224C60.8146 4.224 59.9697 4.37036 59.1854 4.67642L59.9125 6.53958C60.4402 6.33364 61.0353 6.224 61.7089 6.224V4.224ZM59.1854 4.67642C58.4055 4.98077 57.7193 5.42345 57.1378 6.00489L58.552 7.41911C58.9306 7.04055 59.3804 6.74723 59.9125 6.53958L59.1854 4.67642ZM57.1378 6.00489C56.5608 6.58193 56.1131 7.26148 55.7932 8.03298L57.6407 8.79902C57.8648 8.25852 58.1691 7.80207 58.552 7.41911L57.1378 6.00489ZM55.7854 8.05246C55.4784 8.839 55.3329 9.6924 55.3329 10.6H57.3329C57.3329 9.9076 57.4435 9.305 57.6485 8.77954L55.7854 8.05246ZM55.3329 10.6C55.3329 11.5076 55.4784 12.361 55.7854 13.1475L57.6485 12.4205C57.4435 11.895 57.3329 11.2924 57.3329 10.6H55.3329ZM55.7932 13.167C56.1131 13.9385 56.5608 14.6181 57.1378 15.1951L58.552 13.7809C58.1691 13.3979 57.8648 12.9415 57.6407 12.401L55.7932 13.167ZM57.1378 15.1951C57.7193 15.7765 58.4055 16.2192 59.1854 16.5236L59.9125 14.6604C59.3804 14.4528 58.9306 14.1595 58.552 13.7809L57.1378 15.1951ZM59.1854 16.5236C59.9697 16.8296 60.8146 16.976 61.7089 16.976V14.976C61.0353 14.976 60.4402 14.8664 59.9125 14.6604L59.1854 16.5236ZM61.7089 16.976C62.6727 16.976 63.5831 16.7898 64.4267 16.4064L63.5991 14.5856C63.0347 14.8422 62.4092 14.976 61.7089 14.976V16.976ZM64.4437 16.3985C65.2894 15.9948 66.0376 15.3984 66.6922 14.6348L65.1737 13.3332C64.6762 13.9136 64.1445 14.3252 63.5822 14.5935L64.4437 16.3985ZM65.2547 14.7188L67.7507 17.0228L69.1072 15.5532L66.6112 13.2492L65.2547 14.7188ZM67.6555 15.6541C66.9589 16.504 66.0971 17.152 65.056 17.6021L65.8498 19.4379C67.1768 18.864 68.299 18.024 69.2023 16.9219L67.6555 15.6541ZM65.0515 17.6041C64.0281 18.0527 62.8479 18.288 61.4929 18.288V20.288C63.082 20.288 64.5418 20.0113 65.8544 19.4359L65.0515 17.6041ZM68.5418 19L67.6284 18.5929L67.0013 20H68.5418V19ZM76.0298 2.2V1.2H75.3807L75.1164 1.79289L76.0298 2.2ZM79.8698 2.2L80.7827 1.7918L80.5181 1.2H79.8698V2.2ZM87.3818 19V20H88.9244L88.2947 18.5918L87.3818 19ZM83.3018 19L82.3779 19.3827L82.6337 20H83.3018V19ZM77.1578 4.168V3.168H75.6612L76.2339 4.5507L77.1578 4.168ZM78.6938 4.168L79.6172 4.55198L80.1927 3.168H78.6938V4.168ZM72.5258 19V20H73.193L73.4492 19.384L72.5258 19ZM72.2858 15.4L71.3418 15.07L70.8769 16.4H72.2858V15.4ZM73.3178 12.448V11.448H72.6081L72.3738 12.118L73.3178 12.448ZM81.9578 12.448L82.8994 12.1112L82.6621 11.448H81.9578V12.448ZM83.0138 15.4V16.4H84.4336L83.9554 15.0632L83.0138 15.4ZM69.4552 19.4071L76.9432 2.60711L75.1164 1.79289L67.6284 18.5929L69.4552 19.4071ZM76.0298 3.2H79.8698V1.2H76.0298V3.2ZM78.9569 2.60819L86.4689 19.4082L88.2947 18.5918L80.7827 1.7918L78.9569 2.60819ZM87.3818 18H83.3018V20H87.3818V18ZM84.2257 18.6173L78.0817 3.7853L76.2339 4.5507L82.3779 19.3827L84.2257 18.6173ZM77.1578 5.168H78.6938V3.168H77.1578V5.168ZM77.7705 3.78402L71.6025 18.616L73.4492 19.384L79.6172 4.55198L77.7705 3.78402ZM72.5258 18H68.5418V20H72.5258V18ZM73.2298 15.73L74.2618 12.778L72.3738 12.118L71.3418 15.07L73.2298 15.73ZM73.3178 13.448H81.9578V11.448H73.3178V13.448ZM81.0162 12.7848L82.0722 15.7368L83.9554 15.0632L82.8994 12.1112L81.0162 12.7848ZM83.0138 14.4H72.2858V16.4H83.0138V14.4ZM89.1248 19H88.1248V20H89.1248V19ZM89.1248 2.2V1.2H88.1248V2.2H89.1248ZM92.3408 2.2L93.1143 1.56618L92.8142 1.2H92.3408V2.2ZM102.253 14.296V15.296H104.365L103.026 13.6622L102.253 14.296ZM100.693 14.296H99.6928V15.296H100.693V14.296ZM100.693 2.2V1.2H99.6928V2.2H100.693ZM104.533 2.2H105.533V1.2H104.533V2.2ZM104.533 19V20H105.533V19H104.533ZM101.341 19L100.568 19.6347L100.868 20H101.341V19ZM91.4048 6.904V5.904H89.2893L90.6321 7.53874L91.4048 6.904ZM92.9648 6.904H93.9648V5.904H92.9648V6.904ZM92.9648 19V20H93.9648V19H92.9648ZM90.1248 19V2.2H88.1248V19H90.1248ZM89.1248 3.2H92.3408V1.2H89.1248V3.2ZM91.5673 2.83382L101.479 14.9298L103.026 13.6622L93.1143 1.56618L91.5673 2.83382ZM102.253 13.296H100.693V15.296H102.253V13.296ZM101.693 14.296V2.2H99.6928V14.296H101.693ZM100.693 3.2H104.533V1.2H100.693V3.2ZM103.533 2.2V19H105.533V2.2H103.533ZM104.533 18H101.341V20H104.533V18ZM102.114 18.3653L92.1775 6.26926L90.6321 7.53874L100.568 19.6347L102.114 18.3653ZM91.4048 7.904H92.9648V5.904H91.4048V7.904ZM91.9648 6.904V19H93.9648V6.904H91.9648ZM92.9648 18H89.1248V20H92.9648V18ZM119.769 18.64L119.409 19.573L119.413 19.5747L119.769 18.64ZM116.84 16.816L116.148 17.5371L116.155 17.5438L116.84 16.816ZM114.921 14.056L114 14.4466L114.005 14.4583L114.921 14.056ZM114.921 7.144L114.005 6.74169L114 6.75345L114.921 7.144ZM119.793 2.56L119.433 1.627H119.433L119.793 2.56ZM127.089 2.56L126.724 3.49125L126.729 3.493L127.089 2.56ZM129.993 4.384L129.3 5.10514L129.307 5.11179L129.993 4.384ZM131.936 7.144L131.021 7.54628L131.023 7.55144L131.936 7.144ZM131.936 14.08L132.852 14.4823L132.854 14.4772L131.936 14.08ZM129.993 16.84L130.678 17.5682L130.678 17.5678L129.993 16.84ZM127.089 18.64L126.729 17.707L126.724 17.7088L127.089 18.64ZM125.505 15.592L125.133 14.6635L125.125 14.6668L125.505 15.592ZM127.185 14.488L126.477 13.7809L127.185 14.488ZM128.288 12.784L127.365 12.401L127.361 12.4107L127.357 12.4205L128.288 12.784ZM128.288 8.416L127.357 8.77954L127.361 8.78932L127.365 8.79902L128.288 8.416ZM127.185 6.712L126.466 7.40702L126.471 7.41311L126.477 7.41911L127.185 6.712ZM125.529 5.608L125.157 6.53648L125.529 5.608ZM121.353 5.608L120.981 4.67949L120.973 4.68283L121.353 5.608ZM119.697 6.712L120.404 7.41911V7.41911L119.697 6.712ZM118.568 8.416L117.645 8.03298L117.641 8.04268L117.637 8.05246L118.568 8.416ZM118.568 12.784L117.634 13.14L117.639 13.1536L117.645 13.167L118.568 12.784ZM119.673 14.488L118.954 15.183L118.959 15.1891L118.965 15.1951L119.673 14.488ZM121.353 15.592L120.981 16.5205L121.353 15.592ZM123.465 18.288C122.247 18.288 121.136 18.0903 120.124 17.7053L119.413 19.5747C120.673 20.0537 122.026 20.288 123.465 20.288V18.288ZM120.128 17.707C119.123 17.3193 118.259 16.7789 117.526 16.0882L116.155 17.5438C117.086 18.4211 118.174 19.0967 119.409 19.573L120.128 17.707ZM117.533 16.0949C116.814 15.4034 116.248 14.5923 115.836 13.6537L114.005 14.4583C114.521 15.6317 115.235 16.6606 116.148 17.5371L117.533 16.0949ZM115.841 13.6654C115.45 12.7435 115.248 11.7257 115.248 10.6H113.248C113.248 11.9703 113.495 13.2565 114 14.4466L115.841 13.6654ZM115.248 10.6C115.248 9.47429 115.45 8.45651 115.841 7.53455L114 6.75345C113.495 7.94349 113.248 9.22971 113.248 10.6H115.248ZM115.836 7.54627C116.247 6.61196 116.817 5.80295 117.55 5.11179L116.179 3.65621C115.248 4.53305 114.522 5.56404 114.005 6.74173L115.836 7.54627ZM117.55 5.11179C118.283 4.42108 119.147 3.88073 120.152 3.493L119.433 1.627C118.198 2.10326 117.11 2.77892 116.179 3.65621L117.55 5.11179ZM120.152 3.493C121.147 3.10923 122.24 2.912 123.44 2.912V0.912C122.017 0.912 120.678 1.14677 119.433 1.627L120.152 3.493ZM123.44 2.912C124.659 2.912 125.749 3.10982 126.724 3.49124L127.453 1.62876C126.22 1.14618 124.878 0.912 123.44 0.912V2.912ZM126.729 3.493C127.732 3.88014 128.585 4.41867 129.3 5.1051L130.685 3.6629C129.768 2.78133 128.685 2.10386 127.448 1.627L126.729 3.493ZM129.307 5.11179C130.04 5.80295 130.61 6.61195 131.021 7.54627L132.852 6.74173C132.335 5.56404 131.609 4.53305 130.678 3.65621L129.307 5.11179ZM131.023 7.55144C131.424 8.44977 131.633 9.46088 131.633 10.6H133.633C133.633 9.21112 133.377 7.91823 132.85 6.73656L131.023 7.55144ZM131.633 10.6C131.633 11.7208 131.425 12.7446 131.019 13.6828L132.854 14.4772C133.376 13.2714 133.633 11.9752 133.633 10.6H131.633ZM131.021 13.6777C130.61 14.612 130.04 15.4211 129.307 16.1122L130.678 17.5678C131.609 16.6909 132.335 15.66 132.852 14.4823L131.021 13.6777ZM129.307 16.1118C128.592 16.7849 127.737 17.3182 126.729 17.707L127.448 19.573C128.68 19.0978 129.761 18.4311 130.678 17.5682L129.307 16.1118ZM126.724 17.7088C125.748 18.0907 124.665 18.288 123.465 18.288V20.288C124.888 20.288 126.221 20.0533 127.453 19.5712L126.724 17.7088ZM123.44 16.976C124.308 16.976 125.127 16.828 125.884 16.5172L125.125 14.6668C124.634 14.868 124.077 14.976 123.44 14.976V16.976ZM125.876 16.5205C126.64 16.215 127.314 15.7724 127.892 15.1951L126.477 13.7809C126.095 14.1636 125.649 14.457 125.133 14.6635L125.876 16.5205ZM127.892 15.1951C128.473 14.6137 128.916 13.9274 129.22 13.1475L127.357 12.4205C127.149 12.9526 126.856 13.4023 126.477 13.7809L127.892 15.1951ZM129.212 13.167C129.541 12.3752 129.697 11.5149 129.697 10.6H127.697C127.697 11.2851 127.58 11.8808 127.365 12.401L129.212 13.167ZM129.697 10.6C129.697 9.68514 129.541 8.82483 129.212 8.03298L127.365 8.79902C127.58 9.31916 127.697 9.91486 127.697 10.6H129.697ZM129.22 8.05246C128.916 7.27257 128.473 6.58633 127.892 6.00489L126.477 7.41911C126.856 7.79767 127.149 8.24743 127.357 8.77954L129.22 8.05246ZM127.903 6.01698C127.338 5.43217 126.667 4.98619 125.9 4.67952L125.157 6.53648C125.67 6.74181 126.103 7.03183 126.466 7.40702L127.903 6.01698ZM125.9 4.67952C125.131 4.37214 124.308 4.224 123.44 4.224V6.224C124.077 6.224 124.646 6.33186 125.157 6.53648L125.9 4.67952ZM123.44 4.224C122.573 4.224 121.75 4.37214 120.981 4.67952L121.724 6.53648C122.235 6.33186 122.804 6.224 123.44 6.224V4.224ZM120.973 4.68283C120.226 4.98944 119.562 5.43185 118.989 6.00489L120.404 7.41911C120.791 7.03215 121.231 6.73856 121.732 6.53317L120.973 4.68283ZM118.989 6.00489C118.412 6.58193 117.965 7.26148 117.645 8.03298L119.492 8.79902C119.716 8.25852 120.021 7.80207 120.404 7.41911L118.989 6.00489ZM117.637 8.05246C117.33 8.839 117.185 9.6924 117.185 10.6H119.185C119.185 9.9076 119.295 9.305 119.5 8.77954L117.637 8.05246ZM117.185 10.6C117.185 11.4947 117.331 12.3445 117.634 13.14L119.503 12.428C119.294 11.8795 119.185 11.2733 119.185 10.6H117.185ZM117.645 13.167C117.962 13.9315 118.397 14.6072 118.954 15.183L120.391 13.793C120.02 13.4088 119.719 12.9485 119.492 12.401L117.645 13.167ZM118.965 15.1951C119.543 15.7724 120.217 16.215 120.981 16.5205L121.724 14.6635C121.208 14.457 120.762 14.1636 120.38 13.7809L118.965 15.1951ZM120.981 16.5205C121.75 16.8279 122.573 16.976 123.44 16.976V14.976C122.804 14.976 122.235 14.8681 121.724 14.6635L120.981 16.5205ZM135.555 19H134.555V20H135.555V19ZM135.555 2.2V1.2H134.555V2.2H135.555ZM146.715 2.944L146.3 3.85398L146.311 3.85892L146.715 2.944ZM149.234 5.032L148.396 5.57647L149.234 5.032ZM149.234 11.536L150.069 12.0873L150.073 12.0805L149.234 11.536ZM146.715 13.6L147.118 14.5149H147.118L146.715 13.6ZM137.714 14.32L137.012 13.608L135.276 15.32H137.714V14.32ZM139.443 12.616H140.443V10.2255L138.74 11.904L139.443 12.616ZM139.443 19V20H140.443V19H139.443ZM146.234 19L145.411 19.5674L145.709 20H146.234V19ZM142.035 12.904V11.904H140.131L141.211 13.4714L142.035 12.904ZM146.186 12.904L147.007 12.3323L146.708 11.904H146.186V12.904ZM150.434 19V20H152.35L151.255 18.4283L150.434 19ZM139.443 13.048L138.717 13.7357L140.443 15.5576V13.048H139.443ZM137.714 11.224V10.224H135.39L136.989 11.9117L137.714 11.224ZM145.299 10.456L145.953 11.2124L145.958 11.2074L145.964 11.2023L145.299 10.456ZM137.714 5.368L136.984 4.68501L135.41 6.368H137.714V5.368ZM139.443 3.52H140.443V0.986412L138.712 2.83701L139.443 3.52ZM136.555 19V2.2H134.555V19H136.555ZM135.555 3.2H142.827V1.2H135.555V3.2ZM142.827 3.2C144.223 3.2 145.371 3.43051 146.3 3.85391L147.129 2.03409C145.882 1.46549 144.438 1.2 142.827 1.2V3.2ZM146.311 3.85892C147.238 4.26805 147.92 4.84287 148.396 5.57647L150.073 4.48753C149.365 3.39712 148.367 2.57995 147.118 2.02908L146.311 3.85892ZM148.396 5.57647C148.866 6.3014 149.122 7.19316 149.122 8.296H151.122C151.122 6.87084 150.787 5.5866 150.073 4.48753L148.396 5.57647ZM149.122 8.296C149.122 9.38005 148.868 10.2646 148.396 10.9915L150.073 12.0805C150.785 10.9834 151.122 9.70795 151.122 8.296H149.122ZM148.4 10.9847C147.925 11.7038 147.243 12.2739 146.311 12.6851L147.118 14.5149C148.362 13.9661 149.36 13.1602 150.069 12.0873L148.4 10.9847ZM146.311 12.6851C145.379 13.0962 144.227 13.32 142.827 13.32V15.32C144.434 15.32 145.874 15.0638 147.118 14.5149L146.311 12.6851ZM142.827 13.32H137.714V15.32H142.827V13.32ZM138.417 15.032L140.145 13.328L138.74 11.904L137.012 13.608L138.417 15.032ZM138.443 12.616V19H140.443V12.616H138.443ZM139.443 18H135.555V20H139.443V18ZM147.058 18.4326L142.858 12.3366L141.211 13.4714L145.411 19.5674L147.058 18.4326ZM142.035 13.904H146.186V11.904H142.035V13.904ZM145.366 13.4757L149.614 19.5717L151.255 18.4283L147.007 12.3323L145.366 13.4757ZM150.434 18H146.234V20H150.434V18ZM140.168 12.3603L138.44 10.5363L136.989 11.9117L138.717 13.7357L140.168 12.3603ZM137.714 12.224H142.611V10.224H137.714V12.224ZM142.611 12.224C143.928 12.224 145.104 11.9466 145.953 11.2124L144.644 9.69964C144.309 9.98939 143.693 10.224 142.611 10.224V12.224ZM145.964 11.2023C146.802 10.4553 147.186 9.4459 147.186 8.296H145.186C145.186 8.9701 144.979 9.40071 144.633 9.70971L145.964 11.2023ZM147.186 8.296C147.186 7.13694 146.805 6.11723 145.953 5.37964L144.644 6.89236C144.976 7.17877 145.186 7.59906 145.186 8.296H147.186ZM145.953 5.37964C145.104 4.64539 143.928 4.368 142.611 4.368V6.368C143.693 6.368 144.309 6.60261 144.644 6.89236L145.953 5.37964ZM142.611 4.368H137.714V6.368H142.611V4.368ZM138.445 6.05099L140.173 4.20299L138.712 2.83701L136.984 4.68501L138.445 6.05099ZM138.443 3.52V13.048H140.443V3.52H138.443ZM157.643 18.664L157.279 19.5952L157.287 19.5984L157.295 19.6014L157.643 18.664ZM154.739 16.84L154.046 17.5611L154.053 17.5678L154.739 16.84ZM152.819 14.08L151.898 14.4706L151.903 14.4823L152.819 14.08ZM152.819 7.12L151.903 6.71769L151.898 6.72945L152.819 7.12ZM154.763 4.36L155.449 5.08779L154.763 4.36ZM157.691 2.56L158.039 3.4975L158.051 3.493L157.691 2.56ZM165.395 2.656L165.009 3.57835L165.013 3.58017L165.395 2.656ZM168.419 4.816L169.097 5.5508L169.808 4.8943L169.175 4.16205L168.419 4.816ZM165.923 7.12L165.198 7.80875L165.877 8.52342L166.601 7.8548L165.923 7.12ZM163.931 5.704L163.525 6.61781L163.533 6.62161L163.542 6.62525L163.931 5.704ZM157.595 6.712L156.9 5.9934L156.894 5.9991L156.888 6.00489L157.595 6.712ZM156.467 8.416L155.543 8.03298L155.539 8.04268L155.535 8.05246L156.467 8.416ZM156.467 12.76L155.535 13.1235L155.539 13.1333L155.543 13.143L156.467 12.76ZM157.595 14.488L156.876 15.1834L156.888 15.1952L156.9 15.2066L157.595 14.488ZM159.323 15.592L158.959 16.5236L158.967 16.5265L159.323 15.592ZM163.763 15.616L164.079 16.5648L164.091 16.5605L163.763 15.616ZM165.899 14.344L166.685 13.7259L166.039 12.9043L165.247 13.586L165.899 14.344ZM168.107 17.152L168.709 17.9503L169.524 17.3359L168.893 16.5339L168.107 17.152ZM164.915 18.736L164.625 17.7789L164.622 17.7799L164.915 18.736ZM164.555 16.648H163.555V17.5161L164.414 17.6381L164.555 16.648ZM164.555 10.336V9.336H163.555V10.336H164.555ZM168.107 10.336H169.107V9.336H168.107V10.336ZM168.107 17.152L167.966 18.1421L169.107 18.3039V17.152H168.107ZM161.315 18.288C160.093 18.288 158.988 18.0968 157.991 17.7266L157.295 19.6014C158.538 20.0632 159.881 20.288 161.315 20.288V18.288ZM158.007 17.7328C157.018 17.3456 156.16 16.8052 155.425 16.1122L154.053 17.5678C154.982 18.4428 156.06 19.1184 157.279 19.5952L158.007 17.7328ZM155.432 16.1189C154.712 15.4274 154.147 14.6163 153.734 13.6777L151.903 14.4823C152.419 15.6557 153.134 16.6846 154.046 17.5611L155.432 16.1189ZM153.74 13.6894C153.349 12.769 153.147 11.7435 153.147 10.6H151.147C151.147 11.9845 151.393 13.279 151.898 14.4705L153.74 13.6894ZM153.147 10.6C153.147 9.45645 153.349 8.43096 153.74 7.51055L151.898 6.72945C151.393 7.92103 151.147 9.21555 151.147 10.6H153.147ZM153.734 7.52227C154.145 6.58795 154.715 5.77894 155.449 5.08779L154.077 3.63221C153.147 4.50905 152.421 5.54004 151.903 6.71773L153.734 7.52227ZM155.449 5.08779C156.179 4.39968 157.039 3.86898 158.039 3.49742L157.343 1.62257C156.103 2.08302 155.011 2.75232 154.077 3.63221L155.449 5.08779ZM158.051 3.493C159.043 3.11027 160.151 2.912 161.387 2.912V0.912C159.935 0.912 158.579 1.14573 157.331 1.627L158.051 3.493ZM161.387 2.912C162.763 2.912 163.965 3.1411 165.009 3.57834L165.781 1.73366C164.457 1.1789 162.987 0.912 161.387 0.912V2.912ZM165.013 3.58017C166.075 4.01905 166.953 4.64886 167.662 5.46995L169.175 4.16205C168.253 3.09514 167.115 2.28495 165.777 1.73183L165.013 3.58017ZM167.741 4.0812L165.245 6.3852L166.601 7.8548L169.097 5.5508L167.741 4.0812ZM166.648 6.43125C165.957 5.70436 165.182 5.14681 164.32 4.78275L163.542 6.62525C164.12 6.86918 164.672 7.25564 165.198 7.80875L166.648 6.43125ZM164.337 4.79019C163.48 4.40913 162.556 4.224 161.579 4.224V6.224C162.298 6.224 162.942 6.35887 163.525 6.61781L164.337 4.79019ZM161.579 4.224C160.658 4.224 159.791 4.36877 158.991 4.67351L159.703 6.54249C160.247 6.33523 160.868 6.224 161.579 6.224V4.224ZM158.991 4.67351C158.198 4.97568 157.497 5.41524 156.9 5.9934L158.29 7.4306C158.685 7.04875 159.152 6.75232 159.703 6.54249L158.991 4.67351ZM156.888 6.00489C156.311 6.58193 155.863 7.26148 155.543 8.03298L157.391 8.79902C157.615 8.25852 157.919 7.80207 158.302 7.41911L156.888 6.00489ZM155.535 8.05246C155.228 8.839 155.083 9.6924 155.083 10.6H157.083C157.083 9.9076 157.193 9.305 157.399 8.77954L155.535 8.05246ZM155.083 10.6C155.083 11.4943 155.229 12.3393 155.535 13.1235L157.399 12.3965C157.193 11.8687 157.083 11.2737 157.083 10.6H155.083ZM155.543 13.143C155.862 13.9117 156.306 14.5945 156.876 15.1834L158.314 13.7926C157.923 13.3895 157.616 12.9203 157.391 12.377L155.543 13.143ZM156.9 15.2066C157.493 15.7808 158.182 16.2203 158.959 16.5236L159.686 14.6604C159.152 14.4517 158.689 14.1552 158.29 13.7694L156.9 15.2066ZM158.967 16.5265C159.765 16.8304 160.623 16.976 161.531 16.976V14.976C160.839 14.976 160.225 14.8656 159.679 14.6575L158.967 16.5265ZM161.531 16.976C162.405 16.976 163.256 16.8391 164.079 16.5647L163.447 14.6673C162.83 14.8729 162.193 14.976 161.531 14.976V16.976ZM164.091 16.5605C164.964 16.257 165.783 15.7627 166.551 15.102L165.247 13.586C164.638 14.1093 164.034 14.463 163.434 14.6715L164.091 16.5605ZM165.113 14.9621L167.321 17.7701L168.893 16.5339L166.685 13.7259L165.113 14.9621ZM167.505 16.3537C166.697 16.9632 165.741 17.4412 164.625 17.7789L165.205 19.6931C166.521 19.2948 167.693 18.7168 168.709 17.9503L167.505 16.3537ZM164.622 17.7799C163.512 18.1202 162.411 18.288 161.315 18.288V20.288C162.619 20.288 163.918 20.0878 165.208 19.6921L164.622 17.7799ZM165.555 16.648V10.336H163.555V16.648H165.555ZM164.555 11.336H168.107V9.336H164.555V11.336ZM167.107 10.336V17.152H169.107V10.336H167.107ZM168.247 16.1619L164.695 15.6579L164.414 17.6381L167.966 18.1421L168.247 16.1619ZM169.511 19L168.597 18.5929L167.97 20H169.511V19ZM176.999 2.2V1.2H176.349L176.085 1.79289L176.999 2.2ZM180.839 2.2L181.751 1.7918L181.487 1.2H180.839V2.2ZM188.351 19V20H189.893L189.263 18.5918L188.351 19ZM184.271 19L183.347 19.3827L183.602 20H184.271V19ZM178.127 4.168V3.168H176.63L177.203 4.5507L178.127 4.168ZM179.663 4.168L180.586 4.55198L181.161 3.168H179.663V4.168ZM173.495 19V20H174.162L174.418 19.384L173.495 19ZM173.255 15.4L172.311 15.07L171.846 16.4H173.255V15.4ZM174.287 12.448V11.448H173.577L173.343 12.118L174.287 12.448ZM182.927 12.448L183.868 12.1112L183.631 11.448H182.927V12.448ZM183.983 15.4V16.4H185.402L184.924 15.0632L183.983 15.4ZM170.424 19.4071L177.912 2.60711L176.085 1.79289L168.597 18.5929L170.424 19.4071ZM176.999 3.2H180.839V1.2H176.999V3.2ZM179.926 2.60819L187.438 19.4082L189.263 18.5918L181.751 1.7918L179.926 2.60819ZM188.351 18H184.271V20H188.351V18ZM185.194 18.6173L179.05 3.7853L177.203 4.5507L183.347 19.3827L185.194 18.6173ZM178.127 5.168H179.663V3.168H178.127V5.168ZM178.739 3.78402L172.571 18.616L174.418 19.384L180.586 4.55198L178.739 3.78402ZM173.495 18H169.511V20H173.495V18ZM174.199 15.73L175.231 12.778L173.343 12.118L172.311 15.07L174.199 15.73ZM174.287 13.448H182.927V11.448H174.287V13.448ZM181.985 12.7848L183.041 15.7368L184.924 15.0632L183.868 12.1112L181.985 12.7848ZM183.983 14.4H173.255V16.4H183.983V14.4ZM190.094 19H189.094V20H190.094V19ZM190.094 2.2V1.2H189.094V2.2H190.094ZM193.31 2.2L194.083 1.56618L193.783 1.2H193.31V2.2ZM203.222 14.296V15.296H205.334L203.995 13.6622L203.222 14.296ZM201.662 14.296H200.662V15.296H201.662V14.296ZM201.662 2.2V1.2H200.662V2.2H201.662ZM205.502 2.2H206.502V1.2H205.502V2.2ZM205.502 19V20H206.502V19H205.502ZM202.31 19L201.537 19.6347L201.837 20H202.31V19ZM192.374 6.904V5.904H190.258L191.601 7.53874L192.374 6.904ZM193.934 6.904H194.934V5.904H193.934V6.904ZM193.934 19V20H194.934V19H193.934ZM191.094 19V2.2H189.094V19H191.094ZM190.094 3.2H193.31V1.2H190.094V3.2ZM192.536 2.83382L202.448 14.9298L203.995 13.6622L194.083 1.56618L192.536 2.83382ZM203.222 13.296H201.662V15.296H203.222V13.296ZM202.662 14.296V2.2H200.662V14.296H202.662ZM201.662 3.2H205.502V1.2H201.662V3.2ZM204.502 2.2V19H206.502V2.2H204.502ZM205.502 18H202.31V20H205.502V18ZM203.082 18.3653L193.146 6.26926L191.601 7.53874L201.537 19.6347L203.082 18.3653ZM192.374 7.904H193.934V5.904H192.374V7.904ZM192.934 6.904V19H194.934V6.904H192.934ZM193.934 18H190.094V20H193.934V18ZM209.476 19H208.476V20H209.476V19ZM209.476 2.2V1.2H208.476V2.2H209.476ZM213.364 2.2H214.364V1.2H213.364V2.2ZM213.364 19V20H214.364V19H213.364ZM210.476 19V2.2H208.476V19H210.476ZM209.476 3.2H213.364V1.2H209.476V3.2ZM212.364 2.2V19H214.364V2.2H212.364ZM213.364 18H209.476V20H213.364V18ZM216.271 19H215.271V20H216.271V19ZM216.271 16.48L215.502 15.8416L215.271 16.1192V16.48H216.271ZM226.663 3.952L227.61 3.63096L227.036 1.93644L225.894 3.31356L226.663 3.952ZM227.143 5.368V6.368H228.538L228.09 5.04696L227.143 5.368ZM216.463 5.368H215.463V6.368H216.463V5.368ZM216.463 2.2V1.2H215.463V2.2H216.463ZM230.599 2.2H231.599V1.2H230.599V2.2ZM230.599 4.72L231.37 5.35757L231.599 5.08013V4.72H230.599ZM220.231 17.248L219.284 17.569L219.859 19.2658L221.002 17.8856L220.231 17.248ZM219.751 15.832V14.832H218.357L218.804 16.153L219.751 15.832ZM230.959 15.832H231.959V14.832H230.959V15.832ZM230.959 19V20H231.959V19H230.959ZM217.271 19V16.48H215.271V19H217.271ZM217.041 17.1184L227.433 4.59044L225.894 3.31356L215.502 15.8416L217.041 17.1184ZM225.716 4.27304L226.196 5.68904L228.09 5.04696L227.61 3.63096L225.716 4.27304ZM227.143 4.368H216.463V6.368H227.143V4.368ZM217.463 5.368V2.2H215.463V5.368H217.463ZM216.463 3.2H230.599V1.2H216.463V3.2ZM229.599 2.2V4.72H231.599V2.2H229.599ZM229.829 4.08243L219.461 16.6104L221.002 17.8856L231.37 5.35757L229.829 4.08243ZM221.178 16.927L220.698 15.511L218.804 16.153L219.284 17.569L221.178 16.927ZM219.751 16.832H230.959V14.832H219.751V16.832ZM229.959 15.832V19H231.959V15.832H229.959ZM230.959 18H216.271V20H230.959V18ZM237.029 8.968V7.968H236.029V8.968H237.029ZM245.117 8.968H246.117V7.968H245.117V8.968ZM245.117 11.992V12.992H246.117V11.992H245.117ZM237.029 11.992H236.029V12.992H237.029V11.992ZM237.317 15.88H236.317V16.88H237.317V15.88ZM246.461 15.88H247.461V14.88H246.461V15.88ZM246.461 19V20H247.461V19H246.461ZM233.453 19H232.453V20H233.453V19ZM233.453 2.2V1.2H232.453V2.2H233.453ZM246.149 2.2H247.149V1.2H246.149V2.2ZM246.149 5.32V6.32H247.149V5.32H246.149ZM237.317 5.32V4.32H236.317V5.32H237.317ZM237.029 9.968H245.117V7.968H237.029V9.968ZM244.117 8.968V11.992H246.117V8.968H244.117ZM245.117 10.992H237.029V12.992H245.117V10.992ZM238.029 11.992V8.968H236.029V11.992H238.029ZM237.317 16.88H246.461V14.88H237.317V16.88ZM245.461 15.88V19H247.461V15.88H245.461ZM246.461 18H233.453V20H246.461V18ZM234.453 19V2.2H232.453V19H234.453ZM233.453 3.2H246.149V1.2H233.453V3.2ZM245.149 2.2V5.32H247.149V2.2H245.149ZM246.149 4.32H237.317V6.32H246.149V4.32ZM236.317 5.32V15.88H238.317V5.32H236.317ZM6.568 44.968V43.968H5.568V44.968H6.568ZM14.656 44.968H15.656V43.968H14.656V44.968ZM14.656 47.992V48.992H15.656V47.992H14.656ZM6.568 47.992H5.568V48.992H6.568V47.992ZM6.856 51.88H5.856V52.88H6.856V51.88ZM16 51.88H17V50.88H16V51.88ZM16 55V56H17V55H16ZM2.992 55H1.992V56H2.992V55ZM2.992 38.2V37.2H1.992V38.2H2.992ZM15.688 38.2H16.688V37.2H15.688V38.2ZM15.688 41.32V42.32H16.688V41.32H15.688ZM6.856 41.32V40.32H5.856V41.32H6.856ZM6.568 45.968H14.656V43.968H6.568V45.968ZM13.656 44.968V47.992H15.656V44.968H13.656ZM14.656 46.992H6.568V48.992H14.656V46.992ZM7.568 47.992V44.968H5.568V47.992H7.568ZM6.856 52.88H16V50.88H6.856V52.88ZM15 51.88V55H17V51.88H15ZM16 54H2.992V56H16V54ZM3.992 55V38.2H1.992V55H3.992ZM2.992 39.2H15.688V37.2H2.992V39.2ZM14.688 38.2V41.32H16.688V38.2H14.688ZM15.688 40.32H6.856V42.32H15.688V40.32ZM5.856 41.32V51.88H7.856V41.32H5.856ZM23.8992 55L22.981 55.3961L23.2415 56H23.8992V55ZM16.6512 38.2V37.2H15.1307L15.733 38.5961L16.6512 38.2ZM20.8512 38.2L21.7713 37.8082L21.5123 37.2H20.8512V38.2ZM27.1872 53.08V54.08H28.6999L28.1073 52.6882L27.1872 53.08ZM24.7152 53.08L23.7973 52.6832L23.1935 54.08H24.7152V53.08ZM31.1472 38.2V37.2H30.49L30.2293 37.8032L31.1472 38.2ZM35.0112 38.2L35.9289 38.5972L36.5337 37.2H35.0112V38.2ZM27.7392 55V56H28.396L28.6569 55.3972L27.7392 55ZM24.8174 54.6039L17.5694 37.8039L15.733 38.5961L22.981 55.3961L24.8174 54.6039ZM16.6512 39.2H20.8512V37.2H16.6512V39.2ZM19.9311 38.5918L26.2671 53.4718L28.1073 52.6882L21.7713 37.8082L19.9311 38.5918ZM27.1872 52.08H24.7152V54.08H27.1872V52.08ZM25.6331 53.4768L32.0651 38.5968L30.2293 37.8032L23.7973 52.6832L25.6331 53.4768ZM31.1472 39.2H35.0112V37.2H31.1472V39.2ZM34.0935 37.8028L26.8215 54.6028L28.6569 55.3972L35.9289 38.5972L34.0935 37.8028ZM27.7392 54H23.8992V56H27.7392V54ZM39.9899 44.968V43.968H38.9899V44.968H39.9899ZM48.0779 44.968H49.0779V43.968H48.0779V44.968ZM48.0779 47.992V48.992H49.0779V47.992H48.0779ZM39.9899 47.992H38.9899V48.992H39.9899V47.992ZM40.2779 51.88H39.2779V52.88H40.2779V51.88ZM49.4219 51.88H50.4219V50.88H49.4219V51.88ZM49.4219 55V56H50.4219V55H49.4219ZM36.4139 55H35.4139V56H36.4139V55ZM36.4139 38.2V37.2H35.4139V38.2H36.4139ZM49.1099 38.2H50.1099V37.2H49.1099V38.2ZM49.1099 41.32V42.32H50.1099V41.32H49.1099ZM40.2779 41.32V40.32H39.2779V41.32H40.2779ZM39.9899 45.968H48.0779V43.968H39.9899V45.968ZM47.0779 44.968V47.992H49.0779V44.968H47.0779ZM48.0779 46.992H39.9899V48.992H48.0779V46.992ZM40.9899 47.992V44.968H38.9899V47.992H40.9899ZM40.2779 52.88H49.4219V50.88H40.2779V52.88ZM48.4219 51.88V55H50.4219V51.88H48.4219ZM49.4219 54H36.4139V56H49.4219V54ZM37.4139 55V38.2H35.4139V55H37.4139ZM36.4139 39.2H49.1099V37.2H36.4139V39.2ZM48.1099 38.2V41.32H50.1099V38.2H48.1099ZM49.1099 40.32H40.2779V42.32H49.1099V40.32ZM39.2779 41.32V51.88H41.2779V41.32H39.2779ZM52.5154 55H51.5154V56H52.5154V55ZM52.5154 38.2V37.2H51.5154V38.2H52.5154ZM63.6754 38.944L63.2606 39.854L63.2718 39.8589L63.6754 38.944ZM66.1954 41.032L65.3567 41.5765L66.1954 41.032ZM66.1954 47.536L67.0298 48.0873L67.0342 48.0805L66.1954 47.536ZM63.6754 49.6L64.0791 50.5149L63.6754 49.6ZM54.6754 50.32L53.9733 49.608L52.2371 51.32H54.6754V50.32ZM56.4034 48.616H57.4034V46.2255L55.7013 47.904L56.4034 48.616ZM56.4034 55V56H57.4034V55H56.4034ZM63.1954 55L62.372 55.5674L62.67 56H63.1954V55ZM58.9954 48.904V47.904H57.0921L58.172 49.4714L58.9954 48.904ZM63.1474 48.904L63.9679 48.3323L63.6694 47.904H63.1474V48.904ZM67.3954 55V56H69.3111L68.2159 54.4283L67.3954 55ZM56.4034 49.048L55.6775 49.7357L57.4034 51.5576V49.048H56.4034ZM54.6754 47.224V46.224H52.3506L53.9495 47.9117L54.6754 47.224ZM62.2594 46.456L62.9136 47.2124L62.9194 47.2074L62.9251 47.2023L62.2594 46.456ZM54.6754 41.368L53.945 40.685L52.3713 42.368H54.6754V41.368ZM56.4034 39.52H57.4034V36.9864L55.673 38.837L56.4034 39.52ZM53.5154 55V38.2H51.5154V55H53.5154ZM52.5154 39.2H59.7874V37.2H52.5154V39.2ZM59.7874 39.2C61.1841 39.2 62.3319 39.4305 63.2606 39.8539L64.0902 38.0341C62.843 37.4655 61.3988 37.2 59.7874 37.2V39.2ZM63.2718 39.8589C64.1992 40.2681 64.8805 40.8429 65.3567 41.5765L67.0342 40.4875C66.3264 39.3971 65.3277 38.5799 64.0791 38.0291L63.2718 39.8589ZM65.3567 41.5765C65.8272 42.3014 66.0834 43.1932 66.0834 44.296H68.0834C68.0834 42.8708 67.7477 41.5866 67.0342 40.4875L65.3567 41.5765ZM66.0834 44.296C66.0834 45.38 65.8285 46.2646 65.3567 46.9915L67.0342 48.0805C67.7463 46.9834 68.0834 45.708 68.0834 44.296H66.0834ZM65.3611 46.9847C64.886 47.7038 64.2038 48.2739 63.2718 48.6851L64.0791 50.5149C65.323 49.9661 66.3209 49.1602 67.0298 48.0873L65.3611 46.9847ZM63.2718 48.6851C62.3399 49.0962 61.188 49.32 59.7874 49.32V51.32C61.3949 51.32 62.835 51.0638 64.0791 50.5149L63.2718 48.6851ZM59.7874 49.32H54.6754V51.32H59.7874V49.32ZM55.3776 51.032L57.1056 49.328L55.7013 47.904L53.9733 49.608L55.3776 51.032ZM55.4034 48.616V55H57.4034V48.616H55.4034ZM56.4034 54H52.5154V56H56.4034V54ZM64.0189 54.4326L59.8189 48.3366L58.172 49.4714L62.372 55.5674L64.0189 54.4326ZM58.9954 49.904H63.1474V47.904H58.9954V49.904ZM62.327 49.4757L66.575 55.5717L68.2159 54.4283L63.9679 48.3323L62.327 49.4757ZM67.3954 54H63.1954V56H67.3954V54ZM57.1294 48.3603L55.4014 46.5363L53.9495 47.9117L55.6775 49.7357L57.1294 48.3603ZM54.6754 48.224H59.5714V46.224H54.6754V48.224ZM59.5714 48.224C60.8888 48.224 62.0646 47.9466 62.9136 47.2124L61.6053 45.6996C61.2703 45.9894 60.6541 46.224 59.5714 46.224V48.224ZM62.9251 47.2023C63.7626 46.4553 64.1474 45.4459 64.1474 44.296H62.1474C62.1474 44.9701 61.9403 45.4007 61.5938 45.7097L62.9251 47.2023ZM64.1474 44.296C64.1474 43.1369 63.7664 42.1172 62.9136 41.3796L61.6053 42.8924C61.9364 43.1788 62.1474 43.5991 62.1474 44.296H64.1474ZM62.9136 41.3796C62.0646 40.6454 60.8888 40.368 59.5714 40.368V42.368C60.6541 42.368 61.2703 42.6026 61.6053 42.8924L62.9136 41.3796ZM59.5714 40.368H54.6754V42.368H59.5714V40.368ZM55.4059 42.051L57.1339 40.203L55.673 38.837L53.945 40.685L55.4059 42.051ZM55.4034 39.52V49.048H57.4034V39.52H55.4034ZM74.1055 55H73.1055V56H74.1055V55ZM74.1055 48.136L75.041 47.7828L73.1055 48.136H74.1055ZM74.9935 50.488L74.1366 51.0035L75.929 50.1348L74.9935 50.488ZM67.6015 38.2V37.2H65.8329L66.7446 38.7155L67.6015 38.2ZM71.7295 38.2L72.5868 37.6852L72.2954 37.2H71.7295V38.2ZM77.3935 47.632V48.632H79.1605L78.2508 47.1172L77.3935 47.632ZM75.0175 47.632L74.1612 47.1156L73.2467 48.632H75.0175V47.632ZM80.7055 38.2V37.2H80.1408L79.8492 37.6836L80.7055 38.2ZM84.5215 38.2L85.3784 38.7155L86.2901 37.2H84.5215V38.2ZM77.1295 50.488L76.1908 50.1432L77.9864 51.0035L77.1295 50.488ZM77.9935 48.136H78.9935L77.0548 47.7912L77.9935 48.136ZM77.9935 55V56H78.9935V55H77.9935ZM75.1055 55V48.136H73.1055V55H75.1055ZM73.17 48.4892L74.058 50.8412L75.929 50.1348L75.041 47.7828L73.17 48.4892ZM75.8504 49.9725L68.4584 37.6845L66.7446 38.7155L74.1366 51.0035L75.8504 49.9725ZM67.6015 39.2H71.7295V37.2H67.6015V39.2ZM70.8722 38.7148L76.5362 48.1468L78.2508 47.1172L72.5868 37.6852L70.8722 38.7148ZM77.3935 46.632H75.0175V48.632H77.3935V46.632ZM75.8738 48.1484L81.5618 38.7164L79.8492 37.6836L74.1612 47.1156L75.8738 48.1484ZM80.7055 39.2H84.5215V37.2H80.7055V39.2ZM83.6646 37.6845L76.2726 49.9725L77.9864 51.0035L85.3784 38.7155L83.6646 37.6845ZM78.0682 50.8328L78.9322 48.4808L77.0548 47.7912L76.1908 50.1432L78.0682 50.8328ZM76.9935 48.136V55H78.9935V48.136H76.9935ZM77.9935 54H74.1055V56H77.9935V54ZM89.3001 55H88.3001V56H89.3001V55ZM89.3001 41.368H90.3001V40.368H89.3001V41.368ZM83.9241 41.368H82.9241V42.368H83.9241V41.368ZM83.9241 38.2V37.2H82.9241V38.2H83.9241ZM98.5641 38.2H99.5641V37.2H98.5641V38.2ZM98.5641 41.368V42.368H99.5641V41.368H98.5641ZM93.1881 41.368V40.368H92.1881V41.368H93.1881ZM93.1881 55V56H94.1881V55H93.1881ZM90.3001 55V41.368H88.3001V55H90.3001ZM89.3001 40.368H83.9241V42.368H89.3001V40.368ZM84.9241 41.368V38.2H82.9241V41.368H84.9241ZM83.9241 39.2H98.5641V37.2H83.9241V39.2ZM97.5641 38.2V41.368H99.5641V38.2H97.5641ZM98.5641 40.368H93.1881V42.368H98.5641V40.368ZM92.1881 41.368V55H94.1881V41.368H92.1881ZM93.1881 54H89.3001V56H93.1881V54ZM112.176 38.2V37.2H111.176V38.2H112.176ZM116.064 38.2H117.064V37.2H116.064V38.2ZM116.064 55V56H117.064V55H116.064ZM112.176 55H111.176V56H112.176V55ZM104.544 55V56H105.544V55H104.544ZM100.656 55H99.6561V56H100.656V55ZM100.656 38.2V37.2H99.6561V38.2H100.656ZM104.544 38.2H105.544V37.2H104.544V38.2ZM112.464 48.112V49.112H113.464V48.112H112.464ZM104.256 48.112H103.256V49.112H104.256V48.112ZM104.256 44.824V43.824H103.256V44.824H104.256ZM112.464 44.824H113.464V43.824H112.464V44.824ZM112.176 39.2H116.064V37.2H112.176V39.2ZM115.064 38.2V55H117.064V38.2H115.064ZM116.064 54H112.176V56H116.064V54ZM113.176 55V38.2H111.176V55H113.176ZM104.544 54H100.656V56H104.544V54ZM101.656 55V38.2H99.6561V55H101.656ZM100.656 39.2H104.544V37.2H100.656V39.2ZM103.544 38.2V55H105.544V38.2H103.544ZM112.464 47.112H104.256V49.112H112.464V47.112ZM105.256 48.112V44.824H103.256V48.112H105.256ZM104.256 45.824H112.464V43.824H104.256V45.824ZM111.464 44.824V48.112H113.464V44.824H111.464ZM120.039 55H119.039V56H120.039V55ZM120.039 38.2V37.2H119.039V38.2H120.039ZM123.927 38.2H124.927V37.2H123.927V38.2ZM123.927 55V56H124.927V55H123.927ZM121.039 55V38.2H119.039V55H121.039ZM120.039 39.2H123.927V37.2H120.039V39.2ZM122.927 38.2V55H124.927V38.2H122.927ZM123.927 54H120.039V56H123.927V54ZM127.914 55H126.914V56H127.914V55ZM127.914 38.2V37.2H126.914V38.2H127.914ZM131.13 38.2L131.903 37.5662L131.603 37.2H131.13V38.2ZM141.042 50.296V51.296H143.154L141.815 49.6622L141.042 50.296ZM139.482 50.296H138.482V51.296H139.482V50.296ZM139.482 38.2V37.2H138.482V38.2H139.482ZM143.322 38.2H144.322V37.2H143.322V38.2ZM143.322 55V56H144.322V55H143.322ZM140.13 55L139.357 55.6347L139.657 56H140.13V55ZM130.194 42.904V41.904H128.078L129.421 43.5387L130.194 42.904ZM131.754 42.904H132.754V41.904H131.754V42.904ZM131.754 55V56H132.754V55H131.754ZM128.914 55V38.2H126.914V55H128.914ZM127.914 39.2H131.13V37.2H127.914V39.2ZM130.356 38.8338L140.268 50.9298L141.815 49.6622L131.903 37.5662L130.356 38.8338ZM141.042 49.296H139.482V51.296H141.042V49.296ZM140.482 50.296V38.2H138.482V50.296H140.482ZM139.482 39.2H143.322V37.2H139.482V39.2ZM142.322 38.2V55H144.322V38.2H142.322ZM143.322 54H140.13V56H143.322V54ZM140.903 54.3653L130.967 42.2693L129.421 43.5387L139.357 55.6347L140.903 54.3653ZM130.194 43.904H131.754V41.904H130.194V43.904ZM130.754 42.904V55H132.754V42.904H130.754ZM131.754 54H127.914V56H131.754V54ZM151.737 54.664L151.372 55.5952L151.38 55.5984L151.389 55.6014L151.737 54.664ZM148.833 52.84L148.14 53.5611L148.147 53.5678L148.833 52.84ZM146.913 50.08L145.992 50.4706L145.997 50.4823L146.913 50.08ZM146.913 43.12L145.997 42.7177L145.992 42.7295L146.913 43.12ZM148.857 40.36L149.542 41.0878L148.857 40.36ZM151.785 38.56L152.133 39.4975L152.145 39.493L151.785 38.56ZM159.489 38.656L159.102 39.5783L159.107 39.5802L159.489 38.656ZM162.513 40.816L163.191 41.5508L163.902 40.8943L163.269 40.162L162.513 40.816ZM160.017 43.12L159.292 43.8088L159.971 44.5234L160.695 43.8548L160.017 43.12ZM158.025 41.704L157.619 42.6178L157.627 42.6216L157.636 42.6252L158.025 41.704ZM151.689 42.712L150.993 41.9934L150.987 41.9991L150.982 42.0049L151.689 42.712ZM150.561 44.416L149.637 44.033L149.633 44.0427L149.629 44.0525L150.561 44.416ZM150.561 48.76L149.629 49.1235L149.633 49.1333L149.637 49.143L150.561 48.76ZM151.689 50.488L150.97 51.1834L150.981 51.1952L150.993 51.2066L151.689 50.488ZM153.417 51.592L153.053 52.5236L153.061 52.5265L153.417 51.592ZM157.857 51.616L158.173 52.5648L158.185 52.5605L157.857 51.616ZM159.993 50.344L160.779 49.7259L160.133 48.9043L159.34 49.586L159.993 50.344ZM162.201 53.152L162.803 53.9503L163.617 53.3359L162.987 52.5339L162.201 53.152ZM159.009 54.736L158.719 53.7789L158.715 53.7799L159.009 54.736ZM158.649 52.648H157.649V53.5161L158.508 53.6381L158.649 52.648ZM158.649 46.336V45.336H157.649V46.336H158.649ZM162.201 46.336H163.201V45.336H162.201V46.336ZM162.201 53.152L162.06 54.1421L163.201 54.3039V53.152H162.201ZM155.409 54.288C154.186 54.288 153.082 54.0968 152.085 53.7266L151.389 55.6014C152.632 56.0632 153.975 56.288 155.409 56.288V54.288ZM152.101 53.7328C151.112 53.3456 150.254 52.8052 149.518 52.1122L148.147 53.5678C149.075 54.4428 150.154 55.1184 151.372 55.5952L152.101 53.7328ZM149.526 52.1189C148.806 51.4273 148.241 50.6163 147.828 49.6777L145.997 50.4823C146.513 51.6557 147.228 52.6847 148.14 53.5611L149.526 52.1189ZM147.833 49.6894C147.443 48.769 147.241 47.7435 147.241 46.6H145.241C145.241 47.9845 145.487 49.279 145.992 50.4706L147.833 49.6894ZM147.241 46.6C147.241 45.4565 147.443 44.431 147.833 43.5105L145.992 42.7295C145.487 43.921 145.241 45.2155 145.241 46.6H147.241ZM147.828 43.5223C148.239 42.588 148.809 41.7789 149.542 41.0878L148.171 39.6322C147.24 40.5091 146.515 41.54 145.997 42.7177L147.828 43.5223ZM149.542 41.0878C150.273 40.3997 151.133 39.869 152.133 39.4974L151.437 37.6226C150.197 38.083 149.105 38.7523 148.171 39.6322L149.542 41.0878ZM152.145 39.493C153.137 39.1103 154.245 38.912 155.481 38.912V36.912C154.028 36.912 152.673 37.1457 151.425 37.627L152.145 39.493ZM155.481 38.912C156.857 38.912 158.059 39.1411 159.102 39.5783L159.875 37.7337C158.551 37.1789 157.08 36.912 155.481 36.912V38.912ZM159.107 39.5802C160.169 40.0191 161.046 40.6489 161.756 41.47L163.269 40.162C162.347 39.0951 161.209 38.2849 159.871 37.7318L159.107 39.5802ZM161.834 40.0812L159.338 42.3852L160.695 43.8548L163.191 41.5508L161.834 40.0812ZM160.742 42.4313C160.051 41.7044 159.276 41.1468 158.414 40.7827L157.636 42.6252C158.213 42.8692 158.766 43.2556 159.292 43.8088L160.742 42.4313ZM158.431 40.7902C157.573 40.4091 156.65 40.224 155.673 40.224V42.224C156.392 42.224 157.036 42.3589 157.619 42.6178L158.431 40.7902ZM155.673 40.224C154.751 40.224 153.885 40.3688 153.085 40.6735L153.797 42.5425C154.341 42.3352 154.962 42.224 155.673 42.224V40.224ZM153.085 40.6735C152.292 40.9757 151.591 41.4152 150.993 41.9934L152.384 43.4306C152.779 43.0488 153.246 42.7523 153.797 42.5425L153.085 40.6735ZM150.982 42.0049C150.405 42.5819 149.957 43.2615 149.637 44.033L151.484 44.799C151.709 44.2585 152.013 43.8021 152.396 43.4191L150.982 42.0049ZM149.629 44.0525C149.322 44.839 149.177 45.6924 149.177 46.6H151.177C151.177 45.9076 151.287 45.305 151.492 44.7795L149.629 44.0525ZM149.177 46.6C149.177 47.4943 149.323 48.3393 149.629 49.1235L151.492 48.3965C151.286 47.8687 151.177 47.2737 151.177 46.6H149.177ZM149.637 49.143C149.956 49.9117 150.4 50.5945 150.97 51.1834L152.407 49.7926C152.017 49.3895 151.71 48.9203 151.484 48.377L149.637 49.143ZM150.993 51.2066C151.587 51.7808 152.276 52.2203 153.053 52.5236L153.78 50.6604C153.245 50.4517 152.783 50.1552 152.384 49.7694L150.993 51.2066ZM153.061 52.5265C153.858 52.8304 154.717 52.976 155.625 52.976V50.976C154.933 50.976 154.319 50.8656 153.773 50.6575L153.061 52.5265ZM155.625 52.976C156.499 52.976 157.35 52.8391 158.173 52.5647L157.54 50.6673C156.924 50.8729 156.287 50.976 155.625 50.976V52.976ZM158.185 52.5605C159.058 52.257 159.877 51.7627 160.645 51.102L159.34 49.586C158.732 50.1093 158.128 50.463 157.528 50.6715L158.185 52.5605ZM159.207 50.9621L161.415 53.7701L162.987 52.5339L160.779 49.7259L159.207 50.9621ZM161.598 52.3537C160.79 52.9632 159.835 53.4412 158.719 53.7789L159.298 55.6931C160.615 55.2948 161.787 54.7168 162.803 53.9503L161.598 52.3537ZM158.715 53.7799C157.606 54.1202 156.505 54.288 155.409 54.288V56.288C156.713 56.288 158.011 56.0878 159.302 55.6921L158.715 53.7799ZM159.649 52.648V46.336H157.649V52.648H159.649ZM158.649 47.336H162.201V45.336H158.649V47.336ZM161.201 46.336V53.152H163.201V46.336H161.201ZM162.341 52.1619L158.789 51.6579L158.508 53.6381L162.06 54.1421L162.341 52.1619Z" fill="#333333" mask="url(#path-1-outside-1_1_553)"/>
</svg>
