<svg width="625" height="29" viewBox="0 0 625 29" fill="none" xmlns="http://www.w3.org/2000/svg">
<mask id="path-1-outside-1_1_194" maskUnits="userSpaceOnUse" x="0" y="0" width="625" height="29" fill="black">
<rect fill="white" width="625" height="29"/>
<path d="M10.036 27L1.792 1.8H7.84L15.004 24.12H11.98L19.468 1.8H24.868L32.068 24.12H29.152L36.496 1.8H42.076L33.832 27H27.568L21.196 7.416H22.852L16.3 27H10.036ZM50.6958 11.952H62.8278V16.488H50.6958V11.952ZM51.1278 22.32H64.8438V27H45.3318V1.8H64.3758V6.48H51.1278V22.32Z"/>
<path d="M91.7394 27.432C89.7954 27.432 87.9834 27.12 86.3034 26.496C84.6474 25.848 83.2074 24.936 81.9834 23.76C80.7594 22.584 79.7994 21.204 79.1034 19.62C78.4314 18.036 78.0954 16.296 78.0954 14.4C78.0954 12.504 78.4314 10.764 79.1034 9.18C79.7994 7.596 80.7594 6.216 81.9834 5.04C83.2314 3.864 84.6834 2.964 86.3394 2.34C87.9954 1.692 89.8074 1.368 91.7754 1.368C93.9594 1.368 95.9274 1.752 97.6794 2.52C99.4554 3.264 100.943 4.368 102.143 5.832L98.3994 9.288C97.5354 8.304 96.5754 7.572 95.5194 7.092C94.4634 6.588 93.3114 6.336 92.0634 6.336C90.8874 6.336 89.8074 6.528 88.8234 6.912C87.8394 7.296 86.9874 7.848 86.2674 8.568C85.5474 9.288 84.9834 10.14 84.5754 11.124C84.1914 12.108 83.9994 13.2 83.9994 14.4C83.9994 15.6 84.1914 16.692 84.5754 17.676C84.9834 18.66 85.5474 19.512 86.2674 20.232C86.9874 20.952 87.8394 21.504 88.8234 21.888C89.8074 22.272 90.8874 22.464 92.0634 22.464C93.3114 22.464 94.4634 22.224 95.5194 21.744C96.5754 21.24 97.5354 20.484 98.3994 19.476L102.143 22.932C100.943 24.396 99.4554 25.512 97.6794 26.28C95.9274 27.048 93.9474 27.432 91.7394 27.432ZM102.313 27L113.545 1.8H119.305L130.573 27H124.453L115.237 4.752H117.541L108.289 27H102.313ZM107.929 21.6L109.477 17.172H122.437L124.021 21.6H107.929ZM133.187 27V1.8H138.011L152.879 19.944H150.539V1.8H156.299V27H151.511L136.607 8.856H138.947V27H133.187ZM184.697 27.432C182.705 27.432 180.857 27.108 179.153 26.46C177.473 25.812 176.009 24.9 174.761 23.724C173.537 22.548 172.577 21.168 171.881 19.584C171.209 18 170.873 16.272 170.873 14.4C170.873 12.528 171.209 10.8 171.881 9.216C172.577 7.632 173.549 6.252 174.797 5.076C176.045 3.9 177.509 2.988 179.189 2.34C180.869 1.692 182.693 1.368 184.661 1.368C186.653 1.368 188.477 1.692 190.133 2.34C191.813 2.988 193.265 3.9 194.489 5.076C195.737 6.252 196.709 7.632 197.405 9.216C198.101 10.776 198.449 12.504 198.449 14.4C198.449 16.272 198.101 18.012 197.405 19.62C196.709 21.204 195.737 22.584 194.489 23.76C193.265 24.912 191.813 25.812 190.133 26.46C188.477 27.108 186.665 27.432 184.697 27.432ZM184.661 22.464C185.789 22.464 186.821 22.272 187.757 21.888C188.717 21.504 189.557 20.952 190.277 20.232C190.997 19.512 191.549 18.66 191.933 17.676C192.341 16.692 192.545 15.6 192.545 14.4C192.545 13.2 192.341 12.108 191.933 11.124C191.549 10.14 190.997 9.288 190.277 8.568C189.581 7.848 188.753 7.296 187.793 6.912C186.833 6.528 185.789 6.336 184.661 6.336C183.533 6.336 182.489 6.528 181.529 6.912C180.593 7.296 179.765 7.848 179.045 8.568C178.325 9.288 177.761 10.14 177.353 11.124C176.969 12.108 176.777 13.2 176.777 14.4C176.777 15.576 176.969 16.668 177.353 17.676C177.761 18.66 178.313 19.512 179.009 20.232C179.729 20.952 180.569 21.504 181.529 21.888C182.489 22.272 183.533 22.464 184.661 22.464ZM202.832 27V1.8H213.74C215.996 1.8 217.94 2.172 219.572 2.916C221.204 3.636 222.464 4.68 223.352 6.048C224.24 7.416 224.684 9.048 224.684 10.944C224.684 12.816 224.24 14.436 223.352 15.804C222.464 17.148 221.204 18.18 219.572 18.9C217.94 19.62 215.996 19.98 213.74 19.98H206.072L208.664 17.424V27H202.832ZM218.852 27L212.552 17.856H218.78L225.152 27H218.852ZM208.664 18.072L206.072 15.336H213.416C215.216 15.336 216.56 14.952 217.448 14.184C218.336 13.392 218.78 12.312 218.78 10.944C218.78 9.552 218.336 8.472 217.448 7.704C216.56 6.936 215.216 6.552 213.416 6.552H206.072L208.664 3.78V18.072ZM241.472 27.432C239.48 27.432 237.644 27.12 235.964 26.496C234.308 25.848 232.856 24.936 231.608 23.76C230.384 22.584 229.424 21.204 228.728 19.62C228.056 18.036 227.72 16.296 227.72 14.4C227.72 12.504 228.056 10.764 228.728 9.18C229.424 7.596 230.396 6.216 231.644 5.04C232.892 3.864 234.356 2.964 236.036 2.34C237.716 1.692 239.564 1.368 241.58 1.368C243.812 1.368 245.816 1.74 247.592 2.484C249.392 3.228 250.904 4.308 252.128 5.724L248.384 9.18C247.472 8.22 246.476 7.512 245.396 7.056C244.316 6.576 243.14 6.336 241.868 6.336C240.644 6.336 239.528 6.528 238.52 6.912C237.512 7.296 236.636 7.848 235.892 8.568C235.172 9.288 234.608 10.14 234.2 11.124C233.816 12.108 233.624 13.2 233.624 14.4C233.624 15.576 233.816 16.656 234.2 17.64C234.608 18.624 235.172 19.488 235.892 20.232C236.636 20.952 237.5 21.504 238.484 21.888C239.492 22.272 240.596 22.464 241.796 22.464C242.948 22.464 244.064 22.284 245.144 21.924C246.248 21.54 247.316 20.904 248.348 20.016L251.66 24.228C250.292 25.26 248.696 26.052 246.872 26.604C245.072 27.156 243.272 27.432 241.472 27.432ZM246.332 23.472V14.004H251.66V24.228L246.332 23.472ZM253.766 27L264.998 1.8H270.758L282.026 27H275.906L266.69 4.752H268.994L259.742 27H253.766ZM259.382 21.6L260.93 17.172H273.89L275.474 21.6H259.382ZM284.64 27V1.8H289.464L304.332 19.944H301.992V1.8H307.752V27H302.964L288.06 8.856H290.4V27H284.64ZM313.715 27V1.8H319.547V27H313.715ZM323.907 27V23.22L339.495 4.428L340.215 6.552H324.195V1.8H345.399V5.58L329.847 24.372L329.127 22.248H345.939V27H323.907ZM355.043 11.952H367.175V16.488H355.043V11.952ZM355.475 22.32H369.191V27H349.679V1.8H368.723V6.48H355.475V22.32ZM389.391 11.952H401.523V16.488H389.391V11.952ZM389.823 22.32H403.539V27H384.027V1.8H403.071V6.48H389.823V22.32ZM415.388 27L404.516 1.8H410.816L420.32 24.12H416.612L426.26 1.8H432.056L421.148 27H415.388ZM439.524 11.952H451.656V16.488H439.524V11.952ZM439.956 22.32H453.672V27H434.16V1.8H453.204V6.48H439.956V22.32ZM458.312 27V1.8H469.22C471.476 1.8 473.42 2.172 475.052 2.916C476.684 3.636 477.944 4.68 478.832 6.048C479.72 7.416 480.164 9.048 480.164 10.944C480.164 12.816 479.72 14.436 478.832 15.804C477.944 17.148 476.684 18.18 475.052 18.9C473.42 19.62 471.476 19.98 469.22 19.98H461.552L464.144 17.424V27H458.312ZM474.332 27L468.032 17.856H474.26L480.632 27H474.332ZM464.144 18.072L461.552 15.336H468.896C470.696 15.336 472.04 14.952 472.928 14.184C473.816 13.392 474.26 12.312 474.26 10.944C474.26 9.552 473.816 8.472 472.928 7.704C472.04 6.936 470.696 6.552 468.896 6.552H461.552L464.144 3.78V18.072ZM490.697 27V16.704L492.029 20.232L480.941 1.8H487.133L495.629 15.948H492.065L500.597 1.8H506.321L495.233 20.232L496.529 16.704V27H490.697ZM513.489 27V6.552H505.425V1.8H527.385V6.552H519.321V27H513.489ZM547.803 1.8H553.635V27H547.803V1.8ZM536.355 27H530.523V1.8H536.355V27ZM548.235 16.668H535.923V11.736H548.235V16.668ZM559.597 27V1.8H565.429V27H559.597ZM571.41 27V1.8H576.234L591.102 19.944H588.762V1.8H594.522V27H589.734L574.83 8.856H577.17V27H571.41ZM612.652 27.432C610.66 27.432 608.824 27.12 607.144 26.496C605.488 25.848 604.036 24.936 602.788 23.76C601.564 22.584 600.604 21.204 599.908 19.62C599.236 18.036 598.9 16.296 598.9 14.4C598.9 12.504 599.236 10.764 599.908 9.18C600.604 7.596 601.576 6.216 602.824 5.04C604.072 3.864 605.536 2.964 607.216 2.34C608.896 1.692 610.744 1.368 612.76 1.368C614.992 1.368 616.996 1.74 618.772 2.484C620.572 3.228 622.084 4.308 623.308 5.724L619.564 9.18C618.652 8.22 617.656 7.512 616.576 7.056C615.496 6.576 614.32 6.336 613.048 6.336C611.824 6.336 610.708 6.528 609.7 6.912C608.692 7.296 607.816 7.848 607.072 8.568C606.352 9.288 605.788 10.14 605.38 11.124C604.996 12.108 604.804 13.2 604.804 14.4C604.804 15.576 604.996 16.656 605.38 17.64C605.788 18.624 606.352 19.488 607.072 20.232C607.816 20.952 608.68 21.504 609.664 21.888C610.672 22.272 611.776 22.464 612.976 22.464C614.128 22.464 615.244 22.284 616.324 21.924C617.428 21.54 618.496 20.904 619.528 20.016L622.84 24.228C621.472 25.26 619.876 26.052 618.052 26.604C616.252 27.156 614.452 27.432 612.652 27.432ZM617.512 23.472V14.004H622.84V24.228L617.512 23.472Z"/>
</mask>
<path d="M91.7394 27.432C89.7954 27.432 87.9834 27.12 86.3034 26.496C84.6474 25.848 83.2074 24.936 81.9834 23.76C80.7594 22.584 79.7994 21.204 79.1034 19.62C78.4314 18.036 78.0954 16.296 78.0954 14.4C78.0954 12.504 78.4314 10.764 79.1034 9.18C79.7994 7.596 80.7594 6.216 81.9834 5.04C83.2314 3.864 84.6834 2.964 86.3394 2.34C87.9954 1.692 89.8074 1.368 91.7754 1.368C93.9594 1.368 95.9274 1.752 97.6794 2.52C99.4554 3.264 100.943 4.368 102.143 5.832L98.3994 9.288C97.5354 8.304 96.5754 7.572 95.5194 7.092C94.4634 6.588 93.3114 6.336 92.0634 6.336C90.8874 6.336 89.8074 6.528 88.8234 6.912C87.8394 7.296 86.9874 7.848 86.2674 8.568C85.5474 9.288 84.9834 10.14 84.5754 11.124C84.1914 12.108 83.9994 13.2 83.9994 14.4C83.9994 15.6 84.1914 16.692 84.5754 17.676C84.9834 18.66 85.5474 19.512 86.2674 20.232C86.9874 20.952 87.8394 21.504 88.8234 21.888C89.8074 22.272 90.8874 22.464 92.0634 22.464C93.3114 22.464 94.4634 22.224 95.5194 21.744C96.5754 21.24 97.5354 20.484 98.3994 19.476L102.143 22.932C100.943 24.396 99.4554 25.512 97.6794 26.28C95.9274 27.048 93.9474 27.432 91.7394 27.432ZM102.313 27L113.545 1.8H119.305L130.573 27H124.453L115.237 4.752H117.541L108.289 27H102.313ZM107.929 21.6L109.477 17.172H122.437L124.021 21.6H107.929ZM133.187 27V1.8H138.011L152.879 19.944H150.539V1.8H156.299V27H151.511L136.607 8.856H138.947V27H133.187ZM184.697 27.432C182.705 27.432 180.857 27.108 179.153 26.46C177.473 25.812 176.009 24.9 174.761 23.724C173.537 22.548 172.577 21.168 171.881 19.584C171.209 18 170.873 16.272 170.873 14.4C170.873 12.528 171.209 10.8 171.881 9.216C172.577 7.632 173.549 6.252 174.797 5.076C176.045 3.9 177.509 2.988 179.189 2.34C180.869 1.692 182.693 1.368 184.661 1.368C186.653 1.368 188.477 1.692 190.133 2.34C191.813 2.988 193.265 3.9 194.489 5.076C195.737 6.252 196.709 7.632 197.405 9.216C198.101 10.776 198.449 12.504 198.449 14.4C198.449 16.272 198.101 18.012 197.405 19.62C196.709 21.204 195.737 22.584 194.489 23.76C193.265 24.912 191.813 25.812 190.133 26.46C188.477 27.108 186.665 27.432 184.697 27.432ZM184.661 22.464C185.789 22.464 186.821 22.272 187.757 21.888C188.717 21.504 189.557 20.952 190.277 20.232C190.997 19.512 191.549 18.66 191.933 17.676C192.341 16.692 192.545 15.6 192.545 14.4C192.545 13.2 192.341 12.108 191.933 11.124C191.549 10.14 190.997 9.288 190.277 8.568C189.581 7.848 188.753 7.296 187.793 6.912C186.833 6.528 185.789 6.336 184.661 6.336C183.533 6.336 182.489 6.528 181.529 6.912C180.593 7.296 179.765 7.848 179.045 8.568C178.325 9.288 177.761 10.14 177.353 11.124C176.969 12.108 176.777 13.2 176.777 14.4C176.777 15.576 176.969 16.668 177.353 17.676C177.761 18.66 178.313 19.512 179.009 20.232C179.729 20.952 180.569 21.504 181.529 21.888C182.489 22.272 183.533 22.464 184.661 22.464ZM202.832 27V1.8H213.74C215.996 1.8 217.94 2.172 219.572 2.916C221.204 3.636 222.464 4.68 223.352 6.048C224.24 7.416 224.684 9.048 224.684 10.944C224.684 12.816 224.24 14.436 223.352 15.804C222.464 17.148 221.204 18.18 219.572 18.9C217.94 19.62 215.996 19.98 213.74 19.98H206.072L208.664 17.424V27H202.832ZM218.852 27L212.552 17.856H218.78L225.152 27H218.852ZM208.664 18.072L206.072 15.336H213.416C215.216 15.336 216.56 14.952 217.448 14.184C218.336 13.392 218.78 12.312 218.78 10.944C218.78 9.552 218.336 8.472 217.448 7.704C216.56 6.936 215.216 6.552 213.416 6.552H206.072L208.664 3.78V18.072ZM241.472 27.432C239.48 27.432 237.644 27.12 235.964 26.496C234.308 25.848 232.856 24.936 231.608 23.76C230.384 22.584 229.424 21.204 228.728 19.62C228.056 18.036 227.72 16.296 227.72 14.4C227.72 12.504 228.056 10.764 228.728 9.18C229.424 7.596 230.396 6.216 231.644 5.04C232.892 3.864 234.356 2.964 236.036 2.34C237.716 1.692 239.564 1.368 241.58 1.368C243.812 1.368 245.816 1.74 247.592 2.484C249.392 3.228 250.904 4.308 252.128 5.724L248.384 9.18C247.472 8.22 246.476 7.512 245.396 7.056C244.316 6.576 243.14 6.336 241.868 6.336C240.644 6.336 239.528 6.528 238.52 6.912C237.512 7.296 236.636 7.848 235.892 8.568C235.172 9.288 234.608 10.14 234.2 11.124C233.816 12.108 233.624 13.2 233.624 14.4C233.624 15.576 233.816 16.656 234.2 17.64C234.608 18.624 235.172 19.488 235.892 20.232C236.636 20.952 237.5 21.504 238.484 21.888C239.492 22.272 240.596 22.464 241.796 22.464C242.948 22.464 244.064 22.284 245.144 21.924C246.248 21.54 247.316 20.904 248.348 20.016L251.66 24.228C250.292 25.26 248.696 26.052 246.872 26.604C245.072 27.156 243.272 27.432 241.472 27.432ZM246.332 23.472V14.004H251.66V24.228L246.332 23.472ZM253.766 27L264.998 1.8H270.758L282.026 27H275.906L266.69 4.752H268.994L259.742 27H253.766ZM259.382 21.6L260.93 17.172H273.89L275.474 21.6H259.382ZM284.64 27V1.8H289.464L304.332 19.944H301.992V1.8H307.752V27H302.964L288.06 8.856H290.4V27H284.64ZM313.715 27V1.8H319.547V27H313.715ZM323.907 27V23.22L339.495 4.428L340.215 6.552H324.195V1.8H345.399V5.58L329.847 24.372L329.127 22.248H345.939V27H323.907ZM355.043 11.952H367.175V16.488H355.043V11.952ZM355.475 22.32H369.191V27H349.679V1.8H368.723V6.48H355.475V22.32ZM389.391 11.952H401.523V16.488H389.391V11.952ZM389.823 22.32H403.539V27H384.027V1.8H403.071V6.48H389.823V22.32ZM415.388 27L404.516 1.8H410.816L420.32 24.12H416.612L426.26 1.8H432.056L421.148 27H415.388ZM439.524 11.952H451.656V16.488H439.524V11.952ZM439.956 22.32H453.672V27H434.16V1.8H453.204V6.48H439.956V22.32ZM458.312 27V1.8H469.22C471.476 1.8 473.42 2.172 475.052 2.916C476.684 3.636 477.944 4.68 478.832 6.048C479.72 7.416 480.164 9.048 480.164 10.944C480.164 12.816 479.72 14.436 478.832 15.804C477.944 17.148 476.684 18.18 475.052 18.9C473.42 19.62 471.476 19.98 469.22 19.98H461.552L464.144 17.424V27H458.312ZM474.332 27L468.032 17.856H474.26L480.632 27H474.332ZM464.144 18.072L461.552 15.336H468.896C470.696 15.336 472.04 14.952 472.928 14.184C473.816 13.392 474.26 12.312 474.26 10.944C474.26 9.552 473.816 8.472 472.928 7.704C472.04 6.936 470.696 6.552 468.896 6.552H461.552L464.144 3.78V18.072ZM490.697 27V16.704L492.029 20.232L480.941 1.8H487.133L495.629 15.948H492.065L500.597 1.8H506.321L495.233 20.232L496.529 16.704V27H490.697ZM513.489 27V6.552H505.425V1.8H527.385V6.552H519.321V27H513.489ZM547.803 1.8H553.635V27H547.803V1.8ZM536.355 27H530.523V1.8H536.355V27ZM548.235 16.668H535.923V11.736H548.235V16.668ZM559.597 27V1.8H565.429V27H559.597ZM571.41 27V1.8H576.234L591.102 19.944H588.762V1.8H594.522V27H589.734L574.83 8.856H577.17V27H571.41ZM612.652 27.432C610.66 27.432 608.824 27.12 607.144 26.496C605.488 25.848 604.036 24.936 602.788 23.76C601.564 22.584 600.604 21.204 599.908 19.62C599.236 18.036 598.9 16.296 598.9 14.4C598.9 12.504 599.236 10.764 599.908 9.18C600.604 7.596 601.576 6.216 602.824 5.04C604.072 3.864 605.536 2.964 607.216 2.34C608.896 1.692 610.744 1.368 612.76 1.368C614.992 1.368 616.996 1.74 618.772 2.484C620.572 3.228 622.084 4.308 623.308 5.724L619.564 9.18C618.652 8.22 617.656 7.512 616.576 7.056C615.496 6.576 614.32 6.336 613.048 6.336C611.824 6.336 610.708 6.528 609.7 6.912C608.692 7.296 607.816 7.848 607.072 8.568C606.352 9.288 605.788 10.14 605.38 11.124C604.996 12.108 604.804 13.2 604.804 14.4C604.804 15.576 604.996 16.656 605.38 17.64C605.788 18.624 606.352 19.488 607.072 20.232C607.816 20.952 608.68 21.504 609.664 21.888C610.672 22.272 611.776 22.464 612.976 22.464C614.128 22.464 615.244 22.284 616.324 21.924C617.428 21.54 618.496 20.904 619.528 20.016L622.84 24.228C621.472 25.26 619.876 26.052 618.052 26.604C616.252 27.156 614.452 27.432 612.652 27.432ZM617.512 23.472V14.004H622.84V24.228L617.512 23.472Z" fill="#333333"/>
<path d="M10.036 27L9.08557 27.3109L9.31099 28H10.036V27ZM1.792 1.8V0.799998H0.412706L0.841566 2.11093L1.792 1.8ZM7.84 1.8L8.79216 1.49439L8.56928 0.799998H7.84V1.8ZM15.004 24.12V25.12H16.3752L15.9562 23.8144L15.004 24.12ZM11.98 24.12L11.0319 23.8019L10.5897 25.12H11.98V24.12ZM19.468 1.8V0.799998H18.7487L18.5199 1.48194L19.468 1.8ZM24.868 1.8L25.8197 1.493L25.5962 0.799998H24.868V1.8ZM32.068 24.12V25.12H33.4413L33.0197 23.813L32.068 24.12ZM29.152 24.12L28.2021 23.8075L27.7702 25.12H29.152V24.12ZM36.496 1.8V0.799998H35.7723L35.5461 1.48745L36.496 1.8ZM42.076 1.8L43.0264 2.11093L43.4553 0.799998H42.076V1.8ZM33.832 27V28H34.557L34.7824 27.3109L33.832 27ZM27.568 27L26.6171 27.3094L26.8418 28H27.568V27ZM21.196 7.416V6.416H19.819L20.2451 7.7254L21.196 7.416ZM22.852 7.416L23.8003 7.73327L24.241 6.416H22.852V7.416ZM16.3 27V28H17.0199L17.2483 27.3173L16.3 27ZM10.9864 26.6891L2.74243 1.48907L0.841566 2.11093L9.08557 27.3109L10.9864 26.6891ZM1.792 2.8H7.84V0.799998H1.792V2.8ZM6.88784 2.10561L14.0518 24.4256L15.9562 23.8144L8.79216 1.49439L6.88784 2.10561ZM15.004 23.12H11.98V25.12H15.004V23.12ZM12.9281 24.4381L20.4161 2.11806L18.5199 1.48194L11.0319 23.8019L12.9281 24.4381ZM19.468 2.8H24.868V0.799998H19.468V2.8ZM23.9163 2.107L31.1163 24.427L33.0197 23.813L25.8197 1.493L23.9163 2.107ZM32.068 23.12H29.152V25.12H32.068V23.12ZM30.1019 24.4325L37.4459 2.11255L35.5461 1.48745L28.2021 23.8075L30.1019 24.4325ZM36.496 2.8H42.076V0.799998H36.496V2.8ZM41.1256 1.48907L32.8816 26.6891L34.7824 27.3109L43.0264 2.11093L41.1256 1.48907ZM33.832 26H27.568V28H33.832V26ZM28.5189 26.6906L22.1469 7.1066L20.2451 7.7254L26.6171 27.3094L28.5189 26.6906ZM21.196 8.416H22.852V6.416H21.196V8.416ZM21.9037 7.09873L15.3517 26.6827L17.2483 27.3173L23.8003 7.73327L21.9037 7.09873ZM16.3 26H10.036V28H16.3V26ZM50.6958 11.952V10.952H49.6958V11.952H50.6958ZM62.8278 11.952H63.8278V10.952H62.8278V11.952ZM62.8278 16.488V17.488H63.8278V16.488H62.8278ZM50.6958 16.488H49.6958V17.488H50.6958V16.488ZM51.1278 22.32H50.1278V23.32H51.1278V22.32ZM64.8438 22.32H65.8438V21.32H64.8438V22.32ZM64.8438 27V28H65.8438V27H64.8438ZM45.3317 27H44.3317V28H45.3317V27ZM45.3317 1.8V0.799998H44.3317V1.8H45.3317ZM64.3758 1.8H65.3758V0.799998H64.3758V1.8ZM64.3758 6.48V7.48H65.3758V6.48H64.3758ZM51.1278 6.48V5.48H50.1278V6.48H51.1278ZM50.6958 12.952H62.8278V10.952H50.6958V12.952ZM61.8278 11.952V16.488H63.8278V11.952H61.8278ZM62.8278 15.488H50.6958V17.488H62.8278V15.488ZM51.6958 16.488V11.952H49.6958V16.488H51.6958ZM51.1278 23.32H64.8438V21.32H51.1278V23.32ZM63.8438 22.32V27H65.8438V22.32H63.8438ZM64.8438 26H45.3317V28H64.8438V26ZM46.3317 27V1.8H44.3317V27H46.3317ZM45.3317 2.8H64.3758V0.799998H45.3317V2.8ZM63.3758 1.8V6.48H65.3758V1.8H63.3758ZM64.3758 5.48H51.1278V7.48H64.3758V5.48ZM50.1278 6.48V22.32H52.1278V6.48H50.1278ZM86.3034 26.496L85.939 27.4272L85.9471 27.4304L85.9552 27.4334L86.3034 26.496ZM81.9834 23.76L81.2906 24.4811L81.9834 23.76ZM79.1034 19.62L78.1827 20.0106L78.1879 20.0223L79.1034 19.62ZM79.1034 9.18L78.1878 8.77769L78.1828 8.78945L79.1034 9.18ZM81.9834 5.04L81.2976 4.31218L81.2906 4.31889L81.9834 5.04ZM86.3394 2.34L86.692 3.27584L86.7038 3.27124L86.3394 2.34ZM97.6794 2.52L97.2779 3.43587L97.2854 3.43917L97.293 3.44234L97.6794 2.52ZM102.143 5.832L102.822 6.5668L103.515 5.92728L102.917 5.19807L102.143 5.832ZM98.3994 9.288L97.648 9.9478L98.3244 10.7182L99.0777 10.0228L98.3994 9.288ZM95.5194 7.092L95.0887 7.99448L95.0971 7.9985L95.1056 8.00237L95.5194 7.092ZM86.2674 8.568L86.9745 9.27511L86.2674 8.568ZM84.5754 11.124L83.6517 10.741L83.6476 10.7507L83.6438 10.7605L84.5754 11.124ZM84.5754 17.676L83.6438 18.0395L83.6476 18.0493L83.6517 18.059L84.5754 17.676ZM86.2674 20.232L85.5603 20.9391L86.2674 20.232ZM95.5194 21.744L95.9332 22.6544L95.9417 22.6505L95.9501 22.6465L95.5194 21.744ZM98.3994 19.476L99.0777 18.7412L98.3153 18.0375L97.6402 18.8252L98.3994 19.476ZM102.143 22.932L102.917 23.5659L103.515 22.8367L102.822 22.1972L102.143 22.932ZM97.6794 26.28L97.2825 25.3621L97.2779 25.3641L97.6794 26.28ZM91.7394 26.432C89.9042 26.432 88.2111 26.1378 86.6516 25.5586L85.9552 27.4334C87.7557 28.1022 89.6866 28.432 91.7394 28.432V26.432ZM86.6678 25.5648C85.1281 24.9623 83.8011 24.1197 82.6762 23.0389L81.2906 24.4811C82.6137 25.7523 84.1667 26.7337 85.939 27.4272L86.6678 25.5648ZM82.6762 23.0389C81.5485 21.9554 80.6633 20.6843 80.0189 19.2177L78.1879 20.0223C78.9355 21.7237 79.9704 23.2127 81.2906 24.4811L82.6762 23.0389ZM80.024 19.2295C79.4095 17.781 79.0954 16.1755 79.0954 14.4H77.0954C77.0954 16.4165 77.4533 18.291 78.1828 20.0105L80.024 19.2295ZM79.0954 14.4C79.0954 12.6245 79.4095 11.019 80.024 9.57055L78.1828 8.78945C77.4533 10.509 77.0954 12.3835 77.0954 14.4H79.0954ZM80.0189 9.58227C80.6633 8.11573 81.5485 6.84465 82.6762 5.7611L81.2906 4.31889C79.9704 5.58735 78.9355 7.07627 78.1879 8.77773L80.0189 9.58227ZM82.6692 5.76779C83.8179 4.68538 85.1557 3.85467 86.692 3.27577L85.9868 1.40423C84.2111 2.07332 82.6449 3.04262 81.2976 4.31221L82.6692 5.76779ZM86.7038 3.27124C88.2319 2.67328 89.9188 2.368 91.7754 2.368V0.368C89.696 0.368 87.7589 0.710713 85.975 1.40875L86.7038 3.27124ZM91.7754 2.368C93.8407 2.368 95.6692 2.73069 97.2779 3.43587L98.0809 1.60413C96.1856 0.773314 94.0781 0.368 91.7754 0.368V2.368ZM97.293 3.44234C98.9211 4.12437 100.275 5.13047 101.37 6.46593L102.917 5.19807C101.611 3.60553 99.9897 2.40363 98.0658 1.59766L97.293 3.44234ZM101.465 5.0972L97.7211 8.5532L99.0777 10.0228L102.822 6.5668L101.465 5.0972ZM99.1508 8.6282C98.2054 7.55144 97.1339 6.72741 95.9332 6.18163L95.1056 8.00237C96.0169 8.41659 96.8654 9.05656 97.648 9.9478L99.1508 8.6282ZM95.9501 6.18952C94.7508 5.61709 93.4503 5.336 92.0634 5.336V7.336C93.1725 7.336 94.176 7.55891 95.0887 7.99448L95.9501 6.18952ZM92.0634 5.336C90.7771 5.336 89.5722 5.54636 88.4599 5.98042L89.187 7.84358C90.0427 7.50964 90.9977 7.336 92.0634 7.336V5.336ZM88.4599 5.98042C87.352 6.41277 86.3817 7.03945 85.5603 7.86089L86.9745 9.27511C87.5931 8.65655 88.3268 8.17923 89.187 7.84358L88.4599 5.98042ZM85.5603 7.86089C84.7433 8.67793 84.1076 9.64148 83.6517 10.741L85.4991 11.507C85.8593 10.6385 86.3515 9.89807 86.9745 9.27511L85.5603 7.86089ZM83.6438 10.7605C83.2089 11.875 82.9994 13.0924 82.9994 14.4H84.9994C84.9994 13.3076 85.1739 12.341 85.507 11.4875L83.6438 10.7605ZM82.9994 14.4C82.9994 15.7076 83.2089 16.925 83.6438 18.0395L85.507 17.3125C85.1739 16.459 84.9994 15.4924 84.9994 14.4H82.9994ZM83.6517 18.059C84.1076 19.1585 84.7433 20.1221 85.5603 20.9391L86.9745 19.5249C86.3515 18.9019 85.8593 18.1615 85.4991 17.293L83.6517 18.059ZM85.5603 20.9391C86.3817 21.7605 87.352 22.3872 88.4599 22.8196L89.187 20.9564C88.3268 20.6208 87.5931 20.1435 86.9745 19.5249L85.5603 20.9391ZM88.4599 22.8196C89.5722 23.2536 90.7771 23.464 92.0634 23.464V21.464C90.9977 21.464 90.0427 21.2904 89.187 20.9564L88.4599 22.8196ZM92.0634 23.464C93.4432 23.464 94.7376 23.1978 95.9332 22.6544L95.1056 20.8336C94.1892 21.2502 93.1797 21.464 92.0634 21.464V23.464ZM95.9501 22.6465C97.1479 22.0748 98.2161 21.2264 99.1587 20.1268L97.6402 18.8252C96.8547 19.7416 96.0029 20.4052 95.0887 20.8415L95.9501 22.6465ZM97.7211 20.2108L101.465 23.6668L102.822 22.1972L99.0777 18.7412L97.7211 20.2108ZM101.37 22.2981C100.273 23.636 98.9155 24.656 97.2825 25.3621L98.0763 27.1979C99.9953 26.368 101.613 25.156 102.917 23.5659L101.37 22.2981ZM97.2779 25.3641C95.6706 26.0687 93.8304 26.432 91.7394 26.432V28.432C94.0644 28.432 96.1843 28.0273 98.0809 27.1959L97.2779 25.3641ZM102.313 27L101.399 26.5929L100.772 28H102.313V27ZM113.545 1.8V0.799998H112.896L112.631 1.39289L113.545 1.8ZM119.305 1.8L120.218 1.3918L119.953 0.799998H119.305V1.8ZM130.573 27V28H132.115L131.486 26.5918L130.573 27ZM124.453 27L123.529 27.3827L123.785 28H124.453V27ZM115.237 4.752V3.752H113.74L114.313 5.1347L115.237 4.752ZM117.541 4.752L118.464 5.13598L119.04 3.752H117.541V4.752ZM108.289 27V28H108.956L109.212 27.384L108.289 27ZM107.929 21.6L106.985 21.27L106.52 22.6H107.929V21.6ZM109.477 17.172V16.172H108.767L108.533 16.842L109.477 17.172ZM122.437 17.172L123.378 16.8352L123.141 16.172H122.437V17.172ZM124.021 21.6V22.6H125.44L124.962 21.2632L124.021 21.6ZM103.226 27.4071L114.458 2.2071L112.631 1.39289L101.399 26.5929L103.226 27.4071ZM113.545 2.8H119.305V0.799998H113.545V2.8ZM118.392 2.20819L129.66 27.4082L131.486 26.5918L120.218 1.3918L118.392 2.20819ZM130.573 26H124.453V28H130.573V26ZM125.377 26.6173L116.161 4.3693L114.313 5.1347L123.529 27.3827L125.377 26.6173ZM115.237 5.752H117.541V3.752H115.237V5.752ZM116.617 4.36802L107.365 26.616L109.212 27.384L118.464 5.13598L116.617 4.36802ZM108.289 26H102.313V28H108.289V26ZM108.873 21.93L110.421 17.502L108.533 16.842L106.985 21.27L108.873 21.93ZM109.477 18.172H122.437V16.172H109.477V18.172ZM121.495 17.5088L123.079 21.9368L124.962 21.2632L123.378 16.8352L121.495 17.5088ZM124.021 20.6H107.929V22.6H124.021V20.6ZM133.187 27H132.187V28H133.187V27ZM133.187 1.8V0.799998H132.187V1.8H133.187ZM138.011 1.8L138.785 1.16618L138.485 0.799998H138.011V1.8ZM152.879 19.944V20.944H154.992L153.653 19.3102L152.879 19.944ZM150.539 19.944H149.539V20.944H150.539V19.944ZM150.539 1.8V0.799998H149.539V1.8H150.539ZM156.299 1.8H157.299V0.799998H156.299V1.8ZM156.299 27V28H157.299V27H156.299ZM151.511 27L150.738 27.6347L151.039 28H151.511V27ZM136.607 8.856V7.856H134.492L135.834 9.49074L136.607 8.856ZM138.947 8.856H139.947V7.856H138.947V8.856ZM138.947 27V28H139.947V27H138.947ZM134.187 27V1.8H132.187V27H134.187ZM133.187 2.8H138.011V0.799998H133.187V2.8ZM137.238 2.43382L152.106 20.5778L153.653 19.3102L138.785 1.16618L137.238 2.43382ZM152.879 18.944H150.539V20.944H152.879V18.944ZM151.539 19.944V1.8H149.539V19.944H151.539ZM150.539 2.8H156.299V0.799998H150.539V2.8ZM155.299 1.8V27H157.299V1.8H155.299ZM156.299 26H151.511V28H156.299V26ZM152.284 26.3653L137.38 8.22126L135.834 9.49074L150.738 27.6347L152.284 26.3653ZM136.607 9.856H138.947V7.856H136.607V9.856ZM137.947 8.856V27H139.947V8.856H137.947ZM138.947 26H133.187V28H138.947V26ZM179.153 26.46L178.793 27.393L178.797 27.3947L179.153 26.46ZM174.761 23.724L174.068 24.4451L174.075 24.4518L174.761 23.724ZM171.881 19.584L170.96 19.9746L170.965 19.9863L171.881 19.584ZM171.881 9.216L170.965 8.81369L170.96 8.82545L171.881 9.216ZM179.189 2.34L178.829 1.407L179.189 2.34ZM190.133 2.34L189.768 3.27125L189.773 3.273L190.133 2.34ZM194.489 5.076L193.796 5.79714L193.803 5.80379L194.489 5.076ZM197.405 9.216L196.489 9.61828L196.492 9.62344L197.405 9.216ZM197.405 19.62L198.32 20.0223L198.322 20.0172L197.405 19.62ZM194.489 23.76L195.174 24.4882L195.175 24.4878L194.489 23.76ZM190.133 26.46L189.773 25.527L189.768 25.5288L190.133 26.46ZM187.757 21.888L187.385 20.9595L187.377 20.9628L187.757 21.888ZM190.277 20.232L189.57 19.5249L190.277 20.232ZM191.933 17.676L191.009 17.293L191.005 17.3027L191.001 17.3125L191.933 17.676ZM191.933 11.124L191.001 11.4875L191.005 11.4973L191.009 11.507L191.933 11.124ZM190.277 8.568L189.558 9.26302L189.564 9.26911L189.57 9.27511L190.277 8.568ZM187.793 6.912L187.421 7.84048L187.793 6.912ZM181.529 6.912L181.157 5.98349L181.149 5.98683L181.529 6.912ZM179.045 8.568L179.752 9.27511L179.045 8.568ZM177.353 11.124L176.429 10.741L176.425 10.7507L176.421 10.7605L177.353 11.124ZM177.353 17.676L176.418 18.032L176.423 18.0456L176.429 18.059L177.353 17.676ZM179.009 20.232L178.29 20.927L178.296 20.9331L178.302 20.9391L179.009 20.232ZM181.529 21.888L181.157 22.8165L181.529 21.888ZM184.697 26.432C182.815 26.432 181.089 26.1263 179.508 25.5253L178.797 27.3947C180.625 28.0897 182.595 28.432 184.697 28.432V26.432ZM179.513 25.527C177.947 24.9233 176.596 24.0789 175.447 22.9962L174.075 24.4518C175.422 25.7211 176.998 26.7007 178.793 27.393L179.513 25.527ZM175.454 23.0029C174.326 21.9194 173.441 20.6483 172.796 19.1817L170.965 19.9863C171.713 21.6877 172.748 23.1766 174.068 24.4451L175.454 23.0029ZM172.801 19.1934C172.186 17.7435 171.873 16.1497 171.873 14.4H169.873C169.873 16.3943 170.231 18.2565 170.96 19.9746L172.801 19.1934ZM171.873 14.4C171.873 12.6503 172.186 11.0565 172.801 9.60655L170.96 8.82545C170.231 10.5435 169.873 12.4057 169.873 14.4H171.873ZM172.796 9.61827C173.439 8.15595 174.333 6.88694 175.483 5.80379L174.111 4.34821C172.764 5.61705 171.715 7.10804 170.965 8.81373L172.796 9.61827ZM175.483 5.80379C176.632 4.72108 177.983 3.87673 179.549 3.273L178.829 1.407C177.034 2.09926 175.458 3.07892 174.111 4.34821L175.483 5.80379ZM179.549 3.273C181.104 2.67323 182.804 2.368 184.661 2.368V0.368C182.581 0.368 180.634 0.710767 178.829 1.407L179.549 3.273ZM184.661 2.368C186.543 2.368 188.242 2.67382 189.768 3.27124L190.497 1.40875C188.712 0.71018 186.763 0.368 184.661 0.368V2.368ZM189.773 3.273C191.337 3.87614 192.673 4.71867 193.796 5.7971L195.182 4.35489C193.856 3.08133 192.289 2.09986 190.493 1.407L189.773 3.273ZM193.803 5.80379C194.952 6.88694 195.847 8.15595 196.489 9.61827L198.32 8.81373C197.571 7.10804 196.521 5.61705 195.175 4.34821L193.803 5.80379ZM196.492 9.62344C197.124 11.0418 197.449 12.6289 197.449 14.4H199.449C199.449 12.3791 199.077 10.5102 198.318 8.80856L196.492 9.62344ZM197.449 14.4C197.449 16.1448 197.125 17.7486 196.487 19.2228L198.322 20.0172C199.076 18.2754 199.449 16.3992 199.449 14.4H197.449ZM196.489 19.2177C195.847 20.68 194.952 21.9491 193.803 23.0322L195.175 24.4878C196.521 23.2189 197.571 21.728 198.32 20.0223L196.489 19.2177ZM193.803 23.0318C192.68 24.0889 191.341 24.9222 189.773 25.527L190.493 27.393C192.285 26.7018 193.849 25.7351 195.174 24.4882L193.803 23.0318ZM189.768 25.5288C188.24 26.1267 186.553 26.432 184.697 26.432V28.432C186.776 28.432 188.713 28.0893 190.497 27.3912L189.768 25.5288ZM184.661 23.464C185.904 23.464 187.067 23.252 188.136 22.8132L187.377 20.9628C186.575 21.292 185.674 21.464 184.661 21.464V23.464ZM188.128 22.8165C189.212 22.383 190.167 21.7564 190.984 20.9391L189.57 19.5249C188.947 20.1476 188.222 20.625 187.385 20.9595L188.128 22.8165ZM190.984 20.9391C191.805 20.1177 192.432 19.1474 192.864 18.0395L191.001 17.3125C190.666 18.1726 190.188 18.9063 189.57 19.5249L190.984 20.9391ZM192.856 18.059C193.321 16.9392 193.545 15.7149 193.545 14.4H191.545C191.545 15.4851 191.361 16.4448 191.009 17.293L192.856 18.059ZM193.545 14.4C193.545 13.0851 193.321 11.8608 192.856 10.741L191.009 11.507C191.361 12.3552 191.545 13.3149 191.545 14.4H193.545ZM192.864 10.7605C192.432 9.65257 191.805 8.68233 190.984 7.86089L189.57 9.27511C190.188 9.89367 190.666 10.6274 191.001 11.4875L192.864 10.7605ZM190.996 7.87298C190.198 7.04817 189.251 6.41819 188.164 5.98352L187.421 7.84048C188.255 8.17381 188.963 8.64783 189.558 9.26302L190.996 7.87298ZM188.164 5.98352C187.076 5.54814 185.904 5.336 184.661 5.336V7.336C185.673 7.336 186.59 7.50786 187.421 7.84048L188.164 5.98352ZM184.661 5.336C183.417 5.336 182.246 5.54814 181.157 5.98352L181.9 7.84048C182.732 7.50786 183.648 7.336 184.661 7.336V5.336ZM181.149 5.98683C180.09 6.42144 179.151 7.04785 178.338 7.86089L179.752 9.27511C180.379 8.64815 181.096 8.17056 181.908 7.83717L181.149 5.98683ZM178.338 7.86089C177.521 8.67793 176.885 9.64148 176.429 10.741L178.276 11.507C178.637 10.6385 179.129 9.89807 179.752 9.27511L178.338 7.86089ZM176.421 10.7605C175.986 11.875 175.777 13.0924 175.777 14.4H177.777C177.777 13.3076 177.951 12.341 178.284 11.4875L176.421 10.7605ZM175.777 14.4C175.777 15.6867 175.987 16.9005 176.418 18.032L178.287 17.32C177.95 16.4355 177.777 15.4653 177.777 14.4H175.777ZM176.429 18.059C176.882 19.1515 177.501 20.1112 178.29 20.927L179.728 19.537C179.124 18.9128 178.64 18.1685 178.276 17.293L176.429 18.059ZM178.302 20.9391C179.119 21.7564 180.074 22.383 181.157 22.8165L181.9 20.9595C181.064 20.625 180.339 20.1476 179.716 19.5249L178.302 20.9391ZM181.157 22.8165C182.246 23.2519 183.417 23.464 184.661 23.464V21.464C183.648 21.464 182.732 21.2921 181.9 20.9595L181.157 22.8165ZM202.832 27H201.832V28H202.832V27ZM202.832 1.8V0.799998H201.832V1.8H202.832ZM219.572 2.916L219.157 3.82597L219.168 3.83092L219.572 2.916ZM223.352 6.048L222.513 6.59247L223.352 6.048ZM223.352 15.804L224.186 16.3553L224.191 16.3485L223.352 15.804ZM219.572 18.9L219.975 19.8149L219.572 18.9ZM206.072 19.98L205.37 19.268L203.633 20.98H206.072V19.98ZM208.664 17.424H209.664V15.0335L207.962 16.712L208.664 17.424ZM208.664 27V28H209.664V27H208.664ZM218.852 27L218.028 27.5674L218.326 28H218.852V27ZM212.552 17.856V16.856H210.648L211.728 18.4234L212.552 17.856ZM218.78 17.856L219.6 17.2843L219.302 16.856H218.78V17.856ZM225.152 27V28H227.067L225.972 26.4283L225.152 27ZM208.664 18.072L207.938 18.7597L209.664 20.5816V18.072H208.664ZM206.072 15.336V14.336H203.747L205.346 16.0237L206.072 15.336ZM217.448 14.184L218.102 14.9404L218.108 14.9354L218.113 14.9303L217.448 14.184ZM206.072 6.552L205.341 5.86901L203.768 7.552H206.072V6.552ZM208.664 3.78H209.664V1.24641L207.933 3.097L208.664 3.78ZM203.832 27V1.8H201.832V27H203.832ZM202.832 2.8H213.74V0.799998H202.832V2.8ZM213.74 2.8C215.888 2.8 217.684 3.15451 219.157 3.82591L219.987 2.00609C218.195 1.18949 216.103 0.799998 213.74 0.799998V2.8ZM219.168 3.83092C220.639 4.48005 221.741 5.40287 222.513 6.59247L224.191 5.50353C223.187 3.95712 221.768 2.79195 219.975 2.00108L219.168 3.83092ZM222.513 6.59247C223.28 7.7734 223.684 9.20916 223.684 10.944H225.684C225.684 8.88684 225.2 7.0586 224.191 5.50353L222.513 6.59247ZM223.684 10.944C223.684 12.652 223.281 14.0766 222.513 15.2595L224.191 16.3485C225.199 14.7954 225.684 12.98 225.684 10.944H223.684ZM222.517 15.2527C221.746 16.4198 220.644 17.3339 219.168 17.9851L219.975 19.8149C221.763 19.0261 223.181 17.8762 224.186 16.3553L222.517 15.2527ZM219.168 17.9851C217.692 18.6362 215.892 18.98 213.74 18.98V20.98C216.099 20.98 218.187 20.6038 219.975 19.8149L219.168 17.9851ZM213.74 18.98H206.072V20.98H213.74V18.98ZM206.774 20.692L209.366 18.136L207.962 16.712L205.37 19.268L206.774 20.692ZM207.664 17.424V27H209.664V17.424H207.664ZM208.664 26H202.832V28H208.664V26ZM219.675 26.4326L213.375 17.2886L211.728 18.4234L218.028 27.5674L219.675 26.4326ZM212.552 18.856H218.78V16.856H212.552V18.856ZM217.959 18.4277L224.331 27.5717L225.972 26.4283L219.6 17.2843L217.959 18.4277ZM225.152 26H218.852V28H225.152V26ZM209.39 17.3843L206.798 14.6483L205.346 16.0237L207.938 18.7597L209.39 17.3843ZM206.072 16.336H213.416V14.336H206.072V16.336ZM213.416 16.336C215.333 16.336 216.957 15.9306 218.102 14.9404L216.794 13.4276C216.163 13.9734 215.098 14.336 213.416 14.336V16.336ZM218.113 14.9303C219.247 13.9193 219.78 12.5499 219.78 10.944H217.78C217.78 12.0741 217.425 12.8647 216.782 13.4377L218.113 14.9303ZM219.78 10.944C219.78 9.32094 219.251 7.94123 218.102 6.94764L216.794 8.46036C217.421 9.00277 217.78 9.78306 217.78 10.944H219.78ZM218.102 6.94764C216.957 5.95739 215.333 5.552 213.416 5.552V7.552C215.098 7.552 216.163 7.91461 216.794 8.46036L218.102 6.94764ZM213.416 5.552H206.072V7.552H213.416V5.552ZM206.802 7.23499L209.394 4.46299L207.933 3.097L205.341 5.86901L206.802 7.23499ZM207.664 3.78V18.072H209.664V3.78H207.664ZM235.964 26.496L235.6 27.4272L235.608 27.4304L235.616 27.4334L235.964 26.496ZM231.608 23.76L230.916 24.4811L230.923 24.4878L231.608 23.76ZM228.728 19.62L227.808 20.0106L227.813 20.0223L228.728 19.62ZM228.728 9.18L227.813 8.77769L227.808 8.78945L228.728 9.18ZM231.644 5.04L232.33 5.76779V5.76779L231.644 5.04ZM236.036 2.34L236.385 3.2775L236.396 3.273L236.036 2.34ZM247.592 2.484L247.206 3.40635L247.21 3.40816L247.592 2.484ZM252.128 5.724L252.807 6.4588L253.518 5.8023L252.885 5.07005L252.128 5.724ZM248.384 9.18L247.659 9.86875L248.338 10.5834L249.063 9.9148L248.384 9.18ZM245.396 7.056L244.99 7.96981L244.999 7.97361L245.007 7.97725L245.396 7.056ZM235.892 8.568L235.197 7.8494L235.191 7.8551L235.185 7.86089L235.892 8.568ZM234.2 11.124L233.277 10.741L233.273 10.7507L233.269 10.7605L234.2 11.124ZM234.2 17.64L233.269 18.0035L233.273 18.0133L233.277 18.023L234.2 17.64ZM235.892 20.232L235.174 20.9274L235.185 20.9392L235.197 20.9506L235.892 20.232ZM238.484 21.888L238.121 22.8196L238.128 22.8225L238.484 21.888ZM245.144 21.924L245.461 22.8728L245.473 22.8685L245.144 21.924ZM248.348 20.016L249.134 19.3979L248.488 18.5763L247.696 19.258L248.348 20.016ZM251.66 24.228L252.263 25.0263L253.077 24.4119L252.446 23.6099L251.66 24.228ZM246.872 26.604L246.583 25.6469L246.579 25.6479L246.872 26.604ZM246.332 23.472H245.332V24.3401L246.192 24.4621L246.332 23.472ZM246.332 14.004V13.004H245.332V14.004H246.332ZM251.66 14.004H252.66V13.004H251.66V14.004ZM251.66 24.228L251.52 25.2181L252.66 25.3799V24.228H251.66ZM241.472 26.432C239.586 26.432 237.869 26.1368 236.313 25.5586L235.616 27.4334C237.419 28.1032 239.375 28.432 241.472 28.432V26.432ZM236.329 25.5648C234.787 24.9616 233.446 24.1172 232.294 23.0322L230.923 24.4878C232.267 25.7548 233.829 26.7344 235.6 27.4272L236.329 25.5648ZM232.301 23.0389C231.173 21.9554 230.288 20.6843 229.644 19.2177L227.813 20.0223C228.561 21.7237 229.595 23.2127 230.916 24.4811L232.301 23.0389ZM229.649 19.2295C229.035 17.781 228.72 16.1755 228.72 14.4H226.72C226.72 16.4165 227.078 18.291 227.808 20.0105L229.649 19.2295ZM228.72 14.4C228.72 12.6245 229.035 11.019 229.649 9.57055L227.808 8.78945C227.078 10.509 226.72 12.3835 226.72 14.4H228.72ZM229.644 9.58227C230.286 8.11995 231.181 6.85094 232.33 5.76779L230.959 4.31221C229.612 5.58105 228.562 7.07204 227.813 8.77773L229.644 9.58227ZM232.33 5.76779C233.476 4.68768 234.824 3.85698 236.385 3.27742L235.688 1.40257C233.889 2.07102 232.308 3.04032 230.959 4.31221L232.33 5.76779ZM236.396 3.273C237.949 2.67427 239.673 2.368 241.58 2.368V0.368C239.456 0.368 237.484 0.70973 235.677 1.407L236.396 3.273ZM241.58 2.368C243.701 2.368 245.57 2.7211 247.206 3.40634L247.979 1.56166C246.063 0.758902 243.924 0.368 241.58 0.368V2.368ZM247.21 3.40816C248.872 4.09505 250.254 5.08486 251.372 6.37795L252.885 5.07005C251.555 3.53114 249.913 2.36095 247.974 1.55983L247.21 3.40816ZM251.45 4.9892L247.706 8.4452L249.063 9.9148L252.807 6.4588L251.45 4.9892ZM249.109 8.49125C248.115 7.44436 247.008 6.65081 245.785 6.13475L245.007 7.97725C245.945 8.37318 246.83 8.99564 247.659 9.86875L249.109 8.49125ZM245.803 6.14219C244.585 5.60113 243.27 5.336 241.868 5.336V7.336C243.011 7.336 244.048 7.55087 244.99 7.96981L245.803 6.14219ZM241.868 5.336C240.539 5.336 239.3 5.54477 238.164 5.97751L238.876 7.84649C239.756 7.51123 240.75 7.336 241.868 7.336V5.336ZM238.164 5.97751C237.035 6.40768 236.042 7.03124 235.197 7.8494L236.588 9.2866C237.23 8.66475 237.99 8.18432 238.876 7.84649L238.164 5.97751ZM235.185 7.86089C234.368 8.67793 233.733 9.64148 233.277 10.741L235.124 11.507C235.484 10.6385 235.977 9.89807 236.6 9.27511L235.185 7.86089ZM233.269 10.7605C232.834 11.875 232.624 13.0924 232.624 14.4H234.624C234.624 13.3076 234.799 12.341 235.132 11.4875L233.269 10.7605ZM232.624 14.4C232.624 15.6863 232.835 16.8913 233.269 18.0035L235.132 17.2765C234.798 16.4207 234.624 15.4657 234.624 14.4H232.624ZM233.277 18.023C233.731 19.1197 234.364 20.0905 235.174 20.9274L236.611 19.5366C235.981 18.8855 235.485 18.1283 235.124 17.257L233.277 18.023ZM235.197 20.9506C236.038 21.7648 237.016 22.3883 238.121 22.8196L238.848 20.9564C237.985 20.6197 237.234 20.1392 236.588 19.5134L235.197 20.9506ZM238.128 22.8225C239.262 23.2544 240.488 23.464 241.796 23.464V21.464C240.704 21.464 239.723 21.2896 238.84 20.9535L238.128 22.8225ZM241.796 23.464C243.055 23.464 244.277 23.2671 245.461 22.8727L244.828 20.9753C243.851 21.3009 242.842 21.464 241.796 21.464V23.464ZM245.473 22.8685C246.713 22.437 247.889 21.7307 249.001 20.774L247.696 19.258C246.744 20.0773 245.783 20.643 244.816 20.9795L245.473 22.8685ZM247.562 20.6341L250.874 24.8461L252.446 23.6099L249.134 19.3979L247.562 20.6341ZM251.058 23.4297C249.794 24.3832 248.307 25.1252 246.583 25.6469L247.162 27.5611C249.086 26.9788 250.791 26.1368 252.263 25.0263L251.058 23.4297ZM246.579 25.6479C244.87 26.1722 243.169 26.432 241.472 26.432V28.432C243.376 28.432 245.275 28.1398 247.166 27.5601L246.579 25.6479ZM247.332 23.472V14.004H245.332V23.472H247.332ZM246.332 15.004H251.66V13.004H246.332V15.004ZM250.66 14.004V24.228H252.66V14.004H250.66ZM251.801 23.2379L246.473 22.4819L246.192 24.4621L251.52 25.2181L251.801 23.2379ZM253.766 27L252.852 26.5929L252.225 28H253.766V27ZM264.998 1.8V0.799998H264.349L264.084 1.39289L264.998 1.8ZM270.758 1.8L271.671 1.3918L271.406 0.799998H270.758V1.8ZM282.026 27V28H283.568L282.939 26.5918L282.026 27ZM275.906 27L274.982 27.3827L275.238 28H275.906V27ZM266.69 4.752V3.752H265.193L265.766 5.1347L266.69 4.752ZM268.994 4.752L269.917 5.13598L270.493 3.752H268.994V4.752ZM259.742 27V28H260.409L260.665 27.384L259.742 27ZM259.382 21.6L258.438 21.27L257.973 22.6H259.382V21.6ZM260.93 17.172V16.172H260.22L259.986 16.842L260.93 17.172ZM273.89 17.172L274.831 16.8352L274.594 16.172H273.89V17.172ZM275.474 21.6V22.6H276.894L276.415 21.2632L275.474 21.6ZM254.679 27.4071L265.911 2.2071L264.084 1.39289L252.852 26.5929L254.679 27.4071ZM264.998 2.8H270.758V0.799998H264.998V2.8ZM269.845 2.20819L281.113 27.4082L282.939 26.5918L271.671 1.3918L269.845 2.20819ZM282.026 26H275.906V28H282.026V26ZM276.83 26.6173L267.614 4.3693L265.766 5.1347L274.982 27.3827L276.83 26.6173ZM266.69 5.752H268.994V3.752H266.69V5.752ZM268.07 4.36802L258.819 26.616L260.665 27.384L269.917 5.13598L268.07 4.36802ZM259.742 26H253.766V28H259.742V26ZM260.326 21.93L261.874 17.502L259.986 16.842L258.438 21.27L260.326 21.93ZM260.93 18.172H273.89V16.172H260.93V18.172ZM272.948 17.5088L274.532 21.9368L276.415 21.2632L274.831 16.8352L272.948 17.5088ZM275.474 20.6H259.382V22.6H275.474V20.6ZM284.64 27H283.64V28H284.64V27ZM284.64 1.8V0.799998H283.64V1.8H284.64ZM289.464 1.8L290.238 1.16618L289.938 0.799998H289.464V1.8ZM304.332 19.944V20.944H306.445L305.106 19.3102L304.332 19.944ZM301.992 19.944H300.992V20.944H301.992V19.944ZM301.992 1.8V0.799998H300.992V1.8H301.992ZM307.752 1.8H308.752V0.799998H307.752V1.8ZM307.752 27V28H308.752V27H307.752ZM302.964 27L302.192 27.6347L302.492 28H302.964V27ZM288.06 8.856V7.856H285.945L287.288 9.49074L288.06 8.856ZM290.4 8.856H291.4V7.856H290.4V8.856ZM290.4 27V28H291.4V27H290.4ZM285.64 27V1.8H283.64V27H285.64ZM284.64 2.8H289.464V0.799998H284.64V2.8ZM288.691 2.43382L303.559 20.5778L305.106 19.3102L290.238 1.16618L288.691 2.43382ZM304.332 18.944H301.992V20.944H304.332V18.944ZM302.992 19.944V1.8H300.992V19.944H302.992ZM301.992 2.8H307.752V0.799998H301.992V2.8ZM306.752 1.8V27H308.752V1.8H306.752ZM307.752 26H302.964V28H307.752V26ZM303.737 26.3653L288.833 8.22126L287.288 9.49074L302.192 27.6347L303.737 26.3653ZM288.06 9.856H290.4V7.856H288.06V9.856ZM289.4 8.856V27H291.4V8.856H289.4ZM290.4 26H284.64V28H290.4V26ZM313.715 27H312.715V28H313.715V27ZM313.715 1.8V0.799998H312.715V1.8H313.715ZM319.547 1.8H320.547V0.799998H319.547V1.8ZM319.547 27V28H320.547V27H319.547ZM314.715 27V1.8H312.715V27H314.715ZM313.715 2.8H319.547V0.799998H313.715V2.8ZM318.547 1.8V27H320.547V1.8H318.547ZM319.547 26H313.715V28H319.547V26ZM323.907 27H322.907V28H323.907V27ZM323.907 23.22L323.137 22.5816L322.907 22.8592V23.22H323.907ZM339.495 4.428L340.442 4.10696L339.868 2.41244L338.725 3.78956L339.495 4.428ZM340.215 6.552V7.552H341.61L341.162 6.23096L340.215 6.552ZM324.195 6.552H323.195V7.552H324.195V6.552ZM324.195 1.8V0.799998H323.195V1.8H324.195ZM345.399 1.8H346.399V0.799998H345.399V1.8ZM345.399 5.58L346.169 6.21757L346.399 5.94013V5.58H345.399ZM329.847 24.372L328.9 24.693L329.475 26.3898L330.617 25.0096L329.847 24.372ZM329.127 22.248V21.248H327.732L328.18 22.569L329.127 22.248ZM345.939 22.248H346.939V21.248H345.939V22.248ZM345.939 27V28H346.939V27H345.939ZM324.907 27V23.22H322.907V27H324.907ZM324.677 23.8584L340.265 5.06644L338.725 3.78956L323.137 22.5816L324.677 23.8584ZM338.548 4.74904L339.268 6.87304L341.162 6.23096L340.442 4.10696L338.548 4.74904ZM340.215 5.552H324.195V7.552H340.215V5.552ZM325.195 6.552V1.8H323.195V6.552H325.195ZM324.195 2.8H345.399V0.799998H324.195V2.8ZM344.399 1.8V5.58H346.399V1.8H344.399ZM344.629 4.94243L329.077 23.7344L330.617 25.0096L346.169 6.21757L344.629 4.94243ZM330.794 24.051L330.074 21.927L328.18 22.569L328.9 24.693L330.794 24.051ZM329.127 23.248H345.939V21.248H329.127V23.248ZM344.939 22.248V27H346.939V22.248H344.939ZM345.939 26H323.907V28H345.939V26ZM355.043 11.952V10.952H354.043V11.952H355.043ZM367.175 11.952H368.175V10.952H367.175V11.952ZM367.175 16.488V17.488H368.175V16.488H367.175ZM355.043 16.488H354.043V17.488H355.043V16.488ZM355.475 22.32H354.475V23.32H355.475V22.32ZM369.191 22.32H370.191V21.32H369.191V22.32ZM369.191 27V28H370.191V27H369.191ZM349.679 27H348.679V28H349.679V27ZM349.679 1.8V0.799998H348.679V1.8H349.679ZM368.723 1.8H369.723V0.799998H368.723V1.8ZM368.723 6.48V7.48H369.723V6.48H368.723ZM355.475 6.48V5.48H354.475V6.48H355.475ZM355.043 12.952H367.175V10.952H355.043V12.952ZM366.175 11.952V16.488H368.175V11.952H366.175ZM367.175 15.488H355.043V17.488H367.175V15.488ZM356.043 16.488V11.952H354.043V16.488H356.043ZM355.475 23.32H369.191V21.32H355.475V23.32ZM368.191 22.32V27H370.191V22.32H368.191ZM369.191 26H349.679V28H369.191V26ZM350.679 27V1.8H348.679V27H350.679ZM349.679 2.8H368.723V0.799998H349.679V2.8ZM367.723 1.8V6.48H369.723V1.8H367.723ZM368.723 5.48H355.475V7.48H368.723V5.48ZM354.475 6.48V22.32H356.475V6.48H354.475ZM389.391 11.952V10.952H388.391V11.952H389.391ZM401.523 11.952H402.523V10.952H401.523V11.952ZM401.523 16.488V17.488H402.523V16.488H401.523ZM389.391 16.488H388.391V17.488H389.391V16.488ZM389.823 22.32H388.823V23.32H389.823V22.32ZM403.539 22.32H404.539V21.32H403.539V22.32ZM403.539 27V28H404.539V27H403.539ZM384.027 27H383.027V28H384.027V27ZM384.027 1.8V0.799998H383.027V1.8H384.027ZM403.071 1.8H404.071V0.799998H403.071V1.8ZM403.071 6.48V7.48H404.071V6.48H403.071ZM389.823 6.48V5.48H388.823V6.48H389.823ZM389.391 12.952H401.523V10.952H389.391V12.952ZM400.523 11.952V16.488H402.523V11.952H400.523ZM401.523 15.488H389.391V17.488H401.523V15.488ZM390.391 16.488V11.952H388.391V16.488H390.391ZM389.823 23.32H403.539V21.32H389.823V23.32ZM402.539 22.32V27H404.539V22.32H402.539ZM403.539 26H384.027V28H403.539V26ZM385.027 27V1.8H383.027V27H385.027ZM384.027 2.8H403.071V0.799998H384.027V2.8ZM402.071 1.8V6.48H404.071V1.8H402.071ZM403.071 5.48H389.823V7.48H403.071V5.48ZM388.823 6.48V22.32H390.823V6.48H388.823ZM415.388 27L414.47 27.3961L414.73 28H415.388V27ZM404.516 1.8V0.799998H402.995L403.598 2.19613L404.516 1.8ZM410.816 1.8L411.736 1.40823L411.477 0.799998H410.816V1.8ZM420.32 24.12V25.12H421.833L421.24 23.7282L420.32 24.12ZM416.612 24.12L415.694 23.7232L415.09 25.12H416.612V24.12ZM426.26 1.8V0.799998H425.603L425.342 1.40322L426.26 1.8ZM432.056 1.8L432.974 2.19724L433.578 0.799998H432.056V1.8ZM421.148 27V28H421.805L422.066 27.3972L421.148 27ZM416.306 26.6039L405.434 1.40386L403.598 2.19613L414.47 27.3961L416.306 26.6039ZM404.516 2.8H410.816V0.799998H404.516V2.8ZM409.896 2.19177L419.4 24.5118L421.24 23.7282L411.736 1.40823L409.896 2.19177ZM420.32 23.12H416.612V25.12H420.32V23.12ZM417.53 24.5168L427.178 2.19677L425.342 1.40322L415.694 23.7232L417.53 24.5168ZM426.26 2.8H432.056V0.799998H426.26V2.8ZM431.138 1.40276L420.23 26.6028L422.066 27.3972L432.974 2.19724L431.138 1.40276ZM421.148 26H415.388V28H421.148V26ZM439.524 11.952V10.952H438.524V11.952H439.524ZM451.656 11.952H452.656V10.952H451.656V11.952ZM451.656 16.488V17.488H452.656V16.488H451.656ZM439.524 16.488H438.524V17.488H439.524V16.488ZM439.956 22.32H438.956V23.32H439.956V22.32ZM453.672 22.32H454.672V21.32H453.672V22.32ZM453.672 27V28H454.672V27H453.672ZM434.16 27H433.16V28H434.16V27ZM434.16 1.8V0.799998H433.16V1.8H434.16ZM453.204 1.8H454.204V0.799998H453.204V1.8ZM453.204 6.48V7.48H454.204V6.48H453.204ZM439.956 6.48V5.48H438.956V6.48H439.956ZM439.524 12.952H451.656V10.952H439.524V12.952ZM450.656 11.952V16.488H452.656V11.952H450.656ZM451.656 15.488H439.524V17.488H451.656V15.488ZM440.524 16.488V11.952H438.524V16.488H440.524ZM439.956 23.32H453.672V21.32H439.956V23.32ZM452.672 22.32V27H454.672V22.32H452.672ZM453.672 26H434.16V28H453.672V26ZM435.16 27V1.8H433.16V27H435.16ZM434.16 2.8H453.204V0.799998H434.16V2.8ZM452.204 1.8V6.48H454.204V1.8H452.204ZM453.204 5.48H439.956V7.48H453.204V5.48ZM438.956 6.48V22.32H440.956V6.48H438.956ZM458.312 27H457.312V28H458.312V27ZM458.312 1.8V0.799998H457.312V1.8H458.312ZM475.052 2.916L474.637 3.82597L474.649 3.83092L475.052 2.916ZM478.832 6.048L477.993 6.59247L478.832 6.048ZM478.832 15.804L479.667 16.3553L479.671 16.3485L478.832 15.804ZM475.052 18.9L475.456 19.8149L475.052 18.9ZM461.552 19.98L460.85 19.268L459.114 20.98H461.552V19.98ZM464.144 17.424H465.144V15.0335L463.442 16.712L464.144 17.424ZM464.144 27V28H465.144V27H464.144ZM474.332 27L473.509 27.5674L473.807 28H474.332V27ZM468.032 17.856V16.856H466.129L467.209 18.4234L468.032 17.856ZM474.26 17.856L475.081 17.2843L474.782 16.856H474.26V17.856ZM480.632 27V28H482.548L481.453 26.4283L480.632 27ZM464.144 18.072L463.418 18.7597L465.144 20.5816V18.072H464.144ZM461.552 15.336V14.336H459.227L460.826 16.0237L461.552 15.336ZM472.928 14.184L473.582 14.9404L473.588 14.9354L473.594 14.9303L472.928 14.184ZM461.552 6.552L460.822 5.86901L459.248 7.552H461.552V6.552ZM464.144 3.78H465.144V1.24641L463.414 3.097L464.144 3.78ZM459.312 27V1.8H457.312V27H459.312ZM458.312 2.8H469.22V0.799998H458.312V2.8ZM469.22 2.8C471.369 2.8 473.165 3.15451 474.637 3.82591L475.467 2.00609C473.676 1.18949 471.584 0.799998 469.22 0.799998V2.8ZM474.649 3.83092C476.12 4.48005 477.221 5.40287 477.993 6.59247L479.671 5.50353C478.667 3.95712 477.248 2.79195 475.456 2.00108L474.649 3.83092ZM477.993 6.59247C478.76 7.7734 479.164 9.20916 479.164 10.944H481.164C481.164 8.88684 480.68 7.0586 479.671 5.50353L477.993 6.59247ZM479.164 10.944C479.164 12.652 478.761 14.0766 477.993 15.2595L479.671 16.3485C480.679 14.7954 481.164 12.98 481.164 10.944H479.164ZM477.998 15.2527C477.227 16.4198 476.125 17.3339 474.649 17.9851L475.456 19.8149C477.244 19.0261 478.662 17.8762 479.667 16.3553L477.998 15.2527ZM474.649 17.9851C473.173 18.6362 471.373 18.98 469.22 18.98V20.98C471.58 20.98 473.668 20.6038 475.456 19.8149L474.649 17.9851ZM469.22 18.98H461.552V20.98H469.22V18.98ZM462.254 20.692L464.846 18.136L463.442 16.712L460.85 19.268L462.254 20.692ZM463.144 17.424V27H465.144V17.424H463.144ZM464.144 26H458.312V28H464.144V26ZM475.156 26.4326L468.856 17.2886L467.209 18.4234L473.509 27.5674L475.156 26.4326ZM468.032 18.856H474.26V16.856H468.032V18.856ZM473.44 18.4277L479.812 27.5717L481.453 26.4283L475.081 17.2843L473.44 18.4277ZM480.632 26H474.332V28H480.632V26ZM464.87 17.3843L462.278 14.6483L460.826 16.0237L463.418 18.7597L464.87 17.3843ZM461.552 16.336H468.896V14.336H461.552V16.336ZM468.896 16.336C470.814 16.336 472.437 15.9306 473.582 14.9404L472.274 13.4276C471.643 13.9734 470.579 14.336 468.896 14.336V16.336ZM473.594 14.9303C474.727 13.9193 475.26 12.5499 475.26 10.944H473.26C473.26 12.0741 472.905 12.8647 472.263 13.4377L473.594 14.9303ZM475.26 10.944C475.26 9.32094 474.731 7.94123 473.582 6.94764L472.274 8.46036C472.901 9.00277 473.26 9.78306 473.26 10.944H475.26ZM473.582 6.94764C472.437 5.95739 470.814 5.552 468.896 5.552V7.552C470.579 7.552 471.643 7.91461 472.274 8.46036L473.582 6.94764ZM468.896 5.552H461.552V7.552H468.896V5.552ZM462.283 7.23499L464.875 4.46299L463.414 3.097L460.822 5.86901L462.283 7.23499ZM463.144 3.78V18.072H465.144V3.78H463.144ZM490.697 27H489.697V28H490.697V27ZM490.697 16.704L491.633 16.3508L489.697 16.704H490.697ZM492.029 20.232L491.172 20.7475L492.965 19.8788L492.029 20.232ZM480.941 1.8V0.799998H479.173L480.084 2.31548L480.941 1.8ZM487.133 1.8L487.991 1.28518L487.699 0.799998H487.133V1.8ZM495.629 15.948V16.948H497.396L496.487 15.4332L495.629 15.948ZM492.065 15.948L491.209 15.4316L490.294 16.948H492.065V15.948ZM500.597 1.8V0.799998H500.033L499.741 1.28358L500.597 1.8ZM506.321 1.8L507.178 2.31548L508.09 0.799998H506.321V1.8ZM495.233 20.232L494.295 19.8872L496.09 20.7475L495.233 20.232ZM496.529 16.704H497.529L495.591 16.3592L496.529 16.704ZM496.529 27V28H497.529V27H496.529ZM491.697 27V16.704H489.697V27H491.697ZM489.762 17.0572L491.094 20.5852L492.965 19.8788L491.633 16.3508L489.762 17.0572ZM492.886 19.7165L481.798 1.28452L480.084 2.31548L491.172 20.7475L492.886 19.7165ZM480.941 2.8H487.133V0.799998H480.941V2.8ZM486.276 2.31481L494.772 16.4628L496.487 15.4332L487.991 1.28518L486.276 2.31481ZM495.629 14.948H492.065V16.948H495.629V14.948ZM492.922 16.4644L501.454 2.31642L499.741 1.28358L491.209 15.4316L492.922 16.4644ZM500.597 2.8H506.321V0.799998H500.597V2.8ZM505.464 1.28452L494.376 19.7165L496.09 20.7475L507.178 2.31548L505.464 1.28452ZM496.172 20.5768L497.468 17.0488L495.591 16.3592L494.295 19.8872L496.172 20.5768ZM495.529 16.704V27H497.529V16.704H495.529ZM496.529 26H490.697V28H496.529V26ZM513.489 27H512.489V28H513.489V27ZM513.489 6.552H514.489V5.552H513.489V6.552ZM505.425 6.552H504.425V7.552H505.425V6.552ZM505.425 1.8V0.799998H504.425V1.8H505.425ZM527.385 1.8H528.385V0.799998H527.385V1.8ZM527.385 6.552V7.552H528.385V6.552H527.385ZM519.321 6.552V5.552H518.321V6.552H519.321ZM519.321 27V28H520.321V27H519.321ZM514.489 27V6.552H512.489V27H514.489ZM513.489 5.552H505.425V7.552H513.489V5.552ZM506.425 6.552V1.8H504.425V6.552H506.425ZM505.425 2.8H527.385V0.799998H505.425V2.8ZM526.385 1.8V6.552H528.385V1.8H526.385ZM527.385 5.552H519.321V7.552H527.385V5.552ZM518.321 6.552V27H520.321V6.552H518.321ZM519.321 26H513.489V28H519.321V26ZM547.803 1.8V0.799998H546.803V1.8H547.803ZM553.635 1.8H554.635V0.799998H553.635V1.8ZM553.635 27V28H554.635V27H553.635ZM547.803 27H546.803V28H547.803V27ZM536.355 27V28H537.355V27H536.355ZM530.523 27H529.523V28H530.523V27ZM530.523 1.8V0.799998H529.523V1.8H530.523ZM536.355 1.8H537.355V0.799998H536.355V1.8ZM548.235 16.668V17.668H549.235V16.668H548.235ZM535.923 16.668H534.923V17.668H535.923V16.668ZM535.923 11.736V10.736H534.923V11.736H535.923ZM548.235 11.736H549.235V10.736H548.235V11.736ZM547.803 2.8H553.635V0.799998H547.803V2.8ZM552.635 1.8V27H554.635V1.8H552.635ZM553.635 26H547.803V28H553.635V26ZM548.803 27V1.8H546.803V27H548.803ZM536.355 26H530.523V28H536.355V26ZM531.523 27V1.8H529.523V27H531.523ZM530.523 2.8H536.355V0.799998H530.523V2.8ZM535.355 1.8V27H537.355V1.8H535.355ZM548.235 15.668H535.923V17.668H548.235V15.668ZM536.923 16.668V11.736H534.923V16.668H536.923ZM535.923 12.736H548.235V10.736H535.923V12.736ZM547.235 11.736V16.668H549.235V11.736H547.235ZM559.597 27H558.597V28H559.597V27ZM559.597 1.8V0.799998H558.597V1.8H559.597ZM565.429 1.8H566.429V0.799998H565.429V1.8ZM565.429 27V28H566.429V27H565.429ZM560.597 27V1.8H558.597V27H560.597ZM559.597 2.8H565.429V0.799998H559.597V2.8ZM564.429 1.8V27H566.429V1.8H564.429ZM565.429 26H559.597V28H565.429V26ZM571.41 27H570.41V28H571.41V27ZM571.41 1.8V0.799998H570.41V1.8H571.41ZM576.234 1.8L577.007 1.16618L576.707 0.799998H576.234V1.8ZM591.102 19.944V20.944H593.214L591.875 19.3102L591.102 19.944ZM588.762 19.944H587.762V20.944H588.762V19.944ZM588.762 1.8V0.799998H587.762V1.8H588.762ZM594.522 1.8H595.522V0.799998H594.522V1.8ZM594.522 27V28H595.522V27H594.522ZM589.734 27L588.961 27.6347L589.261 28H589.734V27ZM574.83 8.856V7.856H572.714L574.057 9.49074L574.83 8.856ZM577.17 8.856H578.17V7.856H577.17V8.856ZM577.17 27V28H578.17V27H577.17ZM572.41 27V1.8H570.41V27H572.41ZM571.41 2.8H576.234V0.799998H571.41V2.8ZM575.46 2.43382L590.328 20.5778L591.875 19.3102L577.007 1.16618L575.46 2.43382ZM591.102 18.944H588.762V20.944H591.102V18.944ZM589.762 19.944V1.8H587.762V19.944H589.762ZM588.762 2.8H594.522V0.799998H588.762V2.8ZM593.522 1.8V27H595.522V1.8H593.522ZM594.522 26H589.734V28H594.522V26ZM590.507 26.3653L575.603 8.22126L574.057 9.49074L588.961 27.6347L590.507 26.3653ZM574.83 9.856H577.17V7.856H574.83V9.856ZM576.17 8.856V27H578.17V8.856H576.17ZM577.17 26H571.41V28H577.17V26ZM607.144 26.496L606.78 27.4272L606.788 27.4304L606.796 27.4334L607.144 26.496ZM602.788 23.76L602.095 24.4811L602.102 24.4878L602.788 23.76ZM599.908 19.62L598.987 20.0106L598.993 20.0223L599.908 19.62ZM599.908 9.18L598.992 8.77769L598.987 8.78945L599.908 9.18ZM602.824 5.04L603.51 5.76779V5.76779L602.824 5.04ZM607.216 2.34L607.564 3.2775L607.576 3.273L607.216 2.34ZM618.772 2.484L618.386 3.40635L618.39 3.40816L618.772 2.484ZM623.308 5.724L623.986 6.4588L624.698 5.8023L624.065 5.07005L623.308 5.724ZM619.564 9.18L618.839 9.86875L619.518 10.5834L620.242 9.9148L619.564 9.18ZM616.576 7.056L616.17 7.96981L616.179 7.97361L616.187 7.97725L616.576 7.056ZM607.072 8.568L606.377 7.8494L606.371 7.8551L606.365 7.86089L607.072 8.568ZM605.38 11.124L604.456 10.741L604.452 10.7507L604.448 10.7605L605.38 11.124ZM605.38 17.64L604.448 18.0035L604.452 18.0133L604.456 18.023L605.38 17.64ZM607.072 20.232L606.354 20.9274L606.365 20.9392L606.377 20.9506L607.072 20.232ZM609.664 21.888L609.301 22.8196L609.308 22.8225L609.664 21.888ZM616.324 21.924L616.64 22.8728L616.653 22.8685L616.324 21.924ZM619.528 20.016L620.314 19.3979L619.668 18.5763L618.876 19.258L619.528 20.016ZM622.84 24.228L623.442 25.0263L624.257 24.4119L623.626 23.6099L622.84 24.228ZM618.052 26.604L617.762 25.6469L617.759 25.6479L618.052 26.604ZM617.512 23.472H616.512V24.3401L617.372 24.4621L617.512 23.472ZM617.512 14.004V13.004H616.512V14.004H617.512ZM622.84 14.004H623.84V13.004H622.84V14.004ZM622.84 24.228L622.7 25.2181L623.84 25.3799V24.228H622.84ZM612.652 26.432C610.766 26.432 609.049 26.1368 607.492 25.5586L606.796 27.4334C608.599 28.1032 610.554 28.432 612.652 28.432V26.432ZM607.508 25.5648C605.967 24.9616 604.625 24.1172 603.474 23.0322L602.102 24.4878C603.447 25.7548 605.009 26.7344 606.78 27.4272L607.508 25.5648ZM603.481 23.0389C602.353 21.9554 601.468 20.6843 600.824 19.2177L598.993 20.0223C599.74 21.7237 600.775 23.2127 602.095 24.4811L603.481 23.0389ZM600.829 19.2295C600.214 17.781 599.9 16.1755 599.9 14.4H597.9C597.9 16.4165 598.258 18.291 598.987 20.0105L600.829 19.2295ZM599.9 14.4C599.9 12.6245 600.214 11.019 600.829 9.57055L598.987 8.78945C598.258 10.509 597.9 12.3835 597.9 14.4H599.9ZM600.824 9.58227C601.466 8.11995 602.36 6.85094 603.51 5.76779L602.138 4.31221C600.792 5.58105 599.742 7.07204 598.993 8.77773L600.824 9.58227ZM603.51 5.76779C604.656 4.68768 606.004 3.85698 607.564 3.27742L606.868 1.40257C605.068 2.07102 603.488 3.04032 602.138 4.31221L603.51 5.76779ZM607.576 3.273C609.128 2.67427 610.852 2.368 612.76 2.368V0.368C610.636 0.368 608.664 0.70973 606.856 1.407L607.576 3.273ZM612.76 2.368C614.88 2.368 616.75 2.7211 618.386 3.40634L619.159 1.56166C617.242 0.758902 615.104 0.368 612.76 0.368V2.368ZM618.39 3.40816C620.052 4.09505 621.434 5.08486 622.552 6.37795L624.065 5.07005C622.734 3.53114 621.092 2.36095 619.154 1.55983L618.39 3.40816ZM622.63 4.9892L618.886 8.4452L620.242 9.9148L623.986 6.4588L622.63 4.9892ZM620.289 8.49125C619.295 7.44436 618.187 6.65081 616.965 6.13475L616.187 7.97725C617.125 8.37318 618.01 8.99564 618.839 9.86875L620.289 8.49125ZM616.982 6.14219C615.765 5.60113 614.449 5.336 613.048 5.336V7.336C614.191 7.336 615.227 7.55087 616.17 7.96981L616.982 6.14219ZM613.048 5.336C611.719 5.336 610.48 5.54477 609.344 5.97751L610.056 7.84649C610.936 7.51123 611.93 7.336 613.048 7.336V5.336ZM609.344 5.97751C608.215 6.40768 607.222 7.03124 606.377 7.8494L607.768 9.2866C608.41 8.66475 609.169 8.18432 610.056 7.84649L609.344 5.97751ZM606.365 7.86089C605.548 8.67793 604.912 9.64148 604.456 10.741L606.304 11.507C606.664 10.6385 607.156 9.89807 607.779 9.27511L606.365 7.86089ZM604.448 10.7605C604.014 11.875 603.804 13.0924 603.804 14.4H605.804C605.804 13.3076 605.979 12.341 606.312 11.4875L604.448 10.7605ZM603.804 14.4C603.804 15.6863 604.014 16.8913 604.448 18.0035L606.312 17.2765C605.978 16.4207 605.804 15.4657 605.804 14.4H603.804ZM604.456 18.023C604.911 19.1197 605.544 20.0905 606.354 20.9274L607.791 19.5366C607.161 18.8855 606.665 18.1283 606.304 17.257L604.456 18.023ZM606.377 20.9506C607.218 21.7648 608.195 22.3883 609.301 22.8196L610.028 20.9564C609.165 20.6197 608.414 20.1392 607.768 19.5134L606.377 20.9506ZM609.308 22.8225C610.442 23.2544 611.668 23.464 612.976 23.464V21.464C611.884 21.464 610.902 21.2896 610.02 20.9535L609.308 22.8225ZM612.976 23.464C614.234 23.464 615.457 23.2671 616.64 22.8727L616.008 20.9753C615.031 21.3009 614.022 21.464 612.976 21.464V23.464ZM616.653 22.8685C617.893 22.437 619.069 21.7307 620.18 20.774L618.876 19.258C617.924 20.0773 616.963 20.643 615.996 20.9795L616.653 22.8685ZM618.742 20.6341L622.054 24.8461L623.626 23.6099L620.314 19.3979L618.742 20.6341ZM622.238 23.4297C620.974 24.3832 619.486 25.1252 617.762 25.6469L618.342 27.5611C620.266 26.9788 621.97 26.1368 623.442 25.0263L622.238 23.4297ZM617.759 25.6479C616.049 26.1722 614.348 26.432 612.652 26.432V28.432C614.556 28.432 616.455 28.1398 618.345 27.5601L617.759 25.6479ZM618.512 23.472V14.004H616.512V23.472H618.512ZM617.512 15.004H622.84V13.004H617.512V15.004ZM621.84 14.004V24.228H623.84V14.004H621.84ZM622.981 23.2379L617.653 22.4819L617.372 24.4621L622.7 25.2181L622.981 23.2379Z" fill="#333333" mask="url(#path-1-outside-1_1_194)"/>
</svg>
