<svg width="284" height="73" viewBox="0 0 284 73" fill="none" xmlns="http://www.w3.org/2000/svg">
<mask id="path-1-outside-1_1_473" maskUnits="userSpaceOnUse" x="0" y="0" width="284" height="73" fill="black">
<rect fill="white" width="284" height="73"/>
<path d="M86.6501 27.432C84.6581 27.432 82.8221 27.12 81.1421 26.496C79.4861 25.848 78.0341 24.936 76.7861 23.76C75.5621 22.584 74.6021 21.204 73.9061 19.62C73.2341 18.036 72.8981 16.296 72.8981 14.4C72.8981 12.504 73.2341 10.764 73.9061 9.18C74.6021 7.596 75.5741 6.216 76.8221 5.04C78.0701 3.864 79.5341 2.964 81.2141 2.34C82.8941 1.692 84.7421 1.368 86.7581 1.368C88.9901 1.368 90.9941 1.74 92.7701 2.484C94.5701 3.228 96.0821 4.308 97.3061 5.724L93.5621 9.18C92.6501 8.22 91.6541 7.512 90.5741 7.056C89.4941 6.576 88.3181 6.336 87.0461 6.336C85.8221 6.336 84.7061 6.528 83.6981 6.912C82.6901 7.296 81.8141 7.848 81.0701 8.568C80.3501 9.288 79.7861 10.14 79.3781 11.124C78.9941 12.108 78.8021 13.2 78.8021 14.4C78.8021 15.576 78.9941 16.656 79.3781 17.64C79.7861 18.624 80.3501 19.488 81.0701 20.232C81.8141 20.952 82.6781 21.504 83.6621 21.888C84.6701 22.272 85.7741 22.464 86.9741 22.464C88.1261 22.464 89.2421 22.284 90.3221 21.924C91.4261 21.54 92.4941 20.904 93.5261 20.016L96.8381 24.228C95.4701 25.26 93.8741 26.052 92.0501 26.604C90.2501 27.156 88.4501 27.432 86.6501 27.432ZM91.5101 23.472V14.004H96.8381V24.228L91.5101 23.472ZM107.62 11.952H119.752V16.488H107.62V11.952ZM108.052 22.32H121.768V27H102.256V1.8H121.3V6.48H108.052V22.32ZM131.628 27V6.552H123.564V1.8H145.524V6.552H137.46V27H131.628ZM155.545 27L166.777 1.8H172.537L183.805 27H177.685L168.469 4.752H170.773L161.521 27H155.545ZM161.161 21.6L162.709 17.172H175.669L177.253 21.6H161.161ZM186.42 27V1.8H191.244L206.112 19.944H203.772V1.8H209.532V27H204.744L189.84 8.856H192.18V27H186.42Z"/>
<path d="M1.56808 71V45.8H7.40008V71H1.56808ZM13.3806 71V45.8H18.2046L33.0726 63.944H30.7326V45.8H36.4926V71H31.7046L16.8006 52.856H19.1406V71H13.3806ZM47.6748 71V50.552H39.6108V45.8H61.5708V50.552H53.5068V71H47.6748ZM70.0727 55.952H82.2047V60.488H70.0727V55.952ZM70.5047 66.32H84.2207V71H64.7087V45.8H83.7527V50.48H70.5047V66.32ZM88.861 71V45.8H99.769C102.025 45.8 103.969 46.172 105.601 46.916C107.233 47.636 108.493 48.68 109.381 50.048C110.269 51.416 110.713 53.048 110.713 54.944C110.713 56.816 110.269 58.436 109.381 59.804C108.493 61.148 107.233 62.18 105.601 62.9C103.969 63.62 102.025 63.98 99.769 63.98H92.101L94.693 61.424V71H88.861ZM104.881 71L98.581 61.856H104.809L111.181 71H104.881ZM94.693 62.072L92.101 59.336H99.445C101.245 59.336 102.589 58.952 103.477 58.184C104.365 57.392 104.809 56.312 104.809 54.944C104.809 53.552 104.365 52.472 103.477 51.704C102.589 50.936 101.245 50.552 99.445 50.552H92.101L94.693 47.78V62.072ZM122.894 71L112.022 45.8H118.322L127.826 68.12H124.118L133.766 45.8H139.562L128.654 71H122.894ZM147.03 55.952H159.162V60.488H147.03V55.952ZM147.462 66.32H161.178V71H141.666V45.8H160.71V50.48H147.462V66.32ZM165.818 71V45.8H170.642L185.51 63.944H183.17V45.8H188.93V71H184.142L169.238 52.856H171.578V71H165.818ZM200.112 71V50.552H192.048V45.8H214.008V50.552H205.944V71H200.112ZM217.146 71V45.8H222.978V71H217.146ZM241.199 71.432C239.207 71.432 237.359 71.108 235.655 70.46C233.975 69.812 232.511 68.9 231.263 67.724C230.039 66.548 229.079 65.168 228.383 63.584C227.711 62 227.375 60.272 227.375 58.4C227.375 56.528 227.711 54.8 228.383 53.216C229.079 51.632 230.051 50.252 231.299 49.076C232.547 47.9 234.011 46.988 235.691 46.34C237.371 45.692 239.195 45.368 241.163 45.368C243.155 45.368 244.979 45.692 246.635 46.34C248.315 46.988 249.767 47.9 250.991 49.076C252.239 50.252 253.211 51.632 253.907 53.216C254.603 54.776 254.951 56.504 254.951 58.4C254.951 60.272 254.603 62.012 253.907 63.62C253.211 65.204 252.239 66.584 250.991 67.76C249.767 68.912 248.315 69.812 246.635 70.46C244.979 71.108 243.167 71.432 241.199 71.432ZM241.163 66.464C242.291 66.464 243.323 66.272 244.259 65.888C245.219 65.504 246.059 64.952 246.779 64.232C247.499 63.512 248.051 62.66 248.435 61.676C248.843 60.692 249.047 59.6 249.047 58.4C249.047 57.2 248.843 56.108 248.435 55.124C248.051 54.14 247.499 53.288 246.779 52.568C246.083 51.848 245.255 51.296 244.295 50.912C243.335 50.528 242.291 50.336 241.163 50.336C240.035 50.336 238.991 50.528 238.031 50.912C237.095 51.296 236.267 51.848 235.547 52.568C234.827 53.288 234.263 54.14 233.855 55.124C233.471 56.108 233.279 57.2 233.279 58.4C233.279 59.576 233.471 60.668 233.855 61.676C234.263 62.66 234.815 63.512 235.511 64.232C236.231 64.952 237.071 65.504 238.031 65.888C238.991 66.272 240.035 66.464 241.163 66.464ZM259.334 71V45.8H264.158L279.026 63.944H276.686V45.8H282.446V71H277.658L262.754 52.856H265.094V71H259.334Z"/>
</mask>
<path d="M1.56808 71V45.8H7.40008V71H1.56808ZM13.3806 71V45.8H18.2046L33.0726 63.944H30.7326V45.8H36.4926V71H31.7046L16.8006 52.856H19.1406V71H13.3806ZM47.6748 71V50.552H39.6108V45.8H61.5708V50.552H53.5068V71H47.6748ZM70.0727 55.952H82.2047V60.488H70.0727V55.952ZM70.5047 66.32H84.2207V71H64.7087V45.8H83.7527V50.48H70.5047V66.32ZM88.861 71V45.8H99.769C102.025 45.8 103.969 46.172 105.601 46.916C107.233 47.636 108.493 48.68 109.381 50.048C110.269 51.416 110.713 53.048 110.713 54.944C110.713 56.816 110.269 58.436 109.381 59.804C108.493 61.148 107.233 62.18 105.601 62.9C103.969 63.62 102.025 63.98 99.769 63.98H92.101L94.693 61.424V71H88.861ZM104.881 71L98.581 61.856H104.809L111.181 71H104.881ZM94.693 62.072L92.101 59.336H99.445C101.245 59.336 102.589 58.952 103.477 58.184C104.365 57.392 104.809 56.312 104.809 54.944C104.809 53.552 104.365 52.472 103.477 51.704C102.589 50.936 101.245 50.552 99.445 50.552H92.101L94.693 47.78V62.072ZM122.894 71L112.022 45.8H118.322L127.826 68.12H124.118L133.766 45.8H139.562L128.654 71H122.894ZM147.03 55.952H159.162V60.488H147.03V55.952ZM147.462 66.32H161.178V71H141.666V45.8H160.71V50.48H147.462V66.32ZM165.818 71V45.8H170.642L185.51 63.944H183.17V45.8H188.93V71H184.142L169.238 52.856H171.578V71H165.818ZM200.112 71V50.552H192.048V45.8H214.008V50.552H205.944V71H200.112ZM217.146 71V45.8H222.978V71H217.146ZM241.199 71.432C239.207 71.432 237.359 71.108 235.655 70.46C233.975 69.812 232.511 68.9 231.263 67.724C230.039 66.548 229.079 65.168 228.383 63.584C227.711 62 227.375 60.272 227.375 58.4C227.375 56.528 227.711 54.8 228.383 53.216C229.079 51.632 230.051 50.252 231.299 49.076C232.547 47.9 234.011 46.988 235.691 46.34C237.371 45.692 239.195 45.368 241.163 45.368C243.155 45.368 244.979 45.692 246.635 46.34C248.315 46.988 249.767 47.9 250.991 49.076C252.239 50.252 253.211 51.632 253.907 53.216C254.603 54.776 254.951 56.504 254.951 58.4C254.951 60.272 254.603 62.012 253.907 63.62C253.211 65.204 252.239 66.584 250.991 67.76C249.767 68.912 248.315 69.812 246.635 70.46C244.979 71.108 243.167 71.432 241.199 71.432ZM241.163 66.464C242.291 66.464 243.323 66.272 244.259 65.888C245.219 65.504 246.059 64.952 246.779 64.232C247.499 63.512 248.051 62.66 248.435 61.676C248.843 60.692 249.047 59.6 249.047 58.4C249.047 57.2 248.843 56.108 248.435 55.124C248.051 54.14 247.499 53.288 246.779 52.568C246.083 51.848 245.255 51.296 244.295 50.912C243.335 50.528 242.291 50.336 241.163 50.336C240.035 50.336 238.991 50.528 238.031 50.912C237.095 51.296 236.267 51.848 235.547 52.568C234.827 53.288 234.263 54.14 233.855 55.124C233.471 56.108 233.279 57.2 233.279 58.4C233.279 59.576 233.471 60.668 233.855 61.676C234.263 62.66 234.815 63.512 235.511 64.232C236.231 64.952 237.071 65.504 238.031 65.888C238.991 66.272 240.035 66.464 241.163 66.464ZM259.334 71V45.8H264.158L279.026 63.944H276.686V45.8H282.446V71H277.658L262.754 52.856H265.094V71H259.334Z" fill="white"/>
<path d="M81.1421 26.496L80.7777 27.4272L80.7858 27.4304L80.794 27.4334L81.1421 26.496ZM76.7861 23.76L76.0933 24.4811L76.1003 24.4878L76.7861 23.76ZM73.9061 19.62L72.9855 20.0106L72.9906 20.0223L73.9061 19.62ZM73.9061 9.18L72.9905 8.77769L72.9856 8.78945L73.9061 9.18ZM76.8221 5.04L77.5079 5.76779V5.76779L76.8221 5.04ZM81.2141 2.34L81.5624 3.2775L81.574 3.273L81.2141 2.34ZM92.7701 2.484L92.3838 3.40635L92.3882 3.40816L92.7701 2.484ZM97.3061 5.724L97.9844 6.4588L98.6956 5.8023L98.0627 5.07005L97.3061 5.724ZM93.5621 9.18L92.8371 9.86875L93.5161 10.5834L94.2404 9.9148L93.5621 9.18ZM90.5741 7.056L90.168 7.96981L90.1766 7.97361L90.1852 7.97725L90.5741 7.056ZM81.0701 8.568L80.3747 7.8494L80.3688 7.8551L80.363 7.86089L81.0701 8.568ZM79.3781 11.124L78.4544 10.741L78.4504 10.7507L78.4466 10.7605L79.3781 11.124ZM79.3781 17.64L78.4466 18.0035L78.4504 18.0133L78.4544 18.023L79.3781 17.64ZM81.0701 20.232L80.3515 20.9274L80.3629 20.9392L80.3747 20.9506L81.0701 20.232ZM83.6621 21.888L83.2986 22.8196L83.3061 22.8225L83.6621 21.888ZM90.3221 21.924L90.6384 22.8728L90.6507 22.8685L90.3221 21.924ZM93.5261 20.016L94.3122 19.3979L93.6662 18.5763L92.8739 19.258L93.5261 20.016ZM96.8381 24.228L97.4404 25.0263L98.2549 24.4119L97.6242 23.6099L96.8381 24.228ZM92.0501 26.604L91.7605 25.6469L91.757 25.6479L92.0501 26.604ZM91.5101 23.472H90.5101V24.3401L91.3697 24.4621L91.5101 23.472ZM91.5101 14.004V13.004H90.5101V14.004H91.5101ZM96.8381 14.004H97.8381V13.004H96.8381V14.004ZM96.8381 24.228L96.6977 25.2181L97.8381 25.3799V24.228H96.8381ZM86.6501 26.432C84.7638 26.432 83.0472 26.1368 81.4903 25.5586L80.794 27.4334C82.5971 28.1032 84.5525 28.432 86.6501 28.432V26.432ZM81.5065 25.5648C79.9652 24.9616 78.6234 24.1172 77.4719 23.0322L76.1003 24.4878C77.4449 25.7548 79.0071 26.7344 80.7777 27.4272L81.5065 25.5648ZM77.479 23.0389C76.3512 21.9554 75.466 20.6843 74.8217 19.2177L72.9906 20.0223C73.7382 21.7237 74.7731 23.2126 76.0933 24.4811L77.479 23.0389ZM74.8267 19.2295C74.2122 17.781 73.8981 16.1755 73.8981 14.4H71.8981C71.8981 16.4165 72.256 18.291 72.9856 20.0105L74.8267 19.2295ZM73.8981 14.4C73.8981 12.6245 74.2122 11.019 74.8267 9.57055L72.9856 8.78945C72.256 10.509 71.8981 12.3835 71.8981 14.4H73.8981ZM74.8217 9.58227C75.4642 8.11995 76.3585 6.85094 77.5079 5.76779L76.1363 4.31221C74.7898 5.58105 73.7401 7.07204 72.9906 8.77773L74.8217 9.58227ZM77.5079 5.76779C78.6542 4.68768 80.002 3.85698 81.5623 3.27742L80.866 1.40257C79.0663 2.07102 77.4861 3.04032 76.1363 4.31221L77.5079 5.76779ZM81.574 3.273C83.1263 2.67427 84.8505 2.368 86.7581 2.368V0.368C84.6337 0.368 82.662 0.70973 80.8543 1.407L81.574 3.273ZM86.7581 2.368C88.8784 2.368 90.748 2.7211 92.3838 3.40634L93.1565 1.56166C91.2403 0.758902 89.1019 0.368 86.7581 0.368V2.368ZM92.3882 3.40816C94.05 4.09505 95.4319 5.08486 96.5496 6.37795L98.0627 5.07005C96.7324 3.53114 95.0903 2.36095 93.1521 1.55983L92.3882 3.40816ZM96.6279 4.9892L92.8839 8.4452L94.2404 9.9148L97.9844 6.4588L96.6279 4.9892ZM94.2871 8.49125C93.2926 7.44436 92.1854 6.65081 90.9631 6.13475L90.1852 7.97725C91.1229 8.37318 92.0077 8.99564 92.8371 9.86875L94.2871 8.49125ZM90.9803 6.14219C89.7629 5.60113 88.4472 5.336 87.0461 5.336V7.336C88.189 7.336 89.2254 7.55087 90.168 7.96981L90.9803 6.14219ZM87.0461 5.336C85.7167 5.336 84.4781 5.54477 83.3421 5.97751L84.0541 7.84649C84.9342 7.51123 85.9276 7.336 87.0461 7.336V5.336ZM83.3421 5.97751C82.213 6.40768 81.2201 7.03124 80.3747 7.8494L81.7656 9.2866C82.4081 8.66475 83.1673 8.18432 84.0541 7.84649L83.3421 5.97751ZM80.363 7.86089C79.546 8.67793 78.9103 9.64148 78.4544 10.741L80.3019 11.507C80.662 10.6385 81.1543 9.89807 81.7772 9.27511L80.363 7.86089ZM78.4466 10.7605C78.0116 11.875 77.8021 13.0924 77.8021 14.4H79.8021C79.8021 13.3076 79.9767 12.341 80.3097 11.4875L78.4466 10.7605ZM77.8021 14.4C77.8021 15.6863 78.0125 16.8913 78.4466 18.0035L80.3097 17.2765C79.9758 16.4207 79.8021 15.4657 79.8021 14.4H77.8021ZM78.4544 18.023C78.9091 19.1197 79.5416 20.0905 80.3515 20.9274L81.7887 19.5366C81.1587 18.8855 80.6632 18.1283 80.3019 17.257L78.4544 18.023ZM80.3747 20.9506C81.2161 21.7648 82.1935 22.3883 83.2986 22.8196L84.0257 20.9564C83.1628 20.6197 82.4122 20.1392 81.7656 19.5134L80.3747 20.9506ZM83.3061 22.8225C84.4399 23.2544 85.6661 23.464 86.9741 23.464V21.464C85.8822 21.464 84.9004 21.2896 84.0181 20.9535L83.3061 22.8225ZM86.9741 23.464C88.2323 23.464 89.4552 23.2671 90.6384 22.8727L90.0059 20.9753C89.0291 21.3009 88.02 21.464 86.9741 21.464V23.464ZM90.6507 22.8685C91.8912 22.437 93.0666 21.7307 94.1784 20.774L92.8739 19.258C91.9217 20.0773 90.9611 20.643 89.9936 20.9795L90.6507 22.8685ZM92.7401 20.6341L96.0521 24.8461L97.6242 23.6099L94.3122 19.3979L92.7401 20.6341ZM96.2359 23.4297C94.9719 24.3832 93.4843 25.1252 91.7605 25.6469L92.3398 27.5611C94.264 26.9788 95.9684 26.1368 97.4404 25.0263L96.2359 23.4297ZM91.757 25.6479C90.0476 26.1722 88.3463 26.432 86.6501 26.432V28.432C88.554 28.432 90.4527 28.1398 92.3433 27.5601L91.757 25.6479ZM92.5101 23.472V14.004H90.5101V23.472H92.5101ZM91.5101 15.004H96.8381V13.004H91.5101V15.004ZM95.8381 14.004V24.228H97.8381V14.004H95.8381ZM96.9786 23.2379L91.6506 22.4819L91.3697 24.4621L96.6977 25.2181L96.9786 23.2379ZM107.62 11.952V10.952H106.62V11.952H107.62ZM119.752 11.952H120.752V10.952H119.752V11.952ZM119.752 16.488V17.488H120.752V16.488H119.752ZM107.62 16.488H106.62V17.488H107.62V16.488ZM108.052 22.32H107.052V23.32H108.052V22.32ZM121.768 22.32H122.768V21.32H121.768V22.32ZM121.768 27V28H122.768V27H121.768ZM102.256 27H101.256V28H102.256V27ZM102.256 1.8V0.799998H101.256V1.8H102.256ZM121.3 1.8H122.3V0.799998H121.3V1.8ZM121.3 6.48V7.48H122.3V6.48H121.3ZM108.052 6.48V5.48H107.052V6.48H108.052ZM107.62 12.952H119.752V10.952H107.62V12.952ZM118.752 11.952V16.488H120.752V11.952H118.752ZM119.752 15.488H107.62V17.488H119.752V15.488ZM108.62 16.488V11.952H106.62V16.488H108.62ZM108.052 23.32H121.768V21.32H108.052V23.32ZM120.768 22.32V27H122.768V22.32H120.768ZM121.768 26H102.256V28H121.768V26ZM103.256 27V1.8H101.256V27H103.256ZM102.256 2.8H121.3V0.799998H102.256V2.8ZM120.3 1.8V6.48H122.3V1.8H120.3ZM121.3 5.48H108.052V7.48H121.3V5.48ZM107.052 6.48V22.32H109.052V6.48H107.052ZM131.628 27H130.628V28H131.628V27ZM131.628 6.552H132.628V5.552H131.628V6.552ZM123.564 6.552H122.564V7.552H123.564V6.552ZM123.564 1.8V0.799998H122.564V1.8H123.564ZM145.524 1.8H146.524V0.799998H145.524V1.8ZM145.524 6.552V7.552H146.524V6.552H145.524ZM137.46 6.552V5.552H136.46V6.552H137.46ZM137.46 27V28H138.46V27H137.46ZM132.628 27V6.552H130.628V27H132.628ZM131.628 5.552H123.564V7.552H131.628V5.552ZM124.564 6.552V1.8H122.564V6.552H124.564ZM123.564 2.8H145.524V0.799998H123.564V2.8ZM144.524 1.8V6.552H146.524V1.8H144.524ZM145.524 5.552H137.46V7.552H145.524V5.552ZM136.46 6.552V27H138.46V6.552H136.46ZM137.46 26H131.628V28H137.46V26ZM155.545 27L154.632 26.5929L154.005 28H155.545V27ZM166.777 1.8V0.799998H166.128L165.864 1.39289L166.777 1.8ZM172.537 1.8L173.45 1.3918L173.185 0.799998H172.537V1.8ZM183.805 27V28H185.348L184.718 26.5918L183.805 27ZM177.685 27L176.761 27.3827L177.017 28H177.685V27ZM168.469 4.752V3.752H166.973L167.545 5.1347L168.469 4.752ZM170.773 4.752L171.696 5.13598L172.272 3.752H170.773V4.752ZM161.521 27V28H162.188L162.444 27.384L161.521 27ZM161.161 21.6L160.217 21.27L159.752 22.6H161.161V21.6ZM162.709 17.172V16.172H161.999L161.765 16.842L162.709 17.172ZM175.669 17.172L176.611 16.8352L176.373 16.172H175.669V17.172ZM177.253 21.6V22.6H178.673L178.195 21.2632L177.253 21.6ZM156.459 27.4071L167.691 2.2071L165.864 1.39289L154.632 26.5929L156.459 27.4071ZM166.777 2.8H172.537V0.799998H166.777V2.8ZM171.624 2.20819L182.892 27.4082L184.718 26.5918L173.45 1.3918L171.624 2.20819ZM183.805 26H177.685V28H183.805V26ZM178.609 26.6173L169.393 4.3693L167.545 5.1347L176.761 27.3827L178.609 26.6173ZM168.469 5.752H170.773V3.752H168.469V5.752ZM169.85 4.36802L160.598 26.616L162.444 27.384L171.696 5.13598L169.85 4.36802ZM161.521 26H155.545V28H161.521V26ZM162.105 21.93L163.653 17.502L161.765 16.842L160.217 21.27L162.105 21.93ZM162.709 18.172H175.669V16.172H162.709V18.172ZM174.728 17.5088L176.312 21.9368L178.195 21.2632L176.611 16.8352L174.728 17.5088ZM177.253 20.6H161.161V22.6H177.253V20.6ZM186.42 27H185.42V28H186.42V27ZM186.42 1.8V0.799998H185.42V1.8H186.42ZM191.244 1.8L192.017 1.16618L191.717 0.799998H191.244V1.8ZM206.112 19.944V20.944H208.224L206.885 19.3102L206.112 19.944ZM203.772 19.944H202.772V20.944H203.772V19.944ZM203.772 1.8V0.799998H202.772V1.8H203.772ZM209.532 1.8H210.532V0.799998H209.532V1.8ZM209.532 27V28H210.532V27H209.532ZM204.744 27L203.971 27.6347L204.271 28H204.744V27ZM189.84 8.856V7.856H187.724L189.067 9.49074L189.84 8.856ZM192.18 8.856H193.18V7.856H192.18V8.856ZM192.18 27V28H193.18V27H192.18ZM187.42 27V1.8H185.42V27H187.42ZM186.42 2.8H191.244V0.799998H186.42V2.8ZM190.47 2.43382L205.338 20.5778L206.885 19.3102L192.017 1.16618L190.47 2.43382ZM206.112 18.944H203.772V20.944H206.112V18.944ZM204.772 19.944V1.8H202.772V19.944H204.772ZM203.772 2.8H209.532V0.799998H203.772V2.8ZM208.532 1.8V27H210.532V1.8H208.532ZM209.532 26H204.744V28H209.532V26ZM205.516 26.3653L190.612 8.22126L189.067 9.49074L203.971 27.6347L205.516 26.3653ZM189.84 9.856H192.18V7.856H189.84V9.856ZM191.18 8.856V27H193.18V8.856H191.18ZM192.18 26H186.42V28H192.18V26ZM1.56808 71H0.568079V72H1.56808V71ZM1.56808 45.8V44.8H0.568079V45.8H1.56808ZM7.40008 45.8H8.40008V44.8H7.40008V45.8ZM7.40008 71V72H8.40008V71H7.40008ZM2.56808 71V45.8H0.568079V71H2.56808ZM1.56808 46.8H7.40008V44.8H1.56808V46.8ZM6.40008 45.8V71H8.40008V45.8H6.40008ZM7.40008 70H1.56808V72H7.40008V70ZM13.3806 71H12.3806V72H13.3806V71ZM13.3806 45.8V44.8H12.3806V45.8H13.3806ZM18.2046 45.8L18.9781 45.1662L18.678 44.8H18.2046V45.8ZM33.0726 63.944V64.944H35.1849L33.8461 63.3102L33.0726 63.944ZM30.7326 63.944H29.7326V64.944H30.7326V63.944ZM30.7326 45.8V44.8H29.7326V45.8H30.7326ZM36.4926 45.8H37.4926V44.8H36.4926V45.8ZM36.4926 71V72H37.4926V71H36.4926ZM31.7046 71L30.9319 71.6347L31.2319 72H31.7046V71ZM16.8006 52.856V51.856H14.685L16.0279 53.4907L16.8006 52.856ZM19.1406 52.856H20.1406V51.856H19.1406V52.856ZM19.1406 71V72H20.1406V71H19.1406ZM14.3806 71V45.8H12.3806V71H14.3806ZM13.3806 46.8H18.2046V44.8H13.3806V46.8ZM17.4311 46.4338L32.2991 64.5778L33.8461 63.3102L18.9781 45.1662L17.4311 46.4338ZM33.0726 62.944H30.7326V64.944H33.0726V62.944ZM31.7326 63.944V45.8H29.7326V63.944H31.7326ZM30.7326 46.8H36.4926V44.8H30.7326V46.8ZM35.4926 45.8V71H37.4926V45.8H35.4926ZM36.4926 70H31.7046V72H36.4926V70ZM32.4773 70.3653L17.5733 52.2213L16.0279 53.4907L30.9319 71.6347L32.4773 70.3653ZM16.8006 53.856H19.1406V51.856H16.8006V53.856ZM18.1406 52.856V71H20.1406V52.856H18.1406ZM19.1406 70H13.3806V72H19.1406V70ZM47.6748 71H46.6748V72H47.6748V71ZM47.6748 50.552H48.6748V49.552H47.6748V50.552ZM39.6108 50.552H38.6108V51.552H39.6108V50.552ZM39.6108 45.8V44.8H38.6108V45.8H39.6108ZM61.5708 45.8H62.5708V44.8H61.5708V45.8ZM61.5708 50.552V51.552H62.5708V50.552H61.5708ZM53.5068 50.552V49.552H52.5068V50.552H53.5068ZM53.5068 71V72H54.5068V71H53.5068ZM48.6748 71V50.552H46.6748V71H48.6748ZM47.6748 49.552H39.6108V51.552H47.6748V49.552ZM40.6108 50.552V45.8H38.6108V50.552H40.6108ZM39.6108 46.8H61.5708V44.8H39.6108V46.8ZM60.5708 45.8V50.552H62.5708V45.8H60.5708ZM61.5708 49.552H53.5068V51.552H61.5708V49.552ZM52.5068 50.552V71H54.5068V50.552H52.5068ZM53.5068 70H47.6748V72H53.5068V70ZM70.0727 55.952V54.952H69.0727V55.952H70.0727ZM82.2047 55.952H83.2047V54.952H82.2047V55.952ZM82.2047 60.488V61.488H83.2047V60.488H82.2047ZM70.0727 60.488H69.0727V61.488H70.0727V60.488ZM70.5047 66.32H69.5047V67.32H70.5047V66.32ZM84.2207 66.32H85.2207V65.32H84.2207V66.32ZM84.2207 71V72H85.2207V71H84.2207ZM64.7087 71H63.7087V72H64.7087V71ZM64.7087 45.8V44.8H63.7087V45.8H64.7087ZM83.7527 45.8H84.7527V44.8H83.7527V45.8ZM83.7527 50.48V51.48H84.7527V50.48H83.7527ZM70.5047 50.48V49.48H69.5047V50.48H70.5047ZM70.0727 56.952H82.2047V54.952H70.0727V56.952ZM81.2047 55.952V60.488H83.2047V55.952H81.2047ZM82.2047 59.488H70.0727V61.488H82.2047V59.488ZM71.0727 60.488V55.952H69.0727V60.488H71.0727ZM70.5047 67.32H84.2207V65.32H70.5047V67.32ZM83.2207 66.32V71H85.2207V66.32H83.2207ZM84.2207 70H64.7087V72H84.2207V70ZM65.7087 71V45.8H63.7087V71H65.7087ZM64.7087 46.8H83.7527V44.8H64.7087V46.8ZM82.7527 45.8V50.48H84.7527V45.8H82.7527ZM83.7527 49.48H70.5047V51.48H83.7527V49.48ZM69.5047 50.48V66.32H71.5047V50.48H69.5047ZM88.861 71H87.861V72H88.861V71ZM88.861 45.8V44.8H87.861V45.8H88.861ZM105.601 46.916L105.186 47.826L105.197 47.8309L105.601 46.916ZM109.381 50.048L108.542 50.5925V50.5925L109.381 50.048ZM109.381 59.804L110.215 60.3553L110.22 60.3485L109.381 59.804ZM105.601 62.9L106.005 63.8149L105.601 62.9ZM92.101 63.98L91.3989 63.268L89.6628 64.98H92.101V63.98ZM94.693 61.424H95.693V59.0335L93.9909 60.712L94.693 61.424ZM94.693 71V72H95.693V71H94.693ZM104.881 71L104.058 71.5674L104.356 72H104.881V71ZM98.581 61.856V60.856H96.6777L97.7576 62.4234L98.581 61.856ZM104.809 61.856L105.629 61.2843L105.331 60.856H104.809V61.856ZM111.181 71V72H113.097L112.001 70.4283L111.181 71ZM94.693 62.072L93.9671 62.7597L95.693 64.5816V62.072H94.693ZM92.101 59.336V58.336H89.7762L91.3751 60.0237L92.101 59.336ZM103.477 58.184L104.131 58.9404L104.137 58.9354L104.143 58.9303L103.477 58.184ZM92.101 50.552L91.3706 49.869L89.7969 51.552H92.101V50.552ZM94.693 47.78H95.693V45.2464L93.9626 47.097L94.693 47.78ZM89.861 71V45.8H87.861V71H89.861ZM88.861 46.8H99.7691V44.8H88.861V46.8ZM99.7691 46.8C101.918 46.8 103.713 47.1545 105.186 47.8259L106.016 46.0061C104.225 45.1895 102.132 44.8 99.7691 44.8V46.8ZM105.197 47.8309C106.669 48.4801 107.77 49.4029 108.542 50.5925L110.22 49.5035C109.216 47.9571 107.797 46.7919 106.005 46.0011L105.197 47.8309ZM108.542 50.5925C109.309 51.7734 109.713 53.2092 109.713 54.944H111.713C111.713 52.8868 111.229 51.0586 110.22 49.5035L108.542 50.5925ZM109.713 54.944C109.713 56.652 109.31 58.0766 108.542 59.2595L110.22 60.3485C111.228 58.7954 111.713 56.9799 111.713 54.944H109.713ZM108.547 59.2527C107.776 60.4198 106.673 61.3339 105.197 61.9851L106.005 63.8149C107.793 63.0261 109.21 61.8762 110.215 60.3553L108.547 59.2527ZM105.197 61.9851C103.721 62.6362 101.922 62.98 99.7691 62.98V64.98C102.129 64.98 104.217 64.6038 106.005 63.8149L105.197 61.9851ZM99.7691 62.98H92.101V64.98H99.7691V62.98ZM92.8032 64.692L95.3952 62.136L93.9909 60.712L91.3989 63.268L92.8032 64.692ZM93.693 61.424V71H95.693V61.424H93.693ZM94.693 70H88.861V72H94.693V70ZM105.705 70.4326L99.4045 61.2886L97.7576 62.4234L104.058 71.5674L105.705 70.4326ZM98.581 62.856H104.809V60.856H98.581V62.856ZM103.989 62.4277L110.361 71.5717L112.001 70.4283L105.629 61.2843L103.989 62.4277ZM111.181 70H104.881V72H111.181V70ZM95.419 61.3843L92.827 58.6483L91.3751 60.0237L93.9671 62.7597L95.419 61.3843ZM92.101 60.336H99.445V58.336H92.101V60.336ZM99.445 60.336C101.362 60.336 102.986 59.9306 104.131 58.9404L102.823 57.4276C102.192 57.9734 101.128 58.336 99.445 58.336V60.336ZM104.143 58.9303C105.276 57.9193 105.809 56.5499 105.809 54.944H103.809C103.809 56.0741 103.454 56.8647 102.811 57.4377L104.143 58.9303ZM105.809 54.944C105.809 53.3209 105.28 51.9412 104.131 50.9476L102.823 52.4604C103.45 53.0028 103.809 53.7831 103.809 54.944H105.809ZM104.131 50.9476C102.986 49.9574 101.362 49.552 99.445 49.552V51.552C101.128 51.552 102.192 51.9146 102.823 52.4604L104.131 50.9476ZM99.445 49.552H92.101V51.552H99.445V49.552ZM92.8315 51.235L95.4235 48.463L93.9626 47.097L91.3706 49.869L92.8315 51.235ZM93.693 47.78V62.072H95.693V47.78H93.693ZM122.894 71L121.976 71.3961L122.236 72H122.894V71ZM112.022 45.8V44.8H110.501L111.104 46.1961L112.022 45.8ZM118.322 45.8L119.242 45.4082L118.983 44.8H118.322V45.8ZM127.826 68.12V69.12H129.338L128.746 67.7282L127.826 68.12ZM124.118 68.12L123.2 67.7232L122.596 69.12H124.118V68.12ZM133.766 45.8V44.8H133.109L132.848 45.4032L133.766 45.8ZM139.562 45.8L140.479 46.1972L141.084 44.8H139.562V45.8ZM128.654 71V72H129.311L129.571 71.3972L128.654 71ZM123.812 70.6039L112.94 45.4039L111.104 46.1961L121.976 71.3961L123.812 70.6039ZM112.022 46.8H118.322V44.8H112.022V46.8ZM117.402 46.1918L126.906 68.5118L128.746 67.7282L119.242 45.4082L117.402 46.1918ZM127.826 67.12H124.118V69.12H127.826V67.12ZM125.036 68.5168L134.684 46.1968L132.848 45.4032L123.2 67.7232L125.036 68.5168ZM133.766 46.8H139.562V44.8H133.766V46.8ZM138.644 45.4028L127.736 70.6028L129.571 71.3972L140.479 46.1972L138.644 45.4028ZM128.654 70H122.894V72H128.654V70ZM147.03 55.952V54.952H146.03V55.952H147.03ZM159.162 55.952H160.162V54.952H159.162V55.952ZM159.162 60.488V61.488H160.162V60.488H159.162ZM147.03 60.488H146.03V61.488H147.03V60.488ZM147.462 66.32H146.462V67.32H147.462V66.32ZM161.178 66.32H162.178V65.32H161.178V66.32ZM161.178 71V72H162.178V71H161.178ZM141.666 71H140.666V72H141.666V71ZM141.666 45.8V44.8H140.666V45.8H141.666ZM160.71 45.8H161.71V44.8H160.71V45.8ZM160.71 50.48V51.48H161.71V50.48H160.71ZM147.462 50.48V49.48H146.462V50.48H147.462ZM147.03 56.952H159.162V54.952H147.03V56.952ZM158.162 55.952V60.488H160.162V55.952H158.162ZM159.162 59.488H147.03V61.488H159.162V59.488ZM148.03 60.488V55.952H146.03V60.488H148.03ZM147.462 67.32H161.178V65.32H147.462V67.32ZM160.178 66.32V71H162.178V66.32H160.178ZM161.178 70H141.666V72H161.178V70ZM142.666 71V45.8H140.666V71H142.666ZM141.666 46.8H160.71V44.8H141.666V46.8ZM159.71 45.8V50.48H161.71V45.8H159.71ZM160.71 49.48H147.462V51.48H160.71V49.48ZM146.462 50.48V66.32H148.462V50.48H146.462ZM165.818 71H164.818V72H165.818V71ZM165.818 45.8V44.8H164.818V45.8H165.818ZM170.642 45.8L171.416 45.1662L171.115 44.8H170.642V45.8ZM185.51 63.944V64.944H187.622L186.284 63.3102L185.51 63.944ZM183.17 63.944H182.17V64.944H183.17V63.944ZM183.17 45.8V44.8H182.17V45.8H183.17ZM188.93 45.8H189.93V44.8H188.93V45.8ZM188.93 71V72H189.93V71H188.93ZM184.142 71L183.369 71.6347L183.669 72H184.142V71ZM169.238 52.856V51.856H167.123L168.465 53.4907L169.238 52.856ZM171.578 52.856H172.578V51.856H171.578V52.856ZM171.578 71V72H172.578V71H171.578ZM166.818 71V45.8H164.818V71H166.818ZM165.818 46.8H170.642V44.8H165.818V46.8ZM169.869 46.4338L184.737 64.5778L186.284 63.3102L171.416 45.1662L169.869 46.4338ZM185.51 62.944H183.17V64.944H185.51V62.944ZM184.17 63.944V45.8H182.17V63.944H184.17ZM183.17 46.8H188.93V44.8H183.17V46.8ZM187.93 45.8V71H189.93V45.8H187.93ZM188.93 70H184.142V72H188.93V70ZM184.915 70.3653L170.011 52.2213L168.465 53.4907L183.369 71.6347L184.915 70.3653ZM169.238 53.856H171.578V51.856H169.238V53.856ZM170.578 52.856V71H172.578V52.856H170.578ZM171.578 70H165.818V72H171.578V70ZM200.112 71H199.112V72H200.112V71ZM200.112 50.552H201.112V49.552H200.112V50.552ZM192.048 50.552H191.048V51.552H192.048V50.552ZM192.048 45.8V44.8H191.048V45.8H192.048ZM214.008 45.8H215.008V44.8H214.008V45.8ZM214.008 50.552V51.552H215.008V50.552H214.008ZM205.944 50.552V49.552H204.944V50.552H205.944ZM205.944 71V72H206.944V71H205.944ZM201.112 71V50.552H199.112V71H201.112ZM200.112 49.552H192.048V51.552H200.112V49.552ZM193.048 50.552V45.8H191.048V50.552H193.048ZM192.048 46.8H214.008V44.8H192.048V46.8ZM213.008 45.8V50.552H215.008V45.8H213.008ZM214.008 49.552H205.944V51.552H214.008V49.552ZM204.944 50.552V71H206.944V50.552H204.944ZM205.944 70H200.112V72H205.944V70ZM217.146 71H216.146V72H217.146V71ZM217.146 45.8V44.8H216.146V45.8H217.146ZM222.978 45.8H223.978V44.8H222.978V45.8ZM222.978 71V72H223.978V71H222.978ZM218.146 71V45.8H216.146V71H218.146ZM217.146 46.8H222.978V44.8H217.146V46.8ZM221.978 45.8V71H223.978V45.8H221.978ZM222.978 70H217.146V72H222.978V70ZM235.655 70.46L235.295 71.393L235.299 71.3947L235.655 70.46ZM231.263 67.724L230.57 68.4451L230.577 68.4518L231.263 67.724ZM228.383 63.584L227.462 63.9746L227.467 63.9863L228.383 63.584ZM228.383 53.216L227.467 52.8137L227.462 52.8255L228.383 53.216ZM235.691 46.34L235.331 45.407L235.691 46.34ZM246.635 46.34L246.27 47.2713L246.275 47.273L246.635 46.34ZM250.991 49.076L250.298 49.7971L250.305 49.8038L250.991 49.076ZM253.907 53.216L252.991 53.6183L252.993 53.6234L253.907 53.216ZM253.907 63.62L254.822 64.0223L254.824 64.0172L253.907 63.62ZM250.991 67.76L251.676 68.4882L251.677 68.4878L250.991 67.76ZM246.635 70.46L246.275 69.527L246.27 69.5288L246.635 70.46ZM244.259 65.888L243.887 64.9595L243.879 64.9628L244.259 65.888ZM246.779 64.232L246.072 63.5249L246.779 64.232ZM248.435 61.676L247.511 61.293L247.507 61.3027L247.503 61.3125L248.435 61.676ZM248.435 55.124L247.503 55.4875L247.507 55.4973L247.511 55.507L248.435 55.124ZM246.779 52.568L246.06 53.263L246.066 53.2691L246.072 53.2751L246.779 52.568ZM244.295 50.912L243.923 51.8405L244.295 50.912ZM238.031 50.912L237.659 49.9835L237.651 49.9868L238.031 50.912ZM235.547 52.568L236.254 53.2751L235.547 52.568ZM233.855 55.124L232.931 54.741L232.927 54.7507L232.923 54.7605L233.855 55.124ZM233.855 61.676L232.92 62.032L232.925 62.0456L232.931 62.059L233.855 61.676ZM235.511 64.232L234.792 64.927L234.798 64.9331L234.804 64.9391L235.511 64.232ZM238.031 65.888L237.659 66.8165L238.031 65.888ZM241.199 70.432C239.317 70.432 237.591 70.1263 236.01 69.5253L235.299 71.3947C237.127 72.0897 239.096 72.432 241.199 72.432V70.432ZM236.015 69.527C234.449 68.9233 233.098 68.0789 231.949 66.9962L230.577 68.4518C231.924 69.7211 233.5 70.7007 235.295 71.393L236.015 69.527ZM231.956 67.0029C230.828 65.9193 229.943 64.6483 229.298 63.1817L227.467 63.9863C228.215 65.6877 229.25 67.1767 230.57 68.4451L231.956 67.0029ZM229.303 63.1935C228.688 61.7435 228.375 60.1497 228.375 58.4H226.375C226.375 60.3943 226.733 62.2565 227.462 63.9745L229.303 63.1935ZM228.375 58.4C228.375 56.6503 228.688 55.0565 229.303 53.6065L227.462 52.8255C226.733 54.5435 226.375 56.4057 226.375 58.4H228.375ZM229.298 53.6183C229.941 52.156 230.835 50.8869 231.984 49.8038L230.613 48.3482C229.266 49.6171 228.217 51.108 227.467 52.8137L229.298 53.6183ZM231.984 49.8038C233.133 48.7211 234.485 47.8767 236.051 47.273L235.331 45.407C233.536 46.0993 231.96 47.0789 230.613 48.3482L231.984 49.8038ZM236.051 47.273C237.606 46.6732 239.306 46.368 241.163 46.368V44.368C239.083 44.368 237.136 44.7108 235.331 45.407L236.051 47.273ZM241.163 46.368C243.045 46.368 244.744 46.6738 246.27 47.2712L246.999 45.4088C245.214 44.7102 243.264 44.368 241.163 44.368V46.368ZM246.275 47.273C247.839 47.8761 249.175 48.7187 250.298 49.7971L251.684 48.3549C250.358 47.0813 248.791 46.0999 246.995 45.407L246.275 47.273ZM250.305 49.8038C251.454 50.8869 252.349 52.156 252.991 53.6183L254.822 52.8137C254.073 51.108 253.023 49.6171 251.677 48.3482L250.305 49.8038ZM252.993 53.6234C253.626 55.0418 253.951 56.6289 253.951 58.4H255.951C255.951 56.3791 255.579 54.5102 254.82 52.8086L252.993 53.6234ZM253.951 58.4C253.951 60.1448 253.627 61.7486 252.989 63.2228L254.824 64.0172C255.578 62.2754 255.951 60.3992 255.951 58.4H253.951ZM252.991 63.2177C252.349 64.68 251.454 65.9491 250.305 67.0322L251.677 68.4878C253.023 67.2189 254.073 65.728 254.822 64.0223L252.991 63.2177ZM250.305 67.0318C249.182 68.089 247.843 68.9222 246.275 69.527L246.995 71.393C248.787 70.7018 250.351 69.7351 251.676 68.4882L250.305 67.0318ZM246.27 69.5288C244.742 70.1267 243.055 70.432 241.199 70.432V72.432C243.278 72.432 245.215 72.0893 246.999 71.3912L246.27 69.5288ZM241.163 67.464C242.406 67.464 243.569 67.252 244.638 66.8132L243.879 64.9628C243.077 65.292 242.175 65.464 241.163 65.464V67.464ZM244.63 66.8165C245.714 66.383 246.669 65.7564 247.486 64.9391L246.072 63.5249C245.449 64.1476 244.724 64.625 243.887 64.9595L244.63 66.8165ZM247.486 64.9391C248.307 64.1177 248.934 63.1474 249.366 62.0395L247.503 61.3125C247.167 62.1726 246.69 62.9063 246.072 63.5249L247.486 64.9391ZM249.358 62.059C249.823 60.9392 250.047 59.7149 250.047 58.4H248.047C248.047 59.4851 247.863 60.4448 247.511 61.293L249.358 62.059ZM250.047 58.4C250.047 57.0851 249.823 55.8608 249.358 54.741L247.511 55.507C247.863 56.3552 248.047 57.3149 248.047 58.4H250.047ZM249.366 54.7605C248.934 53.6526 248.307 52.6823 247.486 51.8609L246.072 53.2751C246.69 53.8937 247.167 54.6274 247.503 55.4875L249.366 54.7605ZM247.498 51.873C246.7 51.0482 245.753 50.4182 244.666 49.9835L243.923 51.8405C244.757 52.1738 245.465 52.6478 246.06 53.263L247.498 51.873ZM244.666 49.9835C243.578 49.5481 242.406 49.336 241.163 49.336V51.336C242.175 51.336 243.092 51.5079 243.923 51.8405L244.666 49.9835ZM241.163 49.336C239.919 49.336 238.748 49.5481 237.659 49.9835L238.402 51.8405C239.234 51.5079 240.15 51.336 241.163 51.336V49.336ZM237.651 49.9868C236.592 50.4214 235.653 51.0478 234.84 51.8609L236.254 53.2751C236.881 52.6481 237.598 52.1706 238.41 51.8372L237.651 49.9868ZM234.84 51.8609C234.023 52.6779 233.387 53.6415 232.931 54.741L234.778 55.507C235.139 54.6385 235.631 53.8981 236.254 53.2751L234.84 51.8609ZM232.923 54.7605C232.488 55.875 232.279 57.0924 232.279 58.4H234.279C234.279 57.3076 234.453 56.341 234.786 55.4875L232.923 54.7605ZM232.279 58.4C232.279 59.6867 232.489 60.9005 232.92 62.032L234.789 61.32C234.452 60.4355 234.279 59.4653 234.279 58.4H232.279ZM232.931 62.059C233.384 63.1515 234.003 64.1112 234.792 64.927L236.23 63.537C235.626 62.9128 235.141 62.1685 234.778 61.293L232.931 62.059ZM234.804 64.9391C235.621 65.7564 236.576 66.383 237.659 66.8165L238.402 64.9595C237.566 64.625 236.841 64.1476 236.218 63.5249L234.804 64.9391ZM237.659 66.8165C238.748 67.2519 239.919 67.464 241.163 67.464V65.464C240.15 65.464 239.234 65.2921 238.402 64.9595L237.659 66.8165ZM259.334 71H258.334V72H259.334V71ZM259.334 45.8V44.8H258.334V45.8H259.334ZM264.158 45.8L264.931 45.1662L264.631 44.8H264.158V45.8ZM279.026 63.944V64.944H281.138L279.799 63.3102L279.026 63.944ZM276.686 63.944H275.686V64.944H276.686V63.944ZM276.686 45.8V44.8H275.686V45.8H276.686ZM282.446 45.8H283.446V44.8H282.446V45.8ZM282.446 71V72H283.446V71H282.446ZM277.658 71L276.885 71.6347L277.185 72H277.658V71ZM262.754 52.856V51.856H260.638L261.981 53.4907L262.754 52.856ZM265.094 52.856H266.094V51.856H265.094V52.856ZM265.094 71V72H266.094V71H265.094ZM260.334 71V45.8H258.334V71H260.334ZM259.334 46.8H264.158V44.8H259.334V46.8ZM263.384 46.4338L278.252 64.5778L279.799 63.3102L264.931 45.1662L263.384 46.4338ZM279.026 62.944H276.686V64.944H279.026V62.944ZM277.686 63.944V45.8H275.686V63.944H277.686ZM276.686 46.8H282.446V44.8H276.686V46.8ZM281.446 45.8V71H283.446V45.8H281.446ZM282.446 70H277.658V72H282.446V70ZM278.43 70.3653L263.526 52.2213L261.981 53.4907L276.885 71.6347L278.43 70.3653ZM262.754 53.856H265.094V51.856H262.754V53.856ZM264.094 52.856V71H266.094V52.856H264.094ZM265.094 70H259.334V72H265.094V70Z" fill="white" mask="url(#path-1-outside-1_1_473)"/>
</svg>
