<svg width="444" height="35" viewBox="0 0 444 35" fill="none" xmlns="http://www.w3.org/2000/svg">
<mask id="path-1-outside-1_1_279" maskUnits="userSpaceOnUse" x="0" y="0" width="444" height="35" fill="black">
<rect fill="white" width="444" height="35"/>
<path d="M12.044 33L1.968 2.2H9.36L18.116 29.48H14.42L23.572 2.2H30.172L38.972 29.48H35.408L44.384 2.2H51.204L41.128 33H33.472L25.684 9.064H27.708L19.7 33H12.044ZM50.104 33L63.832 2.2H70.872L84.644 33H77.164L65.9 5.808H68.716L57.408 33H50.104ZM56.968 26.4L58.86 20.988H74.7L76.636 26.4H56.968ZM92.6726 33V8.008H82.8166V2.2H109.657V8.008H99.8006V33H92.6726ZM127.802 33.528C125.426 33.528 123.211 33.1467 121.158 32.384C119.134 31.592 117.374 30.4773 115.878 29.04C114.382 27.6027 113.209 25.916 112.358 23.98C111.537 22.044 111.126 19.9173 111.126 17.6C111.126 15.2827 111.537 13.156 112.358 11.22C113.209 9.284 114.382 7.59733 115.878 6.16C117.403 4.72267 119.178 3.62266 121.202 2.86C123.226 2.068 125.441 1.672 127.846 1.672C130.515 1.672 132.921 2.14133 135.062 3.08C137.233 3.98933 139.051 5.33867 140.518 7.128L135.942 11.352C134.886 10.1493 133.713 9.25466 132.422 8.668C131.131 8.052 129.723 7.744 128.198 7.744C126.761 7.744 125.441 7.97867 124.238 8.448C123.035 8.91733 121.994 9.592 121.114 10.472C120.234 11.352 119.545 12.3933 119.046 13.596C118.577 14.7987 118.342 16.1333 118.342 17.6C118.342 19.0667 118.577 20.4013 119.046 21.604C119.545 22.8067 120.234 23.848 121.114 24.728C121.994 25.608 123.035 26.2827 124.238 26.752C125.441 27.2213 126.761 27.456 128.198 27.456C129.723 27.456 131.131 27.1627 132.422 26.576C133.713 25.96 134.886 25.036 135.942 23.804L140.518 28.028C139.051 29.8173 137.233 31.1813 135.062 32.12C132.921 33.0587 130.501 33.528 127.802 33.528ZM166.452 2.2H173.58V33H166.452V2.2ZM152.46 33H145.332V2.2H152.46V33ZM166.98 20.372H151.932V14.344H166.98V20.372Z"/>
<path d="M199.708 33V8.008H189.852V2.2H216.692V8.008H206.836V33H199.708ZM241.647 2.2H248.775V33H241.647V2.2ZM227.655 33H220.527V2.2H227.655V33ZM242.175 20.372H227.127V14.344H242.175V20.372ZM262.618 14.608H277.446V20.152H262.618V14.608ZM263.146 27.28H279.91V33H256.062V2.2H279.338V7.92H263.146V27.28ZM307.283 33L293.995 2.2H301.695L313.311 29.48H308.779L320.571 2.2H327.655L314.323 33H307.283ZM330.226 33V2.2H337.354V33H330.226ZM344.664 33V2.2H358.656C362 2.2 364.948 2.84533 367.5 4.136C370.052 5.39733 372.046 7.172 373.484 9.46C374.921 11.748 375.64 14.4613 375.64 17.6C375.64 20.7093 374.921 23.4227 373.484 25.74C372.046 28.028 370.052 29.8173 367.5 31.108C364.948 32.3693 362 33 358.656 33H344.664ZM351.792 27.148H358.304C360.357 27.148 362.132 26.7667 363.628 26.004C365.153 25.212 366.326 24.0973 367.148 22.66C367.998 21.2227 368.424 19.536 368.424 17.6C368.424 15.6347 367.998 13.948 367.148 12.54C366.326 11.1027 365.153 10.0027 363.628 9.24C362.132 8.448 360.357 8.052 358.304 8.052H351.792V27.148ZM387.571 14.608H402.399V20.152H387.571V14.608ZM388.099 27.28H404.863V33H381.015V2.2H404.291V7.92H388.099V27.28ZM425.495 33.528C423.06 33.528 420.801 33.132 418.719 32.34C416.665 31.548 414.876 30.4333 413.351 28.996C411.855 27.5587 410.681 25.872 409.831 23.936C409.009 22 408.599 19.888 408.599 17.6C408.599 15.312 409.009 13.2 409.831 11.264C410.681 9.328 411.869 7.64133 413.395 6.204C414.92 4.76666 416.709 3.652 418.763 2.86C420.816 2.068 423.045 1.672 425.451 1.672C427.885 1.672 430.115 2.068 432.139 2.86C434.192 3.652 435.967 4.76666 437.463 6.204C438.988 7.64133 440.176 9.328 441.027 11.264C441.877 13.1707 442.303 15.2827 442.303 17.6C442.303 19.888 441.877 22.0147 441.027 23.98C440.176 25.916 438.988 27.6027 437.463 29.04C435.967 30.448 434.192 31.548 432.139 32.34C430.115 33.132 427.9 33.528 425.495 33.528ZM425.451 27.456C426.829 27.456 428.091 27.2213 429.235 26.752C430.408 26.2827 431.435 25.608 432.315 24.728C433.195 23.848 433.869 22.8067 434.339 21.604C434.837 20.4013 435.087 19.0667 435.087 17.6C435.087 16.1333 434.837 14.7987 434.339 13.596C433.869 12.3933 433.195 11.352 432.315 10.472C431.464 9.592 430.452 8.91733 429.279 8.448C428.105 7.97867 426.829 7.744 425.451 7.744C424.072 7.744 422.796 7.97867 421.623 8.448C420.479 8.91733 419.467 9.592 418.587 10.472C417.707 11.352 417.017 12.3933 416.519 13.596C416.049 14.7987 415.815 16.1333 415.815 17.6C415.815 19.0373 416.049 20.372 416.519 21.604C417.017 22.8067 417.692 23.848 418.543 24.728C419.423 25.608 420.449 26.2827 421.623 26.752C422.796 27.2213 424.072 27.456 425.451 27.456Z"/>
</mask>
<path d="M199.708 33V8.008H189.852V2.2H216.692V8.008H206.836V33H199.708ZM241.647 2.2H248.775V33H241.647V2.2ZM227.655 33H220.527V2.2H227.655V33ZM242.175 20.372H227.127V14.344H242.175V20.372ZM262.618 14.608H277.446V20.152H262.618V14.608ZM263.146 27.28H279.91V33H256.062V2.2H279.338V7.92H263.146V27.28ZM307.283 33L293.995 2.2H301.695L313.311 29.48H308.779L320.571 2.2H327.655L314.323 33H307.283ZM330.226 33V2.2H337.354V33H330.226ZM344.664 33V2.2H358.656C362 2.2 364.948 2.84533 367.5 4.136C370.052 5.39733 372.046 7.172 373.484 9.46C374.921 11.748 375.64 14.4613 375.64 17.6C375.64 20.7093 374.921 23.4227 373.484 25.74C372.046 28.028 370.052 29.8173 367.5 31.108C364.948 32.3693 362 33 358.656 33H344.664ZM351.792 27.148H358.304C360.357 27.148 362.132 26.7667 363.628 26.004C365.153 25.212 366.326 24.0973 367.148 22.66C367.998 21.2227 368.424 19.536 368.424 17.6C368.424 15.6347 367.998 13.948 367.148 12.54C366.326 11.1027 365.153 10.0027 363.628 9.24C362.132 8.448 360.357 8.052 358.304 8.052H351.792V27.148ZM387.571 14.608H402.399V20.152H387.571V14.608ZM388.099 27.28H404.863V33H381.015V2.2H404.291V7.92H388.099V27.28ZM425.495 33.528C423.06 33.528 420.801 33.132 418.719 32.34C416.665 31.548 414.876 30.4333 413.351 28.996C411.855 27.5587 410.681 25.872 409.831 23.936C409.009 22 408.599 19.888 408.599 17.6C408.599 15.312 409.009 13.2 409.831 11.264C410.681 9.328 411.869 7.64133 413.395 6.204C414.92 4.76666 416.709 3.652 418.763 2.86C420.816 2.068 423.045 1.672 425.451 1.672C427.885 1.672 430.115 2.068 432.139 2.86C434.192 3.652 435.967 4.76666 437.463 6.204C438.988 7.64133 440.176 9.328 441.027 11.264C441.877 13.1707 442.303 15.2827 442.303 17.6C442.303 19.888 441.877 22.0147 441.027 23.98C440.176 25.916 438.988 27.6027 437.463 29.04C435.967 30.448 434.192 31.548 432.139 32.34C430.115 33.132 427.9 33.528 425.495 33.528ZM425.451 27.456C426.829 27.456 428.091 27.2213 429.235 26.752C430.408 26.2827 431.435 25.608 432.315 24.728C433.195 23.848 433.869 22.8067 434.339 21.604C434.837 20.4013 435.087 19.0667 435.087 17.6C435.087 16.1333 434.837 14.7987 434.339 13.596C433.869 12.3933 433.195 11.352 432.315 10.472C431.464 9.592 430.452 8.91733 429.279 8.448C428.105 7.97867 426.829 7.744 425.451 7.744C424.072 7.744 422.796 7.97867 421.623 8.448C420.479 8.91733 419.467 9.592 418.587 10.472C417.707 11.352 417.017 12.3933 416.519 13.596C416.049 14.7987 415.815 16.1333 415.815 17.6C415.815 19.0373 416.049 20.372 416.519 21.604C417.017 22.8067 417.692 23.848 418.543 24.728C419.423 25.608 420.449 26.2827 421.623 26.752C422.796 27.2213 424.072 27.456 425.451 27.456Z" fill="white"/>
<path d="M12.044 33L11.0936 33.3109L11.319 34H12.044V33ZM1.968 2.2V1.2H0.588706L1.01757 2.51093L1.968 2.2ZM9.36 2.2L10.3122 1.89439L10.0893 1.2H9.36V2.2ZM18.116 29.48V30.48H19.4872L19.0682 29.1744L18.116 29.48ZM14.42 29.48L13.4719 29.1619L13.0297 30.48H14.42V29.48ZM23.572 2.2V1.2H22.8527L22.6239 1.88194L23.572 2.2ZM30.172 2.2L31.1237 1.89299L30.9002 1.2H30.172V2.2ZM38.972 29.48V30.48H40.3453L39.9237 29.173L38.972 29.48ZM35.408 29.48L34.4581 29.1674L34.0262 30.48H35.408V29.48ZM44.384 2.2V1.2H43.6603L43.4341 1.88745L44.384 2.2ZM51.204 2.2L52.1544 2.51093L52.5833 1.2H51.204V2.2ZM41.128 33V34H41.853L42.0784 33.3109L41.128 33ZM33.472 33L32.5211 33.3094L32.7458 34H33.472V33ZM25.684 9.064V8.064H24.307L24.7331 9.3734L25.684 9.064ZM27.708 9.064L28.6563 9.38127L29.097 8.064H27.708V9.064ZM19.7 33V34H20.4199L20.6483 33.3173L19.7 33ZM12.9944 32.6891L2.91843 1.88907L1.01757 2.51093L11.0936 33.3109L12.9944 32.6891ZM1.968 3.2H9.36V1.2H1.968V3.2ZM8.40784 2.50561L17.1638 29.7856L19.0682 29.1744L10.3122 1.89439L8.40784 2.50561ZM18.116 28.48H14.42V30.48H18.116V28.48ZM15.3681 29.7981L24.5201 2.51806L22.6239 1.88194L13.4719 29.1619L15.3681 29.7981ZM23.572 3.2H30.172V1.2H23.572V3.2ZM29.2203 2.507L38.0203 29.787L39.9237 29.173L31.1237 1.89299L29.2203 2.507ZM38.972 28.48H35.408V30.48H38.972V28.48ZM36.3579 29.7925L45.3339 2.51255L43.4341 1.88745L34.4581 29.1674L36.3579 29.7925ZM44.384 3.2H51.204V1.2H44.384V3.2ZM50.2536 1.88907L40.1776 32.6891L42.0784 33.3109L52.1544 2.51093L50.2536 1.88907ZM41.128 32H33.472V34H41.128V32ZM34.4229 32.6906L26.6349 8.7546L24.7331 9.3734L32.5211 33.3094L34.4229 32.6906ZM25.684 10.064H27.708V8.064H25.684V10.064ZM26.7597 8.74673L18.7517 32.6827L20.6483 33.3173L28.6563 9.38127L26.7597 8.74673ZM19.7 32H12.044V34H19.7V32ZM50.104 33L49.1906 32.5929L48.5635 34H50.104V33ZM63.832 2.2V1.2H63.1829L62.9186 1.79289L63.832 2.2ZM70.872 2.2L71.7849 1.7918L71.5203 1.2H70.872V2.2ZM84.644 33V34H86.1866L85.5569 32.5918L84.644 33ZM77.164 33L76.2401 33.3827L76.4958 34H77.164V33ZM65.9 5.808V4.808H64.4034L64.9761 6.1907L65.9 5.808ZM68.716 5.808L69.6393 6.19198L70.2149 4.808H68.716V5.808ZM57.408 33V34H58.0752L58.3313 33.384L57.408 33ZM56.968 26.4L56.024 26.07L55.5591 27.4H56.968V26.4ZM58.86 20.988V19.988H58.1502L57.916 20.658L58.86 20.988ZM74.7 20.988L75.6416 20.6512L75.4043 19.988H74.7V20.988ZM76.636 26.4V27.4H78.0558L77.5776 26.0632L76.636 26.4ZM51.0174 33.4071L64.7454 2.6071L62.9186 1.79289L49.1906 32.5929L51.0174 33.4071ZM63.832 3.2H70.872V1.2H63.832V3.2ZM69.9591 2.60819L83.7311 33.4082L85.5569 32.5918L71.7849 1.7918L69.9591 2.60819ZM84.644 32H77.164V34H84.644V32ZM78.0879 32.6173L66.8239 5.42529L64.9761 6.1907L76.2401 33.3827L78.0879 32.6173ZM65.9 6.808H68.716V4.808H65.9V6.808ZM67.7927 5.42402L56.4847 32.616L58.3313 33.384L69.6393 6.19198L67.7927 5.42402ZM57.408 32H50.104V34H57.408V32ZM57.912 26.73L59.804 21.318L57.916 20.658L56.024 26.07L57.912 26.73ZM58.86 21.988H74.7V19.988H58.86V21.988ZM73.7584 21.3248L75.6944 26.7368L77.5776 26.0632L75.6416 20.6512L73.7584 21.3248ZM76.636 25.4H56.968V27.4H76.636V25.4ZM92.6726 33H91.6726V34H92.6726V33ZM92.6726 8.008H93.6726V7.008H92.6726V8.008ZM82.8166 8.008H81.8166V9.008H82.8166V8.008ZM82.8166 2.2V1.2H81.8166V2.2H82.8166ZM109.657 2.2H110.657V1.2H109.657V2.2ZM109.657 8.008V9.008H110.657V8.008H109.657ZM99.8006 8.008V7.008H98.8006V8.008H99.8006ZM99.8006 33V34H100.801V33H99.8006ZM93.6726 33V8.008H91.6726V33H93.6726ZM92.6726 7.008H82.8166V9.008H92.6726V7.008ZM83.8166 8.008V2.2H81.8166V8.008H83.8166ZM82.8166 3.2H109.657V1.2H82.8166V3.2ZM108.657 2.2V8.008H110.657V2.2H108.657ZM109.657 7.008H99.8006V9.008H109.657V7.008ZM98.8006 8.008V33H100.801V8.008H98.8006ZM99.8006 32H92.6726V34H99.8006V32ZM121.158 32.384L120.794 33.3152L120.802 33.3184L120.81 33.3214L121.158 32.384ZM115.878 29.04L115.185 29.7611L115.878 29.04ZM112.358 23.98L111.438 24.3706L111.443 24.3823L112.358 23.98ZM112.358 11.22L111.443 10.8177L111.438 10.8294L112.358 11.22ZM115.878 6.16L115.192 5.43218L115.185 5.43889L115.878 6.16ZM121.202 2.86L121.555 3.79584L121.567 3.79124L121.202 2.86ZM135.062 3.08L134.661 3.99587L134.668 3.99917L134.676 4.00234L135.062 3.08ZM140.518 7.128L141.196 7.8628L141.889 7.22328L141.292 6.49407L140.518 7.128ZM135.942 11.352L135.191 12.0118L135.867 12.7822L136.62 12.0868L135.942 11.352ZM132.422 8.668L131.991 9.57048L132 9.5745L132.008 9.57837L132.422 8.668ZM121.114 10.472L121.821 11.1791L121.114 10.472ZM119.046 13.596L118.122 13.213L118.118 13.2227L118.115 13.2325L119.046 13.596ZM119.046 21.604L118.115 21.9675L118.118 21.9773L118.122 21.987L119.046 21.604ZM121.114 24.728L120.407 25.4351V25.4351L121.114 24.728ZM132.422 26.576L132.836 27.4864L132.844 27.4825L132.853 27.4785L132.422 26.576ZM135.942 23.804L136.62 23.0692L135.858 22.3655L135.183 23.1532L135.942 23.804ZM140.518 28.028L141.292 28.6619L141.889 27.9327L141.196 27.2932L140.518 28.028ZM135.062 32.12L134.665 31.2021L134.661 31.2041L135.062 32.12ZM127.802 32.528C125.535 32.528 123.439 32.1645 121.506 31.4466L120.81 33.3214C122.984 34.1289 125.317 34.528 127.802 34.528V32.528ZM121.523 31.4528C119.615 30.7063 117.968 29.661 116.571 28.3189L115.185 29.7611C116.78 31.2937 118.653 32.4777 120.794 33.3152L121.523 31.4528ZM116.571 28.3189C115.171 26.974 114.073 25.3963 113.274 23.5777L111.443 24.3823C112.345 26.4357 113.593 28.2313 115.185 29.7611L116.571 28.3189ZM113.279 23.5895C112.515 21.789 112.126 19.7969 112.126 17.6H110.126C110.126 20.0378 110.559 22.299 111.438 24.3705L113.279 23.5895ZM112.126 17.6C112.126 15.4031 112.515 13.411 113.279 11.6105L111.438 10.8294C110.559 12.901 110.126 15.1622 110.126 17.6H112.126ZM113.274 11.6223C114.073 9.80373 115.171 8.22598 116.571 6.8811L115.185 5.43889C113.593 6.96868 112.345 8.76427 111.443 10.8177L113.274 11.6223ZM116.564 6.88779C117.99 5.54404 119.65 4.51334 121.555 3.79577L120.85 1.92423C118.706 2.73199 116.817 3.90129 115.192 5.43221L116.564 6.88779ZM121.567 3.79124C123.463 3.04928 125.552 2.672 127.846 2.672V0.671999C125.329 0.671999 122.99 1.08671 120.838 1.92875L121.567 3.79124ZM127.846 2.672C130.397 2.672 132.663 3.12002 134.661 3.99587L135.464 2.16413C133.179 1.16265 130.634 0.671999 127.846 0.671999V2.672ZM134.676 4.00234C136.699 4.8497 138.383 6.10113 139.745 7.76193L141.292 6.49407C139.72 4.5762 137.767 3.12896 135.449 2.15766L134.676 4.00234ZM139.84 6.3932L135.264 10.6172L136.62 12.0868L141.196 7.8628L139.84 6.3932ZM136.694 10.6922C135.556 9.39677 134.271 8.41007 132.836 7.75763L132.008 9.57837C133.154 10.0993 134.216 10.9019 135.191 12.0118L136.694 10.6922ZM132.853 7.76552C131.419 7.08109 129.862 6.744 128.198 6.744V8.744C129.585 8.744 130.844 9.02291 131.991 9.57048L132.853 7.76552ZM128.198 6.744C126.651 6.744 125.206 6.99703 123.875 7.51642L124.602 9.37958C125.676 8.96031 126.871 8.744 128.198 8.744V6.744ZM123.875 7.51642C122.548 8.0341 121.388 8.78345 120.407 9.76489L121.821 11.1791C122.6 10.4005 123.523 9.80056 124.602 9.37958L123.875 7.51642ZM120.407 9.76489C119.43 10.7419 118.669 11.8948 118.122 13.213L119.97 13.979C120.421 12.8919 121.038 11.9621 121.821 11.1791L120.407 9.76489ZM118.115 13.2325C117.594 14.5657 117.342 16.0257 117.342 17.6H119.342C119.342 16.2409 119.559 15.0317 119.978 13.9595L118.115 13.2325ZM117.342 17.6C117.342 19.1743 117.594 20.6343 118.115 21.9675L119.978 21.2405C119.559 20.1683 119.342 18.9591 119.342 17.6H117.342ZM118.122 21.987C118.669 23.3052 119.43 24.4581 120.407 25.4351L121.821 24.0209C121.038 23.2379 120.421 22.3081 119.97 21.221L118.122 21.987ZM120.407 25.4351C121.388 26.4165 122.548 27.1659 123.875 27.6836L124.602 25.8204C123.523 25.3994 122.6 24.7995 121.821 24.0209L120.407 25.4351ZM123.875 27.6836C125.206 28.203 126.651 28.456 128.198 28.456V26.456C126.871 26.456 125.676 26.2397 124.602 25.8204L123.875 27.6836ZM128.198 28.456C129.855 28.456 131.406 28.1365 132.836 27.4864L132.008 25.6656C130.857 26.1888 129.592 26.456 128.198 26.456V28.456ZM132.853 27.4785C134.285 26.7948 135.567 25.7784 136.701 24.4548L135.183 23.1532C134.205 24.2936 133.14 25.1252 131.991 25.6735L132.853 27.4785ZM135.264 24.5388L139.84 28.7628L141.196 27.2932L136.62 23.0692L135.264 24.5388ZM139.745 27.3941C138.381 29.0573 136.693 30.3253 134.665 31.2021L135.459 33.0379C137.773 32.0374 139.722 30.5774 141.292 28.6619L139.745 27.3941ZM134.661 31.2041C132.664 32.0794 130.384 32.528 127.802 32.528V34.528C130.618 34.528 133.178 34.0379 135.464 33.0359L134.661 31.2041ZM166.452 2.2V1.2H165.452V2.2H166.452ZM173.58 2.2H174.58V1.2H173.58V2.2ZM173.58 33V34H174.58V33H173.58ZM166.452 33H165.452V34H166.452V33ZM152.46 33V34H153.46V33H152.46ZM145.332 33H144.332V34H145.332V33ZM145.332 2.2V1.2H144.332V2.2H145.332ZM152.46 2.2H153.46V1.2H152.46V2.2ZM166.98 20.372V21.372H167.98V20.372H166.98ZM151.932 20.372H150.932V21.372H151.932V20.372ZM151.932 14.344V13.344H150.932V14.344H151.932ZM166.98 14.344H167.98V13.344H166.98V14.344ZM166.452 3.2H173.58V1.2H166.452V3.2ZM172.58 2.2V33H174.58V2.2H172.58ZM173.58 32H166.452V34H173.58V32ZM167.452 33V2.2H165.452V33H167.452ZM152.46 32H145.332V34H152.46V32ZM146.332 33V2.2H144.332V33H146.332ZM145.332 3.2H152.46V1.2H145.332V3.2ZM151.46 2.2V33H153.46V2.2H151.46ZM166.98 19.372H151.932V21.372H166.98V19.372ZM152.932 20.372V14.344H150.932V20.372H152.932ZM151.932 15.344H166.98V13.344H151.932V15.344ZM165.98 14.344V20.372H167.98V14.344H165.98ZM199.708 33H198.708V34H199.708V33ZM199.708 8.008H200.708V7.008H199.708V8.008ZM189.852 8.008H188.852V9.008H189.852V8.008ZM189.852 2.2V1.2H188.852V2.2H189.852ZM216.692 2.2H217.692V1.2H216.692V2.2ZM216.692 8.008V9.008H217.692V8.008H216.692ZM206.836 8.008V7.008H205.836V8.008H206.836ZM206.836 33V34H207.836V33H206.836ZM200.708 33V8.008H198.708V33H200.708ZM199.708 7.008H189.852V9.008H199.708V7.008ZM190.852 8.008V2.2H188.852V8.008H190.852ZM189.852 3.2H216.692V1.2H189.852V3.2ZM215.692 2.2V8.008H217.692V2.2H215.692ZM216.692 7.008H206.836V9.008H216.692V7.008ZM205.836 8.008V33H207.836V8.008H205.836ZM206.836 32H199.708V34H206.836V32ZM241.647 2.2V1.2H240.647V2.2H241.647ZM248.775 2.2H249.775V1.2H248.775V2.2ZM248.775 33V34H249.775V33H248.775ZM241.647 33H240.647V34H241.647V33ZM227.655 33V34H228.655V33H227.655ZM220.527 33H219.527V34H220.527V33ZM220.527 2.2V1.2H219.527V2.2H220.527ZM227.655 2.2H228.655V1.2H227.655V2.2ZM242.175 20.372V21.372H243.175V20.372H242.175ZM227.127 20.372H226.127V21.372H227.127V20.372ZM227.127 14.344V13.344H226.127V14.344H227.127ZM242.175 14.344H243.175V13.344H242.175V14.344ZM241.647 3.2H248.775V1.2H241.647V3.2ZM247.775 2.2V33H249.775V2.2H247.775ZM248.775 32H241.647V34H248.775V32ZM242.647 33V2.2H240.647V33H242.647ZM227.655 32H220.527V34H227.655V32ZM221.527 33V2.2H219.527V33H221.527ZM220.527 3.2H227.655V1.2H220.527V3.2ZM226.655 2.2V33H228.655V2.2H226.655ZM242.175 19.372H227.127V21.372H242.175V19.372ZM228.127 20.372V14.344H226.127V20.372H228.127ZM227.127 15.344H242.175V13.344H227.127V15.344ZM241.175 14.344V20.372H243.175V14.344H241.175ZM262.618 14.608V13.608H261.618V14.608H262.618ZM277.446 14.608H278.446V13.608H277.446V14.608ZM277.446 20.152V21.152H278.446V20.152H277.446ZM262.618 20.152H261.618V21.152H262.618V20.152ZM263.146 27.28H262.146V28.28H263.146V27.28ZM279.91 27.28H280.91V26.28H279.91V27.28ZM279.91 33V34H280.91V33H279.91ZM256.062 33H255.062V34H256.062V33ZM256.062 2.2V1.2H255.062V2.2H256.062ZM279.338 2.2H280.338V1.2H279.338V2.2ZM279.338 7.92V8.92H280.338V7.92H279.338ZM263.146 7.92V6.92H262.146V7.92H263.146ZM262.618 15.608H277.446V13.608H262.618V15.608ZM276.446 14.608V20.152H278.446V14.608H276.446ZM277.446 19.152H262.618V21.152H277.446V19.152ZM263.618 20.152V14.608H261.618V20.152H263.618ZM263.146 28.28H279.91V26.28H263.146V28.28ZM278.91 27.28V33H280.91V27.28H278.91ZM279.91 32H256.062V34H279.91V32ZM257.062 33V2.2H255.062V33H257.062ZM256.062 3.2H279.338V1.2H256.062V3.2ZM278.338 2.2V7.92H280.338V2.2H278.338ZM279.338 6.92H263.146V8.92H279.338V6.92ZM262.146 7.92V27.28H264.146V7.92H262.146ZM307.283 33L306.364 33.3961L306.625 34H307.283V33ZM293.995 2.2V1.2H292.474L293.076 2.59613L293.995 2.2ZM301.695 2.2L302.615 1.80823L302.356 1.2H301.695V2.2ZM313.311 29.48V30.48H314.823L314.231 29.0882L313.311 29.48ZM308.779 29.48L307.861 29.0832L307.257 30.48H308.779V29.48ZM320.571 2.2V1.2H319.913L319.653 1.80322L320.571 2.2ZM327.655 2.2L328.572 2.59724L329.177 1.2H327.655V2.2ZM314.323 33V34H314.979L315.24 33.3972L314.323 33ZM308.201 32.6039L294.913 1.80386L293.076 2.59613L306.364 33.3961L308.201 32.6039ZM293.995 3.2H301.695V1.2H293.995V3.2ZM300.775 2.59177L312.391 29.8718L314.231 29.0882L302.615 1.80823L300.775 2.59177ZM313.311 28.48H308.779V30.48H313.311V28.48ZM309.697 29.8768L321.489 2.59677L319.653 1.80322L307.861 29.0832L309.697 29.8768ZM320.571 3.2H327.655V1.2H320.571V3.2ZM326.737 1.80276L313.405 32.6028L315.24 33.3972L328.572 2.59724L326.737 1.80276ZM314.323 32H307.283V34H314.323V32ZM330.226 33H329.226V34H330.226V33ZM330.226 2.2V1.2H329.226V2.2H330.226ZM337.354 2.2H338.354V1.2H337.354V2.2ZM337.354 33V34H338.354V33H337.354ZM331.226 33V2.2H329.226V33H331.226ZM330.226 3.2H337.354V1.2H330.226V3.2ZM336.354 2.2V33H338.354V2.2H336.354ZM337.354 32H330.226V34H337.354V32ZM344.664 33H343.664V34H344.664V33ZM344.664 2.2V1.2H343.664V2.2H344.664ZM367.5 4.136L367.048 5.0284L367.057 5.03248L367.5 4.136ZM373.484 9.46L372.637 9.99195L373.484 9.46ZM373.484 25.74L374.331 26.272L374.334 26.2671L373.484 25.74ZM367.5 31.108L367.943 32.0045L367.951 32.0004L367.5 31.108ZM351.792 27.148H350.792V28.148H351.792V27.148ZM363.628 26.004L364.082 26.8949L364.089 26.8915L363.628 26.004ZM367.148 22.66L366.287 22.1507L366.283 22.1572L366.279 22.1639L367.148 22.66ZM367.148 12.54L366.279 13.0361L366.286 13.0467L366.292 13.0571L367.148 12.54ZM363.628 9.24L363.16 10.1238L363.17 10.1292L363.181 10.1344L363.628 9.24ZM351.792 8.052V7.052H350.792V8.052H351.792ZM345.664 33V2.2H343.664V33H345.664ZM344.664 3.2H358.656V1.2H344.664V3.2ZM358.656 3.2C361.869 3.2 364.658 3.81952 367.048 5.02837L367.951 3.24363C365.237 1.87114 362.13 1.2 358.656 1.2V3.2ZM367.057 5.03248C369.452 6.21652 371.303 7.86896 372.637 9.99195L374.331 8.92805C372.789 6.47504 370.651 4.57815 367.943 3.23952L367.057 5.03248ZM372.637 9.99195C373.959 12.0962 374.64 14.6185 374.64 17.6H376.64C376.64 14.3041 375.883 11.3998 374.331 8.92805L372.637 9.99195ZM374.64 17.6C374.64 20.5498 373.96 23.0751 372.634 25.2129L374.334 26.2671C375.882 23.7702 376.64 20.8689 376.64 17.6H374.64ZM372.637 25.208C371.302 27.3331 369.448 29.002 367.048 30.2156L367.951 32.0004C370.655 30.6327 372.791 28.7229 374.331 26.2719L372.637 25.208ZM367.057 30.2115C364.665 31.3938 361.873 32 358.656 32V34C362.127 34 365.231 33.3448 367.943 32.0045L367.057 30.2115ZM358.656 32H344.664V34H358.656V32ZM351.792 28.148H358.304V26.148H351.792V28.148ZM358.304 28.148C360.48 28.148 362.417 27.7435 364.082 26.8949L363.174 25.1131C361.846 25.7898 360.234 26.148 358.304 26.148V28.148ZM364.089 26.8915C365.778 26.0145 367.095 24.767 368.016 23.1561L366.279 22.1639C365.557 23.4277 364.529 24.4095 363.167 25.1165L364.089 26.8915ZM368.008 23.1693C368.964 21.5547 369.424 19.6863 369.424 17.6H367.424C367.424 19.3857 367.033 20.8907 366.287 22.1507L368.008 23.1693ZM369.424 17.6C369.424 15.4881 368.965 13.6149 368.004 12.0229L366.292 13.0571C367.031 14.2811 367.424 15.7812 367.424 17.6H369.424ZM368.016 12.0439C367.094 10.4297 365.771 9.19371 364.075 8.34557L363.181 10.1344C364.535 10.8116 365.559 11.7756 366.279 13.0361L368.016 12.0439ZM364.096 8.35621C362.428 7.47327 360.486 7.052 358.304 7.052V9.052C360.228 9.052 361.836 9.42273 363.16 10.1238L364.096 8.35621ZM358.304 7.052H351.792V9.052H358.304V7.052ZM350.792 8.052V27.148H352.792V8.052H350.792ZM387.571 14.608V13.608H386.571V14.608H387.571ZM402.399 14.608H403.399V13.608H402.399V14.608ZM402.399 20.152V21.152H403.399V20.152H402.399ZM387.571 20.152H386.571V21.152H387.571V20.152ZM388.099 27.28H387.099V28.28H388.099V27.28ZM404.863 27.28H405.863V26.28H404.863V27.28ZM404.863 33V34H405.863V33H404.863ZM381.015 33H380.015V34H381.015V33ZM381.015 2.2V1.2H380.015V2.2H381.015ZM404.291 2.2H405.291V1.2H404.291V2.2ZM404.291 7.92V8.92H405.291V7.92H404.291ZM388.099 7.92V6.92H387.099V7.92H388.099ZM387.571 15.608H402.399V13.608H387.571V15.608ZM401.399 14.608V20.152H403.399V14.608H401.399ZM402.399 19.152H387.571V21.152H402.399V19.152ZM388.571 20.152V14.608H386.571V20.152H388.571ZM388.099 28.28H404.863V26.28H388.099V28.28ZM403.863 27.28V33H405.863V27.28H403.863ZM404.863 32H381.015V34H404.863V32ZM382.015 33V2.2H380.015V33H382.015ZM381.015 3.2H404.291V1.2H381.015V3.2ZM403.291 2.2V7.92H405.291V2.2H403.291ZM404.291 6.92H388.099V8.92H404.291V6.92ZM387.099 7.92V27.28H389.099V7.92H387.099ZM418.719 32.34L418.359 33.273L418.363 33.2747L418.719 32.34ZM413.351 28.996L412.658 29.7171L412.665 29.7238L413.351 28.996ZM409.831 23.936L408.91 24.3266L408.915 24.3383L409.831 23.936ZM409.831 11.264L408.915 10.8617L408.91 10.8734L409.831 11.264ZM413.395 6.204L414.081 6.93179L413.395 6.204ZM418.763 2.86L418.403 1.927L418.763 2.86ZM432.139 2.86L431.774 3.79125L431.779 3.793L432.139 2.86ZM437.463 6.204L436.77 6.92514L436.777 6.93179L437.463 6.204ZM441.027 11.264L440.111 11.6663L440.114 11.6714L441.027 11.264ZM441.027 23.98L441.942 24.3823L441.945 24.3772L441.027 23.98ZM437.463 29.04L438.148 29.7682L438.149 29.7678L437.463 29.04ZM432.139 32.34L431.779 31.407L431.774 31.4088L432.139 32.34ZM429.235 26.752L428.863 25.8235L428.855 25.8268L429.235 26.752ZM432.315 24.728L431.608 24.0209L432.315 24.728ZM434.339 21.604L433.415 21.221L433.411 21.2307L433.407 21.2405L434.339 21.604ZM434.339 13.596L433.407 13.9595L433.411 13.9693L433.415 13.979L434.339 13.596ZM432.315 10.472L431.596 11.167L431.602 11.1731L431.608 11.1791L432.315 10.472ZM429.279 8.448L428.907 9.37648L429.279 8.448ZM421.623 8.448L421.251 7.51949L421.243 7.52283L421.623 8.448ZM418.587 10.472L419.294 11.1791L418.587 10.472ZM416.519 13.596L415.595 13.213L415.591 13.2227L415.587 13.2325L416.519 13.596ZM416.519 21.604L415.584 21.96L415.59 21.9736L415.595 21.987L416.519 21.604ZM418.543 24.728L417.824 25.423L417.83 25.4291L417.836 25.4351L418.543 24.728ZM421.623 26.752L421.251 27.6805L421.623 26.752ZM425.495 32.528C423.17 32.528 421.033 32.1503 419.074 31.4053L418.363 33.2747C420.57 34.1137 422.95 34.528 425.495 34.528V32.528ZM419.079 31.407C417.14 30.6593 415.463 29.6123 414.037 28.2682L412.665 29.7238C414.289 31.2544 416.191 32.4367 418.359 33.273L419.079 31.407ZM414.044 28.2749C412.644 26.93 411.545 25.3523 410.746 23.5337L408.915 24.3383C409.818 26.3917 411.066 28.1873 412.658 29.7171L414.044 28.2749ZM410.751 23.5454C409.987 21.7435 409.599 19.7657 409.599 17.6H407.599C407.599 20.0103 408.032 22.2565 408.91 24.3265L410.751 23.5454ZM409.599 17.6C409.599 15.4343 409.987 13.4565 410.751 11.6545L408.91 10.8734C408.032 12.9435 407.599 15.1897 407.599 17.6H409.599ZM410.746 11.6663C411.544 9.85196 412.654 8.27628 414.081 6.93179L412.709 5.47621C411.085 7.00639 409.819 8.80404 408.915 10.8617L410.746 11.6663ZM414.081 6.93179C415.507 5.58774 417.184 4.54073 419.123 3.793L418.403 1.927C416.235 2.76326 414.333 3.94559 412.709 5.47621L414.081 6.93179ZM419.123 3.793C421.051 3.04923 423.157 2.672 425.451 2.672V0.671999C422.934 0.671999 420.581 1.08677 418.403 1.927L419.123 3.793ZM425.451 2.672C427.776 2.672 429.88 3.04982 431.774 3.79124L432.503 1.92875C430.35 1.08618 427.995 0.671999 425.451 0.671999V2.672ZM431.779 3.793C433.716 4.54014 435.376 5.58533 436.77 6.9251L438.156 5.48289C436.558 3.948 434.668 2.76386 432.499 1.927L431.779 3.793ZM436.777 6.93179C438.204 8.27628 439.314 9.85196 440.111 11.6663L441.942 10.8617C441.038 8.80404 439.772 7.00639 438.149 5.47621L436.777 6.93179ZM440.114 11.6714C440.901 13.4364 441.303 15.4075 441.303 17.6H443.303C443.303 15.1578 442.854 12.9049 441.94 10.8566L440.114 11.6714ZM441.303 17.6C441.303 19.7608 440.902 21.7513 440.109 23.5828L441.945 24.3772C442.853 22.2781 443.303 20.0152 443.303 17.6H441.303ZM440.111 23.5777C439.314 25.392 438.204 26.9677 436.777 28.3122L438.149 29.7678C439.772 28.2376 441.038 26.44 441.942 24.3823L440.111 23.5777ZM436.777 28.3118C435.382 29.6249 433.72 30.6582 431.779 31.407L432.499 33.273C434.664 32.4378 436.551 31.2711 438.148 29.7682L436.777 28.3118ZM431.774 31.4088C429.878 32.1507 427.789 32.528 425.495 32.528V34.528C428.012 34.528 430.351 34.1133 432.503 33.2712L431.774 31.4088ZM425.451 28.456C426.945 28.456 428.337 28.2013 429.614 27.6772L428.855 25.8268C427.845 26.2414 426.714 26.456 425.451 26.456V28.456ZM429.606 27.6805C430.903 27.1616 432.045 26.4124 433.022 25.4351L431.608 24.0209C430.825 24.8036 429.913 25.4037 428.863 25.8235L429.606 27.6805ZM433.022 25.4351C434.003 24.4537 434.753 23.2941 435.27 21.9675L433.407 21.2405C432.986 22.3192 432.386 23.2423 431.608 24.0209L433.022 25.4351ZM435.263 21.987C435.818 20.6485 436.087 19.1815 436.087 17.6H434.087C434.087 18.9518 433.857 20.1542 433.415 21.221L435.263 21.987ZM436.087 17.6C436.087 16.0185 435.818 14.5515 435.263 13.213L433.415 13.979C433.857 15.0458 434.087 16.2482 434.087 17.6H436.087ZM435.27 13.2325C434.753 11.9059 434.003 10.7463 433.022 9.76489L431.608 11.1791C432.386 11.9577 432.986 12.8808 433.407 13.9595L435.27 13.2325ZM433.034 9.77698C432.082 8.79217 430.95 8.03952 429.65 7.51952L428.907 9.37648C429.954 9.79514 430.846 10.3918 431.596 11.167L433.034 9.77698ZM429.65 7.51952C428.348 6.99881 426.945 6.744 425.451 6.744V8.744C426.714 8.744 427.863 8.95852 428.907 9.37648L429.65 7.51952ZM425.451 6.744C423.957 6.744 422.553 6.99881 421.251 7.51952L421.994 9.37648C423.039 8.95852 424.188 8.744 425.451 8.744V6.744ZM421.243 7.52283C419.976 8.04277 418.853 8.79185 417.88 9.76489L419.294 11.1791C420.081 10.3921 420.982 9.79189 422.002 9.37317L421.243 7.52283ZM417.88 9.76489C416.903 10.7419 416.142 11.8948 415.595 13.213L417.443 13.979C417.893 12.8919 418.511 11.9621 419.294 11.1791L417.88 9.76489ZM415.587 13.2325C415.067 14.5657 414.815 16.0257 414.815 17.6H416.815C416.815 16.2409 417.032 15.0317 417.45 13.9595L415.587 13.2325ZM414.815 17.6C414.815 19.148 415.068 20.6045 415.584 21.96L417.453 21.248C417.031 20.1395 416.815 18.9267 416.815 17.6H414.815ZM415.595 21.987C416.139 23.2981 416.88 24.4472 417.824 25.423L419.262 24.033C418.504 23.2488 417.896 22.3152 417.443 21.221L415.595 21.987ZM417.836 25.4351C418.813 26.4124 419.954 27.1616 421.251 27.6805L421.994 25.8235C420.945 25.4037 420.033 24.8036 419.25 24.0209L417.836 25.4351ZM421.251 27.6805C422.553 28.2012 423.957 28.456 425.451 28.456V26.456C424.188 26.456 423.039 26.2415 421.994 25.8235L421.251 27.6805Z" fill="white" mask="url(#path-1-outside-1_1_279)"/>
</svg>
