<svg width="231" height="21" viewBox="0 0 231 21" fill="none" xmlns="http://www.w3.org/2000/svg">
<mask id="path-1-outside-1_1_532" maskUnits="userSpaceOnUse" x="0" y="0" width="231" height="21" fill="black">
<rect fill="white" width="231" height="21"/>
<path d="M7.024 19L1.528 2.2H5.56L10.336 17.08H8.32L13.312 2.2H16.912L21.712 17.08H19.768L24.664 2.2H28.384L22.888 19H18.712L14.464 5.944H15.568L11.2 19H7.024ZM34.1305 8.968H42.2185V11.992H34.1305V8.968ZM34.4185 15.88H43.5625V19H30.5545V2.2H43.2505V5.32H34.4185V15.88Z"/>
<path d="M60.9169 19.288C58.5329 19.288 56.6689 18.624 55.3249 17.296C53.9809 15.968 53.3089 14.072 53.3089 11.608V2.2H57.1969V11.464C57.1969 13.064 57.5249 14.216 58.1809 14.92C58.8369 15.624 59.7569 15.976 60.9409 15.976C62.1249 15.976 63.0449 15.624 63.7009 14.92C64.3569 14.216 64.6849 13.064 64.6849 11.464V2.2H68.5249V11.608C68.5249 14.072 67.8529 15.968 66.5089 17.296C65.1649 18.624 63.3009 19.288 60.9169 19.288ZM72.367 19V2.2H75.583L85.495 14.296H83.935V2.2H87.775V19H84.583L74.647 6.904H76.207V19H72.367ZM91.7498 19V2.2H99.3818C101.206 2.2 102.814 2.552 104.206 3.256C105.598 3.944 106.686 4.912 107.47 6.16C108.254 7.408 108.646 8.888 108.646 10.6C108.646 12.296 108.254 13.776 107.47 15.04C106.686 16.288 105.598 17.264 104.206 17.968C102.814 18.656 101.206 19 99.3818 19H91.7498ZM95.6378 15.808H99.1898C100.31 15.808 101.278 15.6 102.094 15.184C102.926 14.752 103.566 14.144 104.014 13.36C104.478 12.576 104.71 11.656 104.71 10.6C104.71 9.528 104.478 8.608 104.014 7.84C103.566 7.056 102.926 6.456 102.094 6.04C101.278 5.608 100.31 5.392 99.1898 5.392H95.6378V15.808ZM115.154 8.968H123.242V11.992H115.154V8.968ZM115.442 15.88H124.586V19H111.578V2.2H124.274V5.32H115.442V15.88ZM127.68 19V2.2H134.952C136.456 2.2 137.752 2.448 138.84 2.944C139.928 3.424 140.768 4.12 141.36 5.032C141.952 5.944 142.248 7.032 142.248 8.296C142.248 9.544 141.952 10.624 141.36 11.536C140.768 12.432 139.928 13.12 138.84 13.6C137.752 14.08 136.456 14.32 134.952 14.32H129.84L131.568 12.616V19H127.68ZM138.359 19L134.16 12.904H138.312L142.56 19H138.359ZM131.568 13.048L129.84 11.224H134.736C135.936 11.224 136.832 10.968 137.424 10.456C138.016 9.928 138.312 9.208 138.312 8.296C138.312 7.368 138.016 6.648 137.424 6.136C136.832 5.624 135.936 5.368 134.736 5.368H129.84L131.568 3.52V13.048ZM150.848 19.288C149.504 19.288 148.216 19.112 146.984 18.76C145.752 18.392 144.76 17.92 144.008 17.344L145.328 14.416C146.048 14.928 146.896 15.352 147.872 15.688C148.864 16.008 149.864 16.168 150.872 16.168C151.64 16.168 152.256 16.096 152.72 15.952C153.2 15.792 153.552 15.576 153.776 15.304C154 15.032 154.112 14.72 154.112 14.368C154.112 13.92 153.936 13.568 153.584 13.312C153.232 13.04 152.768 12.824 152.192 12.664C151.616 12.488 150.976 12.328 150.272 12.184C149.584 12.024 148.888 11.832 148.184 11.608C147.496 11.384 146.864 11.096 146.288 10.744C145.712 10.392 145.24 9.928 144.872 9.352C144.52 8.776 144.344 8.04 144.344 7.144C144.344 6.184 144.6 5.312 145.112 4.528C145.64 3.728 146.424 3.096 147.464 2.632C148.52 2.152 149.84 1.912 151.424 1.912C152.48 1.912 153.52 2.04 154.544 2.296C155.568 2.536 156.472 2.904 157.256 3.4L156.056 6.352C155.272 5.904 154.488 5.576 153.704 5.368C152.92 5.144 152.152 5.032 151.4 5.032C150.648 5.032 150.032 5.12 149.552 5.296C149.072 5.472 148.728 5.704 148.52 5.992C148.312 6.264 148.208 6.584 148.208 6.952C148.208 7.384 148.384 7.736 148.736 8.008C149.088 8.264 149.552 8.472 150.128 8.632C150.704 8.792 151.336 8.952 152.024 9.112C152.728 9.272 153.424 9.456 154.112 9.664C154.816 9.872 155.456 10.152 156.032 10.504C156.608 10.856 157.072 11.32 157.424 11.896C157.792 12.472 157.976 13.2 157.976 14.08C157.976 15.024 157.712 15.888 157.184 16.672C156.656 17.456 155.864 18.088 154.808 18.568C153.768 19.048 152.448 19.288 150.848 19.288ZM163.878 19V5.368H158.502V2.2H173.142V5.368H167.766V19H163.878ZM172.182 19L179.67 2.2H183.51L191.022 19H186.942L180.798 4.168H182.334L176.166 19H172.182ZM175.926 15.4L176.958 12.448H185.598L186.654 15.4H175.926ZM192.765 19V2.2H195.981L205.893 14.296H204.333V2.2H208.173V19H204.981L195.045 6.904H196.605V19H192.765ZM212.148 19V2.2H219.78C221.604 2.2 223.212 2.552 224.604 3.256C225.996 3.944 227.084 4.912 227.868 6.16C228.652 7.408 229.044 8.888 229.044 10.6C229.044 12.296 228.652 13.776 227.868 15.04C227.084 16.288 225.996 17.264 224.604 17.968C223.212 18.656 221.604 19 219.78 19H212.148ZM216.036 15.808H219.588C220.708 15.808 221.676 15.6 222.492 15.184C223.324 14.752 223.964 14.144 224.412 13.36C224.876 12.576 225.108 11.656 225.108 10.6C225.108 9.528 224.876 8.608 224.412 7.84C223.964 7.056 223.324 6.456 222.492 6.04C221.676 5.608 220.708 5.392 219.588 5.392H216.036V15.808Z"/>
</mask>
<path d="M60.9169 19.288C58.5329 19.288 56.6689 18.624 55.3249 17.296C53.9809 15.968 53.3089 14.072 53.3089 11.608V2.2H57.1969V11.464C57.1969 13.064 57.5249 14.216 58.1809 14.92C58.8369 15.624 59.7569 15.976 60.9409 15.976C62.1249 15.976 63.0449 15.624 63.7009 14.92C64.3569 14.216 64.6849 13.064 64.6849 11.464V2.2H68.5249V11.608C68.5249 14.072 67.8529 15.968 66.5089 17.296C65.1649 18.624 63.3009 19.288 60.9169 19.288ZM72.367 19V2.2H75.583L85.495 14.296H83.935V2.2H87.775V19H84.583L74.647 6.904H76.207V19H72.367ZM91.7498 19V2.2H99.3818C101.206 2.2 102.814 2.552 104.206 3.256C105.598 3.944 106.686 4.912 107.47 6.16C108.254 7.408 108.646 8.888 108.646 10.6C108.646 12.296 108.254 13.776 107.47 15.04C106.686 16.288 105.598 17.264 104.206 17.968C102.814 18.656 101.206 19 99.3818 19H91.7498ZM95.6378 15.808H99.1898C100.31 15.808 101.278 15.6 102.094 15.184C102.926 14.752 103.566 14.144 104.014 13.36C104.478 12.576 104.71 11.656 104.71 10.6C104.71 9.528 104.478 8.608 104.014 7.84C103.566 7.056 102.926 6.456 102.094 6.04C101.278 5.608 100.31 5.392 99.1898 5.392H95.6378V15.808ZM115.154 8.968H123.242V11.992H115.154V8.968ZM115.442 15.88H124.586V19H111.578V2.2H124.274V5.32H115.442V15.88ZM127.68 19V2.2H134.952C136.456 2.2 137.752 2.448 138.84 2.944C139.928 3.424 140.768 4.12 141.36 5.032C141.952 5.944 142.248 7.032 142.248 8.296C142.248 9.544 141.952 10.624 141.36 11.536C140.768 12.432 139.928 13.12 138.84 13.6C137.752 14.08 136.456 14.32 134.952 14.32H129.84L131.568 12.616V19H127.68ZM138.359 19L134.16 12.904H138.312L142.56 19H138.359ZM131.568 13.048L129.84 11.224H134.736C135.936 11.224 136.832 10.968 137.424 10.456C138.016 9.928 138.312 9.208 138.312 8.296C138.312 7.368 138.016 6.648 137.424 6.136C136.832 5.624 135.936 5.368 134.736 5.368H129.84L131.568 3.52V13.048ZM150.848 19.288C149.504 19.288 148.216 19.112 146.984 18.76C145.752 18.392 144.76 17.92 144.008 17.344L145.328 14.416C146.048 14.928 146.896 15.352 147.872 15.688C148.864 16.008 149.864 16.168 150.872 16.168C151.64 16.168 152.256 16.096 152.72 15.952C153.2 15.792 153.552 15.576 153.776 15.304C154 15.032 154.112 14.72 154.112 14.368C154.112 13.92 153.936 13.568 153.584 13.312C153.232 13.04 152.768 12.824 152.192 12.664C151.616 12.488 150.976 12.328 150.272 12.184C149.584 12.024 148.888 11.832 148.184 11.608C147.496 11.384 146.864 11.096 146.288 10.744C145.712 10.392 145.24 9.928 144.872 9.352C144.52 8.776 144.344 8.04 144.344 7.144C144.344 6.184 144.6 5.312 145.112 4.528C145.64 3.728 146.424 3.096 147.464 2.632C148.52 2.152 149.84 1.912 151.424 1.912C152.48 1.912 153.52 2.04 154.544 2.296C155.568 2.536 156.472 2.904 157.256 3.4L156.056 6.352C155.272 5.904 154.488 5.576 153.704 5.368C152.92 5.144 152.152 5.032 151.4 5.032C150.648 5.032 150.032 5.12 149.552 5.296C149.072 5.472 148.728 5.704 148.52 5.992C148.312 6.264 148.208 6.584 148.208 6.952C148.208 7.384 148.384 7.736 148.736 8.008C149.088 8.264 149.552 8.472 150.128 8.632C150.704 8.792 151.336 8.952 152.024 9.112C152.728 9.272 153.424 9.456 154.112 9.664C154.816 9.872 155.456 10.152 156.032 10.504C156.608 10.856 157.072 11.32 157.424 11.896C157.792 12.472 157.976 13.2 157.976 14.08C157.976 15.024 157.712 15.888 157.184 16.672C156.656 17.456 155.864 18.088 154.808 18.568C153.768 19.048 152.448 19.288 150.848 19.288ZM163.878 19V5.368H158.502V2.2H173.142V5.368H167.766V19H163.878ZM172.182 19L179.67 2.2H183.51L191.022 19H186.942L180.798 4.168H182.334L176.166 19H172.182ZM175.926 15.4L176.958 12.448H185.598L186.654 15.4H175.926ZM192.765 19V2.2H195.981L205.893 14.296H204.333V2.2H208.173V19H204.981L195.045 6.904H196.605V19H192.765ZM212.148 19V2.2H219.78C221.604 2.2 223.212 2.552 224.604 3.256C225.996 3.944 227.084 4.912 227.868 6.16C228.652 7.408 229.044 8.888 229.044 10.6C229.044 12.296 228.652 13.776 227.868 15.04C227.084 16.288 225.996 17.264 224.604 17.968C223.212 18.656 221.604 19 219.78 19H212.148ZM216.036 15.808H219.588C220.708 15.808 221.676 15.6 222.492 15.184C223.324 14.752 223.964 14.144 224.412 13.36C224.876 12.576 225.108 11.656 225.108 10.6C225.108 9.528 224.876 8.608 224.412 7.84C223.964 7.056 223.324 6.456 222.492 6.04C221.676 5.608 220.708 5.392 219.588 5.392H216.036V15.808Z" fill="#333333"/>
<path d="M7.024 19L6.07357 19.3109L6.29899 20H7.024V19ZM1.528 2.2V1.2H0.148706L0.577566 2.51093L1.528 2.2ZM5.56 2.2L6.51216 1.89439L6.28928 1.2H5.56V2.2ZM10.336 17.08V18.08H11.7072L11.2882 16.7744L10.336 17.08ZM8.32 17.08L7.37193 16.7619L6.92974 18.08H8.32V17.08ZM13.312 2.2V1.2H12.5927L12.3639 1.88194L13.312 2.2ZM16.912 2.2L17.8637 1.893L17.6402 1.2H16.912V2.2ZM21.712 17.08V18.08H23.0853L22.6637 16.773L21.712 17.08ZM19.768 17.08L18.8181 16.7675L18.3862 18.08H19.768V17.08ZM24.664 2.2V1.2H23.9403L23.7141 1.88745L24.664 2.2ZM28.384 2.2L29.3344 2.51093L29.7633 1.2H28.384V2.2ZM22.888 19V20H23.613L23.8384 19.3109L22.888 19ZM18.712 19L17.7611 19.3094L17.9858 20H18.712V19ZM14.464 5.944V4.944H13.087L13.5131 6.2534L14.464 5.944ZM15.568 5.944L16.5163 6.26127L16.957 4.944H15.568V5.944ZM11.2 19V20H11.9199L12.1483 19.3173L11.2 19ZM7.97443 18.6891L2.47843 1.88907L0.577566 2.51093L6.07357 19.3109L7.97443 18.6891ZM1.528 3.2H5.56V1.2H1.528V3.2ZM4.60784 2.50561L9.38384 17.3856L11.2882 16.7744L6.51216 1.89439L4.60784 2.50561ZM10.336 16.08H8.32V18.08H10.336V16.08ZM9.26807 17.3981L14.2601 2.51806L12.3639 1.88194L7.37193 16.7619L9.26807 17.3981ZM13.312 3.2H16.912V1.2H13.312V3.2ZM15.9603 2.507L20.7603 17.387L22.6637 16.773L17.8637 1.893L15.9603 2.507ZM21.712 16.08H19.768V18.08H21.712V16.08ZM20.7179 17.3925L25.6139 2.51255L23.7141 1.88745L18.8181 16.7675L20.7179 17.3925ZM24.664 3.2H28.384V1.2H24.664V3.2ZM27.4336 1.88907L21.9376 18.6891L23.8384 19.3109L29.3344 2.51093L27.4336 1.88907ZM22.888 18H18.712V20H22.888V18ZM19.6629 18.6906L15.4149 5.6346L13.5131 6.2534L17.7611 19.3094L19.6629 18.6906ZM14.464 6.944H15.568V4.944H14.464V6.944ZM14.6197 5.62673L10.2517 18.6827L12.1483 19.3173L16.5163 6.26127L14.6197 5.62673ZM11.2 18H7.024V20H11.2V18ZM34.1305 8.968V7.968H33.1305V8.968H34.1305ZM42.2185 8.968H43.2185V7.968H42.2185V8.968ZM42.2185 11.992V12.992H43.2185V11.992H42.2185ZM34.1305 11.992H33.1305V12.992H34.1305V11.992ZM34.4185 15.88H33.4185V16.88H34.4185V15.88ZM43.5625 15.88H44.5625V14.88H43.5625V15.88ZM43.5625 19V20H44.5625V19H43.5625ZM30.5545 19H29.5545V20H30.5545V19ZM30.5545 2.2V1.2H29.5545V2.2H30.5545ZM43.2505 2.2H44.2505V1.2H43.2505V2.2ZM43.2505 5.32V6.32H44.2505V5.32H43.2505ZM34.4185 5.32V4.32H33.4185V5.32H34.4185ZM34.1305 9.968H42.2185V7.968H34.1305V9.968ZM41.2185 8.968V11.992H43.2185V8.968H41.2185ZM42.2185 10.992H34.1305V12.992H42.2185V10.992ZM35.1305 11.992V8.968H33.1305V11.992H35.1305ZM34.4185 16.88H43.5625V14.88H34.4185V16.88ZM42.5625 15.88V19H44.5625V15.88H42.5625ZM43.5625 18H30.5545V20H43.5625V18ZM31.5545 19V2.2H29.5545V19H31.5545ZM30.5545 3.2H43.2505V1.2H30.5545V3.2ZM42.2505 2.2V5.32H44.2505V2.2H42.2505ZM43.2505 4.32H34.4185V6.32H43.2505V4.32ZM33.4185 5.32V15.88H35.4185V5.32H33.4185ZM55.3249 17.296L56.0278 16.5847L55.3249 17.296ZM53.3089 2.2V1.2H52.3089V2.2H53.3089ZM57.1969 2.2H58.1969V1.2H57.1969V2.2ZM58.1809 14.92L57.4493 15.6017V15.6017L58.1809 14.92ZM63.7009 14.92L64.4325 15.6017L64.4325 15.6017L63.7009 14.92ZM64.6849 2.2V1.2H63.6849V2.2H64.6849ZM68.5249 2.2H69.5249V1.2H68.5249V2.2ZM66.5089 17.296L67.2118 18.0073L66.5089 17.296ZM60.9169 18.288C58.7237 18.288 57.1388 17.6824 56.0278 16.5847L54.6221 18.0073C56.1991 19.5656 58.3422 20.288 60.9169 20.288V18.288ZM56.0278 16.5847C54.9268 15.4968 54.3089 13.8895 54.3089 11.608H52.3089C52.3089 14.2545 53.0351 16.4392 54.6221 18.0073L56.0278 16.5847ZM54.3089 11.608V2.2H52.3089V11.608H54.3089ZM53.3089 3.2H57.1969V1.2H53.3089V3.2ZM56.1969 2.2V11.464H58.1969V2.2H56.1969ZM56.1969 11.464C56.1969 13.1599 56.5374 14.6231 57.4493 15.6017L58.9125 14.2383C58.5125 13.8089 58.1969 12.9681 58.1969 11.464H56.1969ZM57.4493 15.6017C58.3367 16.554 59.5481 16.976 60.9409 16.976V14.976C59.9657 14.976 59.3372 14.694 58.9125 14.2383L57.4493 15.6017ZM60.9409 16.976C62.3337 16.976 63.5452 16.554 64.4325 15.6017L62.9693 14.2383C62.5447 14.694 61.9161 14.976 60.9409 14.976V16.976ZM64.4325 15.6017C65.3445 14.6231 65.6849 13.1599 65.6849 11.464H63.6849C63.6849 12.9681 63.3694 13.8089 62.9693 14.2383L64.4325 15.6017ZM65.6849 11.464V2.2H63.6849V11.464H65.6849ZM64.6849 3.2H68.5249V1.2H64.6849V3.2ZM67.5249 2.2V11.608H69.5249V2.2H67.5249ZM67.5249 11.608C67.5249 13.8895 66.9071 15.4968 65.8061 16.5847L67.2118 18.0073C68.7988 16.4392 69.5249 14.2545 69.5249 11.608H67.5249ZM65.8061 16.5847C64.6951 17.6824 63.1102 18.288 60.9169 18.288V20.288C63.4917 20.288 65.6348 19.5656 67.2118 18.0073L65.8061 16.5847ZM72.367 19H71.367V20H72.367V19ZM72.367 2.2V1.2H71.367V2.2H72.367ZM75.583 2.2L76.3565 1.56618L76.0564 1.2H75.583V2.2ZM85.495 14.296V15.296H87.6073L86.2685 13.6622L85.495 14.296ZM83.935 14.296H82.935V15.296H83.935V14.296ZM83.935 2.2V1.2H82.935V2.2H83.935ZM87.775 2.2H88.775V1.2H87.775V2.2ZM87.775 19V20H88.775V19H87.775ZM84.583 19L83.8103 19.6347L84.1103 20H84.583V19ZM74.647 6.904V5.904H72.5314L73.8743 7.53874L74.647 6.904ZM76.207 6.904H77.207V5.904H76.207V6.904ZM76.207 19V20H77.207V19H76.207ZM73.367 19V2.2H71.367V19H73.367ZM72.367 3.2H75.583V1.2H72.367V3.2ZM74.8095 2.83382L84.7215 14.9298L86.2685 13.6622L76.3565 1.56618L74.8095 2.83382ZM85.495 13.296H83.935V15.296H85.495V13.296ZM84.935 14.296V2.2H82.935V14.296H84.935ZM83.935 3.2H87.775V1.2H83.935V3.2ZM86.775 2.2V19H88.775V2.2H86.775ZM87.775 18H84.583V20H87.775V18ZM85.3557 18.3653L75.4197 6.26926L73.8743 7.53874L83.8103 19.6347L85.3557 18.3653ZM74.647 7.904H76.207V5.904H74.647V7.904ZM75.207 6.904V19H77.207V6.904H75.207ZM76.207 18H72.367V20H76.207V18ZM91.7498 19H90.7498V20H91.7498V19ZM91.7498 2.2V1.2H90.7498V2.2H91.7498ZM104.206 3.256L103.754 4.1484L103.763 4.15248L104.206 3.256ZM107.47 15.04L108.317 15.572L108.32 15.5671L107.47 15.04ZM104.206 17.968L104.649 18.8645L104.657 18.8604L104.206 17.968ZM95.6378 15.808H94.6378V16.808H95.6378V15.808ZM102.094 15.184L102.548 16.0749L102.555 16.0715L102.094 15.184ZM104.014 13.36L103.153 12.8507L103.149 12.8572L103.146 12.8639L104.014 13.36ZM104.014 7.84L103.146 8.33614L103.152 8.3467L103.158 8.35711L104.014 7.84ZM102.094 6.04L101.626 6.92379L101.636 6.92923L101.647 6.93443L102.094 6.04ZM95.6378 5.392V4.392H94.6378V5.392H95.6378ZM92.7498 19V2.2H90.7498V19H92.7498ZM91.7498 3.2H99.3818V1.2H91.7498V3.2ZM99.3818 3.2C101.076 3.2 102.524 3.52619 103.755 4.14837L104.657 2.36363C103.103 1.57781 101.336 1.2 99.3818 1.2V3.2ZM103.763 4.15248C104.998 4.76318 105.943 5.60896 106.623 6.69195L108.317 5.62805C107.429 4.21504 106.197 3.12481 104.649 2.35952L103.763 4.15248ZM106.623 6.69195C107.292 7.75623 107.646 9.04521 107.646 10.6H109.646C109.646 8.73079 109.216 7.05977 108.317 5.62805L106.623 6.69195ZM107.646 10.6C107.646 12.1365 107.293 13.4285 106.62 14.5129L108.32 15.5671C109.215 14.1235 109.646 12.4555 109.646 10.6H107.646ZM106.623 14.5081C105.941 15.5931 104.994 16.4486 103.755 17.0756L104.657 18.8604C106.201 18.0794 107.43 16.9829 108.317 15.5719L106.623 14.5081ZM103.763 17.0715C102.531 17.6805 101.079 18 99.3818 18V20C101.333 20 103.097 19.6315 104.649 18.8645L103.763 17.0715ZM99.3818 18H91.7498V20H99.3818V18ZM95.6378 16.808H99.1898V14.808H95.6378V16.808ZM99.1898 16.808C100.433 16.808 101.563 16.5769 102.548 16.0749L101.64 14.2931C100.992 14.6231 100.187 14.808 99.1898 14.808V16.808ZM102.555 16.0715C103.55 15.5545 104.335 14.8136 104.882 13.8561L103.146 12.8639C102.797 13.4744 102.301 13.9495 101.633 14.2965L102.555 16.0715ZM104.874 13.8693C105.443 12.908 105.71 11.8063 105.71 10.6H103.71C103.71 11.5057 103.512 12.244 103.153 12.8507L104.874 13.8693ZM105.71 10.6C105.71 9.38144 105.445 8.27488 104.87 7.32288L103.158 8.35711C103.511 8.94112 103.71 9.67456 103.71 10.6H105.71ZM104.882 7.34386C104.333 6.38305 103.544 5.64704 102.541 5.14557L101.647 6.93443C102.308 7.26496 102.799 7.72895 103.146 8.33614L104.882 7.34386ZM102.562 5.15621C101.574 4.63327 100.438 4.392 99.1898 4.392V6.392C100.181 6.392 100.982 6.58273 101.626 6.92379L102.562 5.15621ZM99.1898 4.392H95.6378V6.392H99.1898V4.392ZM94.6378 5.392V15.808H96.6378V5.392H94.6378ZM115.154 8.968V7.968H114.154V8.968H115.154ZM123.242 8.968H124.242V7.968H123.242V8.968ZM123.242 11.992V12.992H124.242V11.992H123.242ZM115.154 11.992H114.154V12.992H115.154V11.992ZM115.442 15.88H114.442V16.88H115.442V15.88ZM124.586 15.88H125.586V14.88H124.586V15.88ZM124.586 19V20H125.586V19H124.586ZM111.578 19H110.578V20H111.578V19ZM111.578 2.2V1.2H110.578V2.2H111.578ZM124.274 2.2H125.274V1.2H124.274V2.2ZM124.274 5.32V6.32H125.274V5.32H124.274ZM115.442 5.32V4.32H114.442V5.32H115.442ZM115.154 9.968H123.242V7.968H115.154V9.968ZM122.242 8.968V11.992H124.242V8.968H122.242ZM123.242 10.992H115.154V12.992H123.242V10.992ZM116.154 11.992V8.968H114.154V11.992H116.154ZM115.442 16.88H124.586V14.88H115.442V16.88ZM123.586 15.88V19H125.586V15.88H123.586ZM124.586 18H111.578V20H124.586V18ZM112.578 19V2.2H110.578V19H112.578ZM111.578 3.2H124.274V1.2H111.578V3.2ZM123.274 2.2V5.32H125.274V2.2H123.274ZM124.274 4.32H115.442V6.32H124.274V4.32ZM114.442 5.32V15.88H116.442V5.32H114.442ZM127.679 19H126.679V20H127.679V19ZM127.679 2.2V1.2H126.679V2.2H127.679ZM138.84 2.944L138.425 3.85398L138.436 3.85892L138.84 2.944ZM141.359 5.032L140.521 5.57647L141.359 5.032ZM141.359 11.536L142.194 12.0873L142.198 12.0805L141.359 11.536ZM138.84 13.6L139.243 14.5149H139.243L138.84 13.6ZM129.839 14.32L129.137 13.608L127.401 15.32H129.839V14.32ZM131.568 12.616H132.568V10.2255L130.865 11.904L131.568 12.616ZM131.568 19V20H132.568V19H131.568ZM138.359 19L137.536 19.5674L137.834 20H138.359V19ZM134.16 12.904V11.904H132.256L133.336 13.4714L134.16 12.904ZM138.311 12.904L139.132 12.3323L138.833 11.904H138.311V12.904ZM142.559 19V20H144.475L143.38 18.4283L142.559 19ZM131.568 13.048L130.842 13.7357L132.568 15.5576V13.048H131.568ZM129.839 11.224V10.224H127.515L129.114 11.9117L129.839 11.224ZM137.424 10.456L138.078 11.2124L138.083 11.2074L138.089 11.2023L137.424 10.456ZM129.839 5.368L129.109 4.68501L127.535 6.368H129.839V5.368ZM131.568 3.52H132.568V0.986412L130.837 2.83701L131.568 3.52ZM128.679 19V2.2H126.679V19H128.679ZM127.679 3.2H134.952V1.2H127.679V3.2ZM134.952 3.2C136.348 3.2 137.496 3.43051 138.425 3.85391L139.254 2.03409C138.007 1.46549 136.563 1.2 134.952 1.2V3.2ZM138.436 3.85892C139.363 4.26805 140.045 4.84287 140.521 5.57647L142.198 4.48753C141.49 3.39712 140.492 2.57995 139.243 2.02908L138.436 3.85892ZM140.521 5.57647C140.991 6.3014 141.247 7.19316 141.247 8.296H143.247C143.247 6.87084 142.912 5.5866 142.198 4.48753L140.521 5.57647ZM141.247 8.296C141.247 9.38005 140.993 10.2646 140.521 10.9915L142.198 12.0805C142.91 10.9834 143.247 9.70795 143.247 8.296H141.247ZM140.525 10.9847C140.05 11.7038 139.368 12.2739 138.436 12.6851L139.243 14.5149C140.487 13.9661 141.485 13.1602 142.194 12.0873L140.525 10.9847ZM138.436 12.6851C137.504 13.0962 136.352 13.32 134.952 13.32V15.32C136.559 15.32 137.999 15.0638 139.243 14.5149L138.436 12.6851ZM134.952 13.32H129.839V15.32H134.952V13.32ZM130.542 15.032L132.27 13.328L130.865 11.904L129.137 13.608L130.542 15.032ZM130.568 12.616V19H132.568V12.616H130.568ZM131.568 18H127.679V20H131.568V18ZM139.183 18.4326L134.983 12.3366L133.336 13.4714L137.536 19.5674L139.183 18.4326ZM134.16 13.904H138.311V11.904H134.16V13.904ZM137.491 13.4757L141.739 19.5717L143.38 18.4283L139.132 12.3323L137.491 13.4757ZM142.559 18H138.359V20H142.559V18ZM132.293 12.3603L130.565 10.5363L129.114 11.9117L130.842 13.7357L132.293 12.3603ZM129.839 12.224H134.736V10.224H129.839V12.224ZM134.736 12.224C136.053 12.224 137.229 11.9466 138.078 11.2124L136.769 9.69964C136.434 9.98939 135.818 10.224 134.736 10.224V12.224ZM138.089 11.2023C138.927 10.4553 139.311 9.4459 139.311 8.296H137.311C137.311 8.9701 137.104 9.40071 136.758 9.7097L138.089 11.2023ZM139.311 8.296C139.311 7.13694 138.93 6.11723 138.078 5.37964L136.769 6.89236C137.101 7.17877 137.311 7.59906 137.311 8.296H139.311ZM138.078 5.37964C137.229 4.64539 136.053 4.368 134.736 4.368V6.368C135.818 6.368 136.434 6.60261 136.769 6.89236L138.078 5.37964ZM134.736 4.368H129.839V6.368H134.736V4.368ZM130.57 6.05099L132.298 4.20299L130.837 2.83701L129.109 4.68501L130.57 6.05099ZM130.568 3.52V13.048H132.568V3.52H130.568ZM146.984 18.76L146.698 19.7182L146.709 19.7215L146.984 18.76ZM144.008 17.344L143.096 16.933L142.77 17.6558L143.4 18.1379L144.008 17.344ZM145.328 14.416L145.907 13.601L144.916 12.8961L144.416 14.005L145.328 14.416ZM147.872 15.688L147.546 16.6335L147.556 16.6367L147.565 16.6397L147.872 15.688ZM152.72 15.952L153.016 16.9071L153.026 16.904L153.036 16.9007L152.72 15.952ZM153.776 15.304L153.004 14.6683L153.776 15.304ZM153.584 13.312L152.972 14.1033L152.984 14.1122L152.996 14.1207L153.584 13.312ZM152.192 12.664L151.9 13.6204L151.912 13.6241L151.924 13.6275L152.192 12.664ZM150.272 12.184L150.045 13.158L150.058 13.161L150.072 13.1637L150.272 12.184ZM148.184 11.608L147.874 12.5589L147.881 12.5609L148.184 11.608ZM146.288 10.744L145.766 11.5973V11.5973L146.288 10.744ZM144.872 9.352L144.019 9.87345L144.024 9.88197L144.029 9.89039L144.872 9.352ZM145.112 4.528L144.277 3.97715L144.275 3.98121L145.112 4.528ZM147.464 2.632L147.871 3.54525L147.878 3.54237L147.464 2.632ZM154.544 2.296L154.301 3.26614L154.309 3.26793L154.316 3.26962L154.544 2.296ZM157.256 3.4L158.182 3.77658L158.497 3.00197L157.791 2.55492L157.256 3.4ZM156.056 6.352L155.56 7.22024L156.552 7.78721L156.982 6.72858L156.056 6.352ZM153.704 5.368L153.429 6.32952L153.438 6.33213L153.448 6.33456L153.704 5.368ZM149.552 5.296L149.208 4.35712V4.35712L149.552 5.296ZM148.52 5.992L149.314 6.59945L149.323 6.58858L149.331 6.57749L148.52 5.992ZM148.736 8.008L148.124 8.79928L148.136 8.80818L148.148 8.81674L148.736 8.008ZM150.128 8.632L149.86 9.59552V9.59552L150.128 8.632ZM152.024 9.112L151.797 10.086L151.802 10.0871L152.024 9.112ZM154.112 9.664L153.823 10.6212L153.829 10.623L154.112 9.664ZM156.032 10.504L156.553 9.65072V9.65072L156.032 10.504ZM157.424 11.896L156.571 12.4174L156.576 12.426L156.581 12.4344L157.424 11.896ZM157.184 16.672L158.013 17.2306L157.184 16.672ZM154.808 18.568L154.394 17.6576L154.389 17.66L154.808 18.568ZM150.848 18.288C149.592 18.288 148.397 18.1237 147.259 17.7985L146.709 19.7215C148.035 20.1003 149.416 20.288 150.848 20.288V18.288ZM147.27 17.8018C146.116 17.457 145.244 17.0311 144.616 16.5501L143.4 18.1379C144.276 18.8089 145.388 19.327 146.698 19.7182L147.27 17.8018ZM144.92 17.755L146.24 14.827L144.416 14.005L143.096 16.933L144.92 17.755ZM144.748 15.231C145.558 15.8068 146.495 16.2715 147.546 16.6335L148.197 14.7425C147.297 14.4325 146.538 14.0492 145.907 13.601L144.748 15.231ZM147.565 16.6397C148.653 16.9906 149.756 17.168 150.872 17.168V15.168C149.972 15.168 149.075 15.0254 148.179 14.7363L147.565 16.6397ZM150.872 17.168C151.689 17.168 152.417 17.0929 153.016 16.9071L152.424 14.9969C152.094 15.0991 151.591 15.168 150.872 15.168V17.168ZM153.036 16.9007C153.621 16.7058 154.163 16.4069 154.548 15.9397L153.004 14.6683C152.941 14.7451 152.779 14.8782 152.404 15.0033L153.036 16.9007ZM154.548 15.9397C154.919 15.4889 155.112 14.9522 155.112 14.368H153.112C153.112 14.4878 153.081 14.5751 153.004 14.6683L154.548 15.9397ZM155.112 14.368C155.112 13.6111 154.792 12.9539 154.172 12.5033L152.996 14.1207C153.08 14.1821 153.112 14.2289 153.112 14.368H155.112ZM154.195 12.5207C153.712 12.1475 153.12 11.8839 152.46 11.7005L151.924 13.6275C152.416 13.7641 152.751 13.9325 152.972 14.1033L154.195 12.5207ZM152.484 11.7076C151.873 11.5209 151.202 11.3535 150.472 11.2043L150.072 13.1637C150.75 13.3025 151.359 13.4551 151.9 13.6204L152.484 11.7076ZM150.498 11.21C149.837 11.0563 149.167 10.8714 148.487 10.6551L147.881 12.5609C148.609 12.7926 149.33 12.9917 150.045 13.158L150.498 11.21ZM148.494 10.6571C147.874 10.4556 147.314 10.1992 146.809 9.89072L145.766 11.5973C146.414 11.9928 147.117 12.3124 147.874 12.5589L148.494 10.6571ZM146.809 9.89072C146.365 9.61895 146.002 9.26328 145.715 8.81361L144.029 9.89039C144.478 10.5927 145.059 11.1651 145.766 11.5973L146.809 9.89072ZM145.725 8.83055C145.496 8.45501 145.344 7.91461 145.344 7.144H143.344C143.344 8.16538 143.544 9.09699 144.019 9.87345L145.725 8.83055ZM145.344 7.144C145.344 6.37301 145.546 5.6919 145.949 5.07479L144.275 3.98121C143.654 4.9321 143.344 5.99499 143.344 7.144H145.344ZM145.947 5.07884C146.351 4.46568 146.972 3.94639 147.871 3.54523L147.057 1.71877C145.876 2.2456 144.929 2.99032 144.277 3.97716L145.947 5.07884ZM147.878 3.54237C148.765 3.13886 149.934 2.912 151.424 2.912V0.912C149.746 0.912 148.274 1.16514 147.05 1.72163L147.878 3.54237ZM151.424 2.912C152.398 2.912 153.357 3.02998 154.301 3.26614L154.786 1.32586C153.683 1.05002 152.562 0.912 151.424 0.912V2.912ZM154.316 3.26962C155.245 3.48752 156.043 3.81611 156.721 4.24508L157.791 2.55492C156.901 1.99189 155.89 1.58448 154.772 1.32238L154.316 3.26962ZM156.33 3.02342L155.13 5.97542L156.982 6.72858L158.182 3.77658L156.33 3.02342ZM156.552 5.48376C155.701 4.99752 154.837 4.63403 153.96 4.40144L153.448 6.33456C154.139 6.51797 154.843 6.81048 155.56 7.22024L156.552 5.48376ZM153.979 4.40648C153.113 4.15909 152.252 4.032 151.4 4.032V6.032C152.052 6.032 152.727 6.12891 153.429 6.32952L153.979 4.40648ZM151.4 4.032C150.581 4.032 149.837 4.12643 149.208 4.35712L149.896 6.23488C150.227 6.11357 150.715 6.032 151.4 6.032V4.032ZM149.208 4.35712C148.619 4.573 148.075 4.90026 147.709 5.40651L149.331 6.57749C149.381 6.50774 149.525 6.371 149.896 6.23487L149.208 4.35712ZM147.726 5.38455C147.374 5.84435 147.208 6.3819 147.208 6.952H149.208C149.208 6.7861 149.25 6.68365 149.314 6.59945L147.726 5.38455ZM147.208 6.952C147.208 7.7043 147.536 8.3445 148.124 8.79928L149.347 7.21671C149.232 7.1275 149.208 7.06369 149.208 6.952H147.208ZM148.148 8.81674C148.625 9.16397 149.209 9.41463 149.86 9.59552L150.396 7.66848C149.895 7.52936 149.551 7.36403 149.324 7.19926L148.148 8.81674ZM149.86 9.59552C150.452 9.75991 151.098 9.92336 151.797 10.086L152.25 8.13799C151.574 7.98064 150.956 7.82409 150.396 7.66848L149.86 9.59552ZM151.802 10.0871C152.484 10.242 153.157 10.42 153.823 10.6212L154.401 8.70679C153.691 8.49199 152.972 8.30202 152.246 8.13687L151.802 10.0871ZM153.829 10.623C154.456 10.8084 155.015 11.0545 155.51 11.3573L156.553 9.65072C155.897 9.24946 155.176 8.93555 154.395 8.70498L153.829 10.623ZM155.51 11.3573C155.951 11.6266 156.301 11.9768 156.571 12.4174L158.277 11.3745C157.842 10.6632 157.265 10.0854 156.553 9.65072L155.51 11.3573ZM156.581 12.4344C156.821 12.8094 156.976 13.3366 156.976 14.08H158.976C158.976 13.0634 158.763 12.1346 158.267 11.3576L156.581 12.4344ZM156.976 14.08C156.976 14.8247 156.771 15.4942 156.355 16.1134L158.013 17.2306C158.652 16.2817 158.976 15.2233 158.976 14.08H156.976ZM156.355 16.1134C155.951 16.7125 155.32 17.2368 154.394 17.6576L155.222 19.4784C156.408 18.9392 157.361 18.1995 158.013 17.2306L156.355 16.1134ZM154.389 17.66C153.522 18.0603 152.357 18.288 150.848 18.288V20.288C152.539 20.288 154.014 20.0357 155.227 19.476L154.389 17.66ZM163.878 19H162.878V20H163.878V19ZM163.878 5.368H164.878V4.368H163.878V5.368ZM158.502 5.368H157.502V6.368H158.502V5.368ZM158.502 2.2V1.2H157.502V2.2H158.502ZM173.142 2.2H174.142V1.2H173.142V2.2ZM173.142 5.368V6.368H174.142V5.368H173.142ZM167.766 5.368V4.368H166.766V5.368H167.766ZM167.766 19V20H168.766V19H167.766ZM164.878 19V5.368H162.878V19H164.878ZM163.878 4.368H158.502V6.368H163.878V4.368ZM159.502 5.368V2.2H157.502V5.368H159.502ZM158.502 3.2H173.142V1.2H158.502V3.2ZM172.142 2.2V5.368H174.142V2.2H172.142ZM173.142 4.368H167.766V6.368H173.142V4.368ZM166.766 5.368V19H168.766V5.368H166.766ZM167.766 18H163.878V20H167.766V18ZM172.182 19L171.269 18.5929L170.642 20H172.182V19ZM179.67 2.2V1.2H179.021L178.757 1.79289L179.67 2.2ZM183.51 2.2L184.423 1.7918L184.159 1.2H183.51V2.2ZM191.022 19V20H192.565L191.935 18.5918L191.022 19ZM186.942 19L186.019 19.3827L186.274 20H186.942V19ZM180.798 4.168V3.168H179.302L179.875 4.5507L180.798 4.168ZM182.334 4.168L183.258 4.55198L183.833 3.168H182.334V4.168ZM176.166 19V20H176.834L177.09 19.384L176.166 19ZM175.926 15.4L174.982 15.07L174.518 16.4H175.926V15.4ZM176.958 12.448V11.448H176.249L176.014 12.118L176.958 12.448ZM185.598 12.448L186.54 12.1112L186.303 11.448H185.598V12.448ZM186.654 15.4V16.4H188.074L187.596 15.0632L186.654 15.4ZM173.096 19.4071L180.584 2.60711L178.757 1.79289L171.269 18.5929L173.096 19.4071ZM179.67 3.2H183.51V1.2H179.67V3.2ZM182.598 2.60819L190.11 19.4082L191.935 18.5918L184.423 1.7918L182.598 2.60819ZM191.022 18H186.942V20H191.022V18ZM187.866 18.6173L181.722 3.7853L179.875 4.5507L186.019 19.3827L187.866 18.6173ZM180.798 5.168H182.334V3.168H180.798V5.168ZM181.411 3.78402L175.243 18.616L177.09 19.384L183.258 4.55198L181.411 3.78402ZM176.166 18H172.182V20H176.166V18ZM176.87 15.73L177.902 12.778L176.014 12.118L174.982 15.07L176.87 15.73ZM176.958 13.448H185.598V11.448H176.958V13.448ZM184.657 12.7848L185.713 15.7368L187.596 15.0632L186.54 12.1112L184.657 12.7848ZM186.654 14.4H175.926V16.4H186.654V14.4ZM192.765 19H191.765V20H192.765V19ZM192.765 2.2V1.2H191.765V2.2H192.765ZM195.981 2.2L196.755 1.56618L196.455 1.2H195.981V2.2ZM205.893 14.296V15.296H208.006L206.667 13.6622L205.893 14.296ZM204.333 14.296H203.333V15.296H204.333V14.296ZM204.333 2.2V1.2H203.333V2.2H204.333ZM208.173 2.2H209.173V1.2H208.173V2.2ZM208.173 19V20H209.173V19H208.173ZM204.981 19L204.209 19.6347L204.509 20H204.981V19ZM195.045 6.904V5.904H192.93L194.273 7.53874L195.045 6.904ZM196.605 6.904H197.605V5.904H196.605V6.904ZM196.605 19V20H197.605V19H196.605ZM193.765 19V2.2H191.765V19H193.765ZM192.765 3.2H195.981V1.2H192.765V3.2ZM195.208 2.83382L205.12 14.9298L206.667 13.6622L196.755 1.56618L195.208 2.83382ZM205.893 13.296H204.333V15.296H205.893V13.296ZM205.333 14.296V2.2H203.333V14.296H205.333ZM204.333 3.2H208.173V1.2H204.333V3.2ZM207.173 2.2V19H209.173V2.2H207.173ZM208.173 18H204.981V20H208.173V18ZM205.754 18.3653L195.818 6.26926L194.273 7.53874L204.209 19.6347L205.754 18.3653ZM195.045 7.904H196.605V5.904H195.045V7.904ZM195.605 6.904V19H197.605V6.904H195.605ZM196.605 18H192.765V20H196.605V18ZM212.148 19H211.148V20H212.148V19ZM212.148 2.2V1.2H211.148V2.2H212.148ZM224.604 3.256L224.153 4.1484L224.161 4.15248L224.604 3.256ZM227.868 15.04L228.715 15.572L228.718 15.5671L227.868 15.04ZM224.604 17.968L225.047 18.8645L225.056 18.8604L224.604 17.968ZM216.036 15.808H215.036V16.808H216.036V15.808ZM222.492 15.184L222.946 16.0749L222.953 16.0715L222.492 15.184ZM224.412 13.36L223.552 12.8507L223.548 12.8572L223.544 12.8639L224.412 13.36ZM224.412 7.84L223.544 8.33614L223.55 8.3467L223.556 8.35711L224.412 7.84ZM222.492 6.04L222.024 6.92379L222.035 6.92923L222.045 6.93443L222.492 6.04ZM216.036 5.392V4.392H215.036V5.392H216.036ZM213.148 19V2.2H211.148V19H213.148ZM212.148 3.2H219.78V1.2H212.148V3.2ZM219.78 3.2C221.474 3.2 222.923 3.52619 224.153 4.14837L225.056 2.36363C223.502 1.57781 221.735 1.2 219.78 1.2V3.2ZM224.161 4.15248C225.397 4.76318 226.341 5.60896 227.021 6.69195L228.715 5.62805C227.827 4.21504 226.596 3.12481 225.047 2.35952L224.161 4.15248ZM227.021 6.69195C227.69 7.75623 228.044 9.04521 228.044 10.6H230.044C230.044 8.73079 229.614 7.05977 228.715 5.62805L227.021 6.69195ZM228.044 10.6C228.044 12.1365 227.691 13.4285 227.018 14.5129L228.718 15.5671C229.613 14.1235 230.044 12.4555 230.044 10.6H228.044ZM227.021 14.5081C226.34 15.5931 225.393 16.4486 224.153 17.0756L225.056 18.8604C226.6 18.0794 227.829 16.9829 228.715 15.5719L227.021 14.5081ZM224.161 17.0715C222.929 17.6805 221.477 18 219.78 18V20C221.731 20 223.495 19.6315 225.047 18.8645L224.161 17.0715ZM219.78 18H212.148V20H219.78V18ZM216.036 16.808H219.588V14.808H216.036V16.808ZM219.588 16.808C220.831 16.808 221.962 16.5769 222.946 16.0749L222.038 14.2931C221.391 14.6231 220.585 14.808 219.588 14.808V16.808ZM222.953 16.0715C223.949 15.5545 224.733 14.8136 225.28 13.8561L223.544 12.8639C223.195 13.4744 222.7 13.9495 222.031 14.2965L222.953 16.0715ZM225.273 13.8693C225.842 12.908 226.108 11.8063 226.108 10.6H224.108C224.108 11.5057 223.911 12.244 223.552 12.8507L225.273 13.8693ZM226.108 10.6C226.108 9.38144 225.843 8.27488 225.268 7.32288L223.556 8.35711C223.909 8.94112 224.108 9.67456 224.108 10.6H226.108ZM225.28 7.34386C224.731 6.38305 223.942 5.64704 222.939 5.14557L222.045 6.93443C222.706 7.26496 223.197 7.72895 223.544 8.33614L225.28 7.34386ZM222.96 5.15621C221.972 4.63327 220.837 4.392 219.588 4.392V6.392C220.58 6.392 221.38 6.58273 222.024 6.92379L222.96 5.15621ZM219.588 4.392H216.036V6.392H219.588V4.392ZM215.036 5.392V15.808H217.036V5.392H215.036Z" fill="#333333" mask="url(#path-1-outside-1_1_532)"/>
</svg>
